<svg width="75" height="36" fill="none" xmlns="http://www.w3.org/2000/svg"><path d="M5.5 7.73a41.67 41.67 0 0 0 20.47 9.36c7.93 1.23 16.93 1.18 24.06-.57 4.88-1.2 5.58-1.41 6.8-2.18-2.1-2.62-9.02-7.05-8.62-12.42A1.48 1.48 0 0 1 50.58.84c5.89 4.49 18.14 11.84 23.32 16.45.54.48 1.14 1.07 1.1 1.8-.03.71-.64 1.23-1.2 1.67a205.59 205.59 0 0 1-22.17 14.93 2.19 2.19 0 0 1-3.03-.8c-.5-.95.03-1.68.54-2.34l7.22-9.26c-12.37 5.27-26.81 5.05-39.17-.14A31.56 31.56 0 0 1 1.1 8.23C-.7 4.59-.92 2.31 5.5 7.73Z" fill="#FBC8B8"/></svg>