<svg width="73" height="74" fill="none" xmlns="http://www.w3.org/2000/svg"><path d="M20.24 3.05C14.42 5.6 9.25 9.7 6.14 14.74c-7.8 12.6-7.71 31.7 5.49 40.67 15.99 10.86 44.28 5.35 46.17-16.88 1.88-22.4-13.53-45.86-37.56-35.48Z" fill="#F7BC28"/><path d="M22.95 9.55c-4.35 1.9-8.12 4.94-10.42 8.64-5.82 9.39-5.74 23.55 4.1 30.22 11.9 8.07 32.88 3.95 34.28-12.52 1.31-16.54-10.09-34-27.96-26.34Z" fill="#FBFAF7"/><path d="M42.7 52.69c4.03 5.1 6.49 7.57 10.26 10.7 2.7 2.22 5.41 4.45 8.03 6.67 2.22 1.81 4.84 3.79 7.63 3.3 2.95-.5 5-3.96 4.02-6.84a8.02 8.02 0 0 0-1.72-2.72 100.8 100.8 0 0 0-17.55-17.45L42.7 52.69Z" fill="#F7BC28"/><path d="m57.14 66.77 9.43-8.32 1.8 2.06-9.18 7.9-2.05-1.64ZM60.42 69.57l8.94-7.74 1.56 1.97-8.61 7.33-1.89-1.56Z" fill="#E48929"/></svg>