<svg width="83" height="75" fill="none" xmlns="http://www.w3.org/2000/svg"><path d="M35.92 25.67c2.36-3.09 5.88-25.11 12.2-19.1 4.12 3.9 6.58 14.84 10.11 18.99 4.31 5.04 25.92-.07 24.7 8.02-.84 5.6-12.96 9.14-16.13 13.63-6.1 8.62 4.28 14.5 3.63 22.9-.69 8.83-14.3-.03-18.44-2.47-3.42-2.01-5.49-4.02-9.44-2.95-6.86 1.84-10.39 9.38-17.65 10.28-7.35.92.19-14.93 1.22-17.36.88-2.06 4.6-7.55 4.05-9.84-1-4.16-9.35-5.46-12.8-6.56-5.86-1.86-9.34-8.17-2.7-9.23 7.82-1.28 17.42-1.29 21.25-6.31Z" fill="#F7BC28"/><path d="M40.93 33.03c1.3-1.7 3.24-13.8 6.7-10.49 2.26 2.15 3.63 8.15 5.57 10.43 2.37 2.77 14.24-.04 13.57 4.4-.46 3.09-7.12 5.03-8.87 7.5-3.35 4.73 2.36 7.96 2 12.58-.38 4.85-7.85-.02-10.13-1.36-1.88-1.1-3.01-2.2-5.2-1.62-3.75 1.01-5.7 5.16-9.7 5.65-4.02.5.11-8.2.68-9.54.49-1.13 2.53-4.15 2.22-5.4-.55-2.3-5.15-3-7.04-3.6-3.2-1.02-5.12-4.5-1.47-5.08 4.3-.71 9.56-.71 11.67-3.47Z" fill="#E48929"/><path d="M70.35 8.19c.13-2.6.68-5.18 1.64-7.6.11-.3.34-.65.66-.59.23.05.34.3.4.52.54 1.6.89 3.23 1.03 4.9.02.24.05.5.21.64.27.25.7.1 1.02-.07l4.64-2.42c.08 1.99-2.16 3.17-3.16 4.88-.15.27-.28.56-.21.87.05.28.26.48.45.69l4.22 4.28a8.33 8.33 0 0 1-5.99-1.73c0 2.48-.27 4.97-.81 7.4a19.31 19.31 0 0 1-2.57-6.01c-1.23.89-2.48 1.76-3.72 2.65l1.91-3.99c.08-.18.17-.35.16-.54-.03-.3-.3-.53-.55-.7-1.38-.9-4.14-1.6-4.49-3.41 1.42-.59 3.65-.05 5.16.23ZM4.42 57.6c.05-1.96.48-3.93 1.24-5.75.08-.2.22-.42.42-.4.2.02.28.23.34.41.4 1.2.67 2.45.8 3.71.02.2.05.4.17.52.27.25.68.02.96-.2 1-.75 2.12-1.3 3.3-1.66-.16 1.5-1.8 2.39-2.52 3.73a.73.73 0 0 0-.12.46c.03.18.17.33.3.46l3.23 3.23c-1.55.43-3.14-.45-4.52-1.29a22.9 22.9 0 0 1-.56 5.6 14.88 14.88 0 0 1-1.91-4.63l-2.72 2.15c.14-.95.56-1.86 1.19-2.58.19-.22.42-.46.4-.75-.03-.3-.3-.51-.54-.68-1.3-.86-2.6-1.74-3.88-2.62a.9.9 0 0 1 1.16-.16l3.26.46Z" fill="#FBC8B8"/></svg>