<svg width="117" height="145" fill="none" xmlns="http://www.w3.org/2000/svg"><g clip-path="url(#a)"><path d="M109.94 3.58c7.91 4.71 6.43 18.11 6.83 35.4.23 9.67.27 13.88.19 22.75-.08 6.74.53 18.59-1.52 24.25-2.09 5.76-7.77 7.16-11.35 8.5a54.47 54.47 0 0 1-13.72 3.3c-2.73.26-5.45.52-8.16.94-1.6.26-4.22-.03-5.65 1.6-1.73 2-2.93 11.14-4.94 16.17-1.8 4.48-4.16 8.69-6.9 11.16-.76.69-1.6 1.26-2.44 1.03-2.67-.69-2.47-8.95-2.48-12.53-.02-3 .07-6.19.4-9.22.33-3.02-1.04-5.76-2.72-5.5l-6.5 1.03c-12.47.37-15.38-.47-26.6-4.58-4.58-1.66-7.2-7.74-7.45-16.48-.31-11.43-.04-23.01-.07-34.44-.01-9.34-.82-19.9 1.93-28.32 2.9-8.87 9.14-11.56 14.73-13.09A174.37 174.37 0 0 1 75.98 0s27.27-.4 33.96 3.58Z" fill="#F7BC28"/><path d="M39.03 44.1c19.1.89 38.28.15 57.33-2.35 2.75-.37 2.78-8.26 0-7.9a323.93 323.93 0 0 1-57.33 2.35c-2.78-.13-2.78 7.76 0 7.9ZM35.76 66.31c12.35 0 24.7-1.05 37.05-1.31 9.56-.19 19.07.66 28.6-.84 2.75-.43 2.78-8.32 0-7.9-9.53 1.47-19.04.63-28.6.84-12.35.26-24.7 1.32-37.05 1.32-2.78 0-2.8 7.9 0 7.9Z" fill="#fff"/><path d="M16.21 136.84c.15-1.58-.41-3.13-1.28-3.45-5.3-1.92-10.26-6.5-13.37-15C-3.78 103.8 5.78 88.9 12.58 84c7-5.02 15.32-4.44 21.8 2.58.41.45.8.93 1.19 1.45 4.66 6.19 8.55 18.38 7.3 28.56-.45 3.77-1.6 7.24-3.67 10.06-3.86 5.27-9.1 7.21-14.1 7.72-.97.1-1.88.84-2.52 2.15a68.2 68.2 0 0 1-4.42 7.9c-1.07 1.55-2.62-.18-2.4-2.63l.45-4.95Z" fill="#39B55D"/><path d="M12.77 104.62h18.9c2.31 0 2.31-6.58 0-6.58h-18.9c-2.32 0-2.32 6.58 0 6.58ZM11.85 118.62h19.58c2.32 0 2.32-6.58 0-6.58H11.85c-2.32 0-2.32 6.58 0 6.58Z" fill="#fff"/></g><defs><clipPath id="a"><path fill="#fff" d="M0 0h117v145H0z"/></clipPath></defs></svg>