<svg width="62" height="75" fill="none" xmlns="http://www.w3.org/2000/svg"><path d="M4.6 13.91a8.98 8.98 0 0 0-4.46 7.43c-.42 10.46-.82 32.57 13.64 43.8l12.39 8.35c2.82 1.9 6.48 2 9.41.26 3.83-2.27 8.97-5.7 11.93-9.26l.42-.47c1.88-1.94 16.04-17.42 13.84-42.95a9.02 9.02 0 0 0-4.4-7.02L35.44 1.21a8.75 8.75 0 0 0-8.84-.02L4.6 13.9Z" fill="#F7BC28"/><path d="M11.42 19.76a6.68 6.68 0 0 0-3.31 5.51c-.31 7.76-.6 24.15 10.11 32.48l9.19 6.2a6.5 6.5 0 0 0 6.98.2c2.84-1.69 6.65-4.23 8.85-6.87l.3-.35c1.4-1.43 11.86-13.03 10.27-31.85-.1-1.22-3.09-4.87-4.1-5.7l-15.42-9.04a6.5 6.5 0 0 0-6.55-.02l-16.32 9.44Z" fill="#E48929"/><path d="M31 9.44V37.5h22.16s1.58-7.83.66-12.42c0 0-.26-3.15-4.1-5.7l-15.43-9.04s-1.57-.95-3.3-.9ZM31 37.5v27.56s-1.79.1-4.02-1.4l-7.39-4.99s-6.26-3.79-8.3-10.05c0 0-2.57-5.76-2.92-11.64L31 37.5Z" fill="#FBFAF7"/></svg>