<svg width="492" height="423" fill="none" xmlns="http://www.w3.org/2000/svg"><path d="M370.53 63.56c106.84 94.9 123.32 175.5 118.17 203.95-22.83 127.12-122.83 150.35-152.74 152.04-39.55 2.16-103.06-.73-144.87.4-114.4 6.5-160.78-57.7-169.63-90.57C-33.2 194.87 43.41 91.28 88.6 56.33c116-100.69 236.36-37.12 281.94 7.23Z" fill="#F7BC28"/><path d="M186.43 165.78c5.63-12.3 12.62-23.87 19.53-35.44l57.89-96.03c5.22-8.6 13.26-18.48 22.59-17.68a2.43 2.43 0 0 1 2.17 2.66c0 .16-.08.32-.08.56a94.72 94.72 0 0 1-22.67 36.32c-2.42 2.33-5.23 3.94-5.63 5.14-.24.8-3.38 9.48-4.5 13.1-13.19 40.82-25.65 74.09-31.6 88.31" fill="#FFC9A0"/><path d="M229.68 156.21c-6.51 19.7-8.6 30.06-18.73 35.68l-53.62 20.17c8.68-16.55 19.53-39.53 29.58-55.28l42.77-.57Z" fill="#307549"/><path d="M177.83 166.9c17.28-.64 34.57-.4 51.77.8a2.47 2.47 0 0 0 2.41-2.4 2.6 2.6 0 0 0-2.41-2.42 483.42 483.42 0 0 0-51.77-.8c-3.14.08-3.14 4.98 0 4.82Z" fill="#153A23"/><path d="M183.46 203.06c-2.5-11-2.18-25.31 5.46-37.36 1.69-2.66-.96-4.42-2.41-1.7-6.6 12.46-10.37 14.8-10.53 40.5 0 3.14 3.3 2.98 3.21-.15l4.27-1.29ZM193.66 197.04c4.02-10.53 7.88-21.78 12.55-32.07.56-1.2.8-1.68-.49-2.49a2.56 2.56 0 0 0-3.37.89c-6.51 11.73-7.88 27.96-13.43 32.38-1.04.8.48 2.65 1.69 3.05a2.69 2.69 0 0 0 3.05-1.76ZM201.94 198.08c1.61-2.33 4.19-3.78 6.28-5.54 2.33-1.93 1.2-4.9 3.21-7.16 3.54-3.85 6.83-8.43 9.8-18.32.9-3.05-5.14-4.42-5.7-1.28-1.69 9.24-3.38 12.05-6.27 17.51a19.36 19.36 0 0 1-5.3 6.35c-2.34 1.85-4.59 3.46-6.28 5.95a2.56 2.56 0 0 0 .89 3.37c1.2.65 2.73.25 3.38-.88Z" fill="#153A23"/><path d="M160.3 246.94c-26.05.56-72.91-8.84-98.96-9-16.4-.16-27.74 3.77-48.8-9.08a20.33 20.33 0 0 1-5.87-4.9c-.96-1.29.24-3.22 1.7-2.66 14.62 6.27 32.23-3.7 47.18 2.33 10.93 4.42 72.11-.72 107.33-8.51M422.14 119.17a1298.19 1298.19 0 0 1-45.5 82.12c-10.3-10.84-13.43-13.25-26.21-25.23l1.05 60.03 21.94 12.45c4.26 2.42 8.76 4.9 13.67 4.75 10.37-.33 16.48-11.58 20.1-21.3 12.3-33.1 21.62-72.16 27.73-106.95l-12.78-5.87ZM277.75 273.54c3.78 45.32 5.55 77.06 8.12 132.9 4.26-.24 12.46.17 16.56 1.21 4.99-37.44 11.5-95.78 16.32-135l-41 .89Z" fill="#FFC9A0"/><path d="M162.47 206.04c38.83-18.49 80.47-35.2 121.88-46.93-.24 30.7-1.2 48.61-1.05 87.9-38.02.25-75.97-1.6-113.75-5.46l-7.08-35.51Z" fill="#39B55D"/><path d="M351.48 236.09c-7.32-4.18-17.61-11.17-26.7-16.55-3.13 22.01-2.97 31.25-6.02 53.2-12.63 0-28.38.71-41 .8l-.25-112.42c23.24-9.4 50.9-7.16 73 14.94l.97 60.03Z" fill="#153A23"/><path d="M168.58 239.63c14.4.08 21.95-.49 36.34.24 10.45.56 22.35.4 49.6 1.92 9.89.57 21.79.25 31.68.25 3.13 0 3.13-7.8 0-7.8-16.73 0-33.45 2.65-50.17 2.17-14.23-.4-28.54-.96-42.77-1.28-8.28-.25-16.48-.33-24.76-.4-3.05 0-3.13 4.9.08 4.9ZM153.47 226.04c19.13.65 38.19-.64 57.32-1.28 18.17-.56 37.38.48 55.47-.48 7.96-.4 18.97-4.74 23-2.17 2.64 1.68 3.13-2.82 0-2.9-13.27-.64-32.09.65-47.68 1.37-19.14.88-37.3.72-56.52.88-10.53.08-21.06.08-31.6-.24-3.13-.16-3.13 4.74 0 4.82ZM150.41 211.26c18.01.08 30.15 4.82 47.92 1.93 17.52-2.9 36.17-3.94 61.82-4.1 10.13-.08 18.25-2.5 28.38-3.3a2.54 2.54 0 0 0 2.4-2.49c0-1.2-1.12-2.8-2.4-2.4-4.99 1.28-26.21 4.97-53.95 3.53-17.92-.89-43.25 3.7-61.17 4.02-10.13.16-12.87-2.01-23-2.1-3.13.09-3.13 4.9 0 4.9ZM170.03 195.03c30.79-1.13 58.93.08 89.72-1.7 8.76-.47 20.1-3.29 28.86-3.93a2.44 2.44 0 0 0 2.41-2.49 2.42 2.42 0 0 0-2.41-2.41c-30.71 2.09-58.05 5.95-92.37 4.58-8.77-.32-17.53.64-26.3.96-3.05.25-3.13 5.15.09 4.99ZM218.34 175.82c20.99.08 42.05-.48 63.03-1.69a656.5 656.5 0 0 0 17.69-1.2 2.42 2.42 0 0 0 2.41-2.41 2.54 2.54 0 0 0-2.41-2.5 970.08 970.08 0 0 1-62.95 2.82c-5.95.08-11.82.08-17.77.08-3.21.08-3.21 4.9 0 4.9Z" fill="#153A23"/><path d="M46.55 150.27c-2.25.8-4.18 2.17-5.55 4.1-3.14 4.17-3.05 13.01 2.65 15.67 3.54 1.68 10.05 2.33 13.03-.25 2.49-2 4.42-4.66 5.54-7.71" fill="#32142A"/><path d="m71.3 184.5 10.46 6.5c.32.17.64.41.88.73.24.4.32.89.32 1.37l.4 13.74c.09.48 0 1.04-.31 1.45-.25.24-.65.48-.97.56a202.3 202.3 0 0 1-11.9 3.53l1.13-27.88Z" fill="#E48929"/><path d="M72.35 173.25c.49 15.03.24 30.13-.8 45.16-.08 1.05-.24 2.25-1.05 3.05-.8.8-2.09.8-3.3.8-19.93.09-39.87.17-59.8.09-.57.08-1.21-.08-1.7-.4a2.3 2.3 0 0 1-.55-1.45 172.8 172.8 0 0 1-.73-46.45l67.93-.8ZM87.23 185.79c.08 8.84 0 17.67-.08 26.43 0 .57 0 1.2-.09 1.77-.08.48-.16.48-.32.48-1.85.08-3.78.08-5.62.08-.08 0-.08 0-.17-.24 0-.24-.08-.56-.08-.8-.24-9-.24-18.72-.08-27.8l6.44.08Z" fill="#32142A"/><path d="M45.58 168.83c3.46.32 7 .72 10.13-.56 3.14-1.29 5.95-3.86 6.67-7.15.89-3.78-1.04-7.88-4.34-10.05a13 13 0 0 0-11.41-1.04 8.66 8.66 0 0 0-2.82 1.52c-1.68 1.45-2.4 3.7-2.81 5.87a14.1 14.1 0 0 0 .08 6.35 7.06 7.06 0 0 0 4.26 4.66" fill="#E48929"/><path d="M46.06 175.18c2.82-4.66 5.23-9.56 7.32-14.63l-3.46-.08c-.4 0-.72 0-1.04.16-.24.16-.48.4-.64.65-3.22 4.58-4.9 9.96-7.96 14.62M15.27 141.59a16.05 16.05 0 0 0-7.55 5.87c-4.18 5.94-3.78 18.16 4.26 21.7 4.98 2.16 13.99 2.8 18.09-.81a23.72 23.72 0 0 0 7.4-10.93" fill="#32142A"/><path d="M7.8 161.28c-1.37-2.74-.89-5.95-.4-8.92.48-2.98 1.44-6.19 3.77-8.36 1.13-.96 2.5-1.77 3.86-2.33 5.15-2 11.42-1.85 16.08 1.04 4.66 2.9 7.56 8.6 6.43 13.9-.96 4.59-4.74 8.28-9.16 10.3.08 0-15.68 4.33-20.58-5.63Z" fill="#E48929"/><path d="M27.82 147.86a1.76 1.76 0 0 1-.08-1.13c0-.4.16-.72.48-.96.16-.08.32-.24.48-.32a2.05 2.05 0 0 1 1.93.16c.56.32.88 1.04.8 1.68a1.7 1.7 0 0 1-1.12 1.21s-1.93.56-2.5-.64ZM30.95 155.81a2.65 2.65 0 0 1 0-1.12c0-.4.16-.73.48-.97.16-.16.32-.24.49-.32a2.05 2.05 0 0 1 1.93.16c.56.32.88 1.05.8 1.69a1.7 1.7 0 0 1-1.13 1.2c0 .09-1.93.57-2.57-.64ZM18.97 145.45a1.76 1.76 0 0 1-.08-1.13c0-.4.16-.72.48-.96.17-.08.33-.24.49-.32a2.05 2.05 0 0 1 1.93.16c.56.32.88 1.04.8 1.68a1.7 1.7 0 0 1-1.13 1.2s-1.92.57-2.49-.63ZM10.7 149.7a1.76 1.76 0 0 1-.09-1.12c0-.4.16-.72.48-.96.16-.08.33-.25.49-.33a2.05 2.05 0 0 1 1.93.17c.56.32.88 1.04.8 1.68a1.7 1.7 0 0 1-1.13 1.2c.08 0-1.84.57-2.49-.63ZM9.4 158.46a1.76 1.76 0 0 1-.07-1.12c0-.4.16-.72.48-.97.16-.08.32-.24.48-.32a2.05 2.05 0 0 1 1.93.16c.56.33.88 1.05.8 1.7a1.7 1.7 0 0 1-1.12 1.2c.08 0-1.85.56-2.5-.65ZM16.4 164.41a1.77 1.77 0 0 1-.08-1.12c0-.4.16-.73.48-.97.16-.08.32-.24.48-.32a2.05 2.05 0 0 1 1.93.16c.57.32.89 1.05.8 1.69a1.7 1.7 0 0 1-1.12 1.2c0 .08-1.93.57-2.49-.64ZM25.89 162.56a1.77 1.77 0 0 1-.08-1.12c0-.4.16-.73.48-.97.16-.08.32-.24.48-.32a2.05 2.05 0 0 1 1.93.16c.56.32.88 1.05.8 1.69a1.7 1.7 0 0 1-1.12 1.2c.08.09-1.85.57-2.5-.64ZM55.95 154.93a1.12 1.12 0 0 1 0-.72c0-.4.24-.73.65-.89.48-.16.96-.08 1.36.16.4.24.57.73.49 1.2-.17.4-.4.65-.8.81 0-.08-1.38.24-1.7-.56ZM57.96 160.47a1.11 1.11 0 0 1 0-.72c0-.24.16-.48.32-.72a.6.6 0 0 1 .33-.16c.48-.16.96-.16 1.36.08.4.24.65.72.48 1.2-.16.4-.4.64-.8.8.08 0-1.29.4-1.69-.48ZM49.76 153a1.12 1.12 0 0 1 0-.72c0-.24.16-.49.32-.73a.61.61 0 0 1 .33-.16c.48-.16.96-.16 1.36.08.4.24.57.73.48 1.2-.16.41-.4.65-.8.81.08.08-1.29.4-1.69-.48ZM43.97 155.9a1.11 1.11 0 0 1 0-.73c0-.24.17-.48.33-.72a.61.61 0 0 1 .32-.16c.48-.16.96-.16 1.36.08.4.24.57.72.49 1.2-.16.4-.4.64-.8.8.07 0-1.3.33-1.7-.48ZM42.93 161.92a1.6 1.6 0 0 1 .32-1.45.61.61 0 0 1 .32-.16c.48-.16.97-.16 1.37.08.4.24.64.73.48 1.2-.08.41-.4.73-.8.9.08 0-1.29.31-1.7-.57ZM47.67 166.18a1.12 1.12 0 0 1 0-.72c0-.25.16-.49.32-.73a.61.61 0 0 1 .33-.16c.48-.16.96-.08 1.36.08.4.24.57.72.48 1.2-.16.4-.4.65-.8.81.08 0-1.29.4-1.69-.48ZM54.35 165.05a1.12 1.12 0 0 1 0-.72c0-.24.16-.48.32-.72a.61.61 0 0 1 .32-.16c.48-.16.96-.16 1.36.08.4.24.57.72.49 1.2-.16.4-.4.65-.8.8 0 .09-1.3.4-1.7-.48Z" fill="#32142A"/><path d="m36.1 175.18-13.03-21.14c-.16-.4-.48-.72-.88-.88-.4-.16-.89-.16-1.29 0l-3.05.56c4.82 7.16 9.08 14.7 12.54 22.58" fill="#32142A"/><path d="M210.87 244.93a28.22 28.22 0 0 0 4.34-16.23s-2.73 9-19.21 15.43l14.87.8Z" fill="#307549"/><path d="m324.78 219.54-23.47-14.55 21.38 31.18 2.1-16.63Z" fill="#122D1C"/><path d="M131.36 155.33c1.05 19.69-4.74 39.13-4.98 58.82a8.24 8.24 0 0 0 .4 3.14c.88 2.09 3.46 2.97 5.79 3.29 7 .96 14.06-1.13 20.74-3.62 3.05-1.12 6.27-2.49 8.2-5.06 1.93-2.57 2.33-6.19 2.57-9.48 1.2-16 2.5-42.67 1.77-58.74l-34.49 11.65Z" fill="#FFC9A0"/><path d="M170.75 181.6c7.96-14.86 15.44-31.65 11.74-45.31a14.85 14.85 0 0 0-4.26-7.56c-5.15-4.66-13.19-3.37-20.02-2-9 1.84-19.78 2.89-25.97-3.86-1.36-1.45-2.4-3.22-3.93-4.34-1.53-1.13-4.02-1.61-5.47-.24-.97.88-1.2 2.33-1.29 3.61-1.12 10.53.32 21.62 6.11 30.46 5.8 8.84 16.4 14.94 26.85 13.42 1.13-.16 2.42-.32 3.14.48.32.4.48.8.64 1.28l4.26 14.07h8.2Z" fill="#32142A"/><path d="M160.54 176.14a8.76 8.76 0 0 1 12.7 11.5c-2.57 4.33-8.36 5.62-13.42 5.54l.72-17.04Z" fill="#FFC9A0"/><path d="M177.43 167.95c-20.1.64-45.99-13.34-45.99-13.34.08 2.97-.08 7.55-.08 10.44 13.59 1.61 29.99 9 43.65 8.2 0 0 1.29-2.5 2.42-5.3Z" fill="#39B55D"/><path d="M126.38 149.79c2.4 5.78 7.55 10.2 13.34 12.7 5.79 2.48 12.14 3.29 18.5 3.53 1.44.08 2.89 0 4.33-.16 1.93-.49 3.86-1.2 5.63-2.17l-41.8-13.9Z" fill="#32142A"/><path d="m351.48 236.09 3.45 2-3.45-60.98-1.05-1.05 1.05 60.03ZM277.75 273.54l.25 2.73 40.35-.56.32-2.98-40.92.8Z" fill="#EFB086"/><path d="M154.03 202.82c8.04 1.29 21.06 2.5 29.1 3.78 6.27.96 12.7 2 18.41 4.66 5.71 2.65 11.02 7.23 12.95 13.26.64 1.85.8 3.85.56 5.78-.97 5.95-7 9.49-12.54 11.82a144.04 144.04 0 0 1-48.8 11.25l.32-50.55Z" fill="#39B55D"/><path d="M165.2 253.37a384.77 384.77 0 0 1 1.3-51.83 2.47 2.47 0 0 0-2.42-2.41 2.55 2.55 0 0 0-2.5 2.4 384.44 384.44 0 0 0-1.28 51.84c.16 3.13 5.07 3.13 4.9 0Z" fill="#153A23"/><path d="M164.16 215.12c6.43-.4 12.94-.4 19.38 0 6.9.56 15.6 3.3 22.26 5.22 2.98.72 5.8 1.93 8.36 3.37 2.74 1.61 5.15-2.57 2.5-4.25-5.39-3.22-11.9-4.75-18.01-5.79a151.28 151.28 0 0 0-22.51-2.09c-3.78-.08-7.56-.08-11.34.16-3.13.16-3.13 5.06 0 4.9l-.64-1.52ZM163.76 231.1c36.58-1.52 51.45-2.4 55.87-1.04 1.29.4 2.41-1.04 2.41-2.4 0-1.3-1.12-2.66-2.4-2.42-19.3 2.9-37.23 1.69-55.88 1.05-3.14-.08-3.14 4.82 0 4.82ZM163.68 244.53c14.3.64 29.1.96 43.17-2.17 3.62-.8 7.15-1.93 10.61-3.46a2.56 2.56 0 0 0 .88-3.37 2.56 2.56 0 0 0-3.37-.89c-5.7 2.57-12.14 3.7-18.33 4.42-7.16.8-13.1 2.57-20.34 2.5-3.78-.09-9.57-.4-13.34-.57-3.06-.08-2.42 3.38.72 3.54Z" fill="#153A23"/><path d="m128.87 219.46 25.16-7.48v4.9l-25.16 2.58ZM164.72 192.78s-2.9.08-4.1-.4l3.94 2.4.16-2Z" fill="#EFB086"/><path d="M162.23 190.04a8.86 8.86 0 0 0 5.7-1.28 5.66 5.66 0 0 0 2.58-4.1c.24-1.6.08-3.3-.64-4.82a4.67 4.67 0 0 0-3.3-2.57 7.89 7.89 0 0 0-5.06.72c-.4.24-.56.8-.32 1.2.24.4.72.57 1.12.33 1.77-.8 4.75-1.13 5.87.88.56 1.13.8 2.41.64 3.62 0 1.2-.56 2.33-1.44 3.13a7.43 7.43 0 0 1-5.15 1.29.9.9 0 0 0-.88.88c0 .32.4.64.88.72Z" fill="#32142A"/><path d="M162.63 186.43c.65 0 1.37-.08 1.93-.4.65-.32 1.05-.8 1.29-1.53.32-.72.32-1.45 0-2.17a2.35 2.35 0 0 0-1.2-1.13 5.2 5.2 0 0 0-2.18-.4.9.9 0 0 0-.88.89c0 .48.4.88.88.88H163.28c.16 0 .32.08.48.08l.16.08h-.08.08c.08 0 .16.08.16.08h.08-.08l.24.24c-.08-.08-.08-.08 0-.08l.08.08v.08c.08.08 0 .08 0-.08 0 .08 0 .08.08.16 0 .08 0 .08 0 0V183.38c0 .08 0 .16-.08.24-.08.16-.08.32-.16.4v-.08l-.08.08c0 .08-.08.16-.08.16l.08-.08-.08.08-.08.08c.08-.08.08-.08.08 0l-.16.08h-.08c-.08.08-.32.08-.4.08-.08 0-.32.08-.08 0h-.73a.95.95 0 0 0-.8.96c.08.65.4.97.8 1.05Z" fill="#32142A"/><path d="M130.16 178.88c-1.21.88-4.99 9.72-5.63 16.15a2.08 2.08 0 0 0 1.93 2.25 34 34 0 0 0 5.7 0c.25 0 .49-.08.73-.16.24-.33.4-.65.32-1.05l-3.06-17.2Z" fill="#E48929"/><path d="m260.55 60.43-7.88 6.5h5.63l2.25-6.5Z" fill="#EFB086"/><path d="m395.93 168.03 27.17 12.45s8.12-29.57 11.9-55.44l-13.9-3.7-25.17 46.69Z" fill="#39B55D"/><path d="M417.48 129.3c3.53-6.27 13.26-.33 15.27 2.4 2.1 2.82 5.15-2.08 7.56-4.57 2.81-2.98 13.18-5.8 20.42-7.48 4.5-1.04 9-2.25 13.58-3.13 3.14-.64 9.41-.97 11.02-2.81 5.22-5.87-6.6-6.75-9.81-6.83-10.61-.4-21.22-.17-31.84-.4-8.28-.17-22.5-.33-25 1.76-4.58 3.94-5.7 13.66-6.59 19.2-.96 6.11 2.25 7.4 5.39 1.85Z" fill="#153A23"/><path d="M400.83 169.55c.8-2.49 1.85-4.82 3.14-7.15.32-.56.16-1.36-.4-1.69-.56-.32-1.37-.16-1.69.4a54.43 54.43 0 0 0-3.3 7.72c-.16.64.25 1.29.89 1.53.48.24 1.12-.16 1.36-.8ZM405.74 172.13a23.08 23.08 0 0 1 3.3-7.48c.32-.56.16-1.36-.49-1.69-.56-.32-1.36-.16-1.69.49a22.55 22.55 0 0 0-3.53 8.03c-.16.65.24 1.29.88 1.53.65.16 1.37-.24 1.53-.88ZM411.2 174.13c0-.16 0-.16 0 0v-.32c0-.08.09-.32.09-.48.08-.32.08-.56.16-.88.16-.65.32-1.2.56-1.85.16-.56.4-1.13.72-1.6l.97-1.7c.32-.56.16-1.36-.4-1.68-.57-.33-1.29-.16-1.7.48a17.95 17.95 0 0 0-2.89 8.03c0 .65.57 1.2 1.21 1.2s1.2-.55 1.29-1.2ZM416.11 177.27c.24-2.41.8-4.82 1.69-7.15.16-.65-.24-1.29-.89-1.53-.64-.16-1.28.24-1.52.88-.97 2.5-1.61 5.15-1.77 7.8 0 .64.56 1.2 1.2 1.2.73 0 1.29-.48 1.29-1.2ZM420.05 179.6l2.97-7.4c.16-.64-.24-1.28-.88-1.52-.64-.16-1.29.24-1.53.88l-2.97 7.4c-.16.64.24 1.28.88 1.52.65.08 1.37-.24 1.53-.88Z" fill="#227B3D"/><path d="M308.79 356.7c-2.25 18.8-3.7 32.07-5.95 48.22l-16.96 1.6c-.97-21.2-1.85-34.55-2.42-50.22l25.33.4Z" fill="#39B55D"/><path d="M303.32 400.58c-.64 4.66-.88 9.32-1.53 13.98-.56 4.26-5.47 3.94-8.68 4.1-8.6.48-14.23.64-21.06.64-4.43.16-8.85.25-13.27.32h-6.67c-1.45 0-4.66.17-5.7-.32-2.66-1.28-2.58-6.83.4-7.87 5.14-1.77 11.17-1.53 16.56-2.33a74.27 74.27 0 0 0 16.64-4.18c2.89-1.13 5.86-2.57 8.92-2.25 2 .24 3.86 1.2 5.79 1.45 1.69.24 3.7-.32 4.58-1.7.4-.72.88-1.28 1.45-1.84 1.28-1.13 2.9-2.25 2.57 0Z" fill="#153A23"/><path d="M286.6 364.42a45.64 45.64 0 0 1 0-8.12c0-.64-.56-1.2-1.2-1.2-.65 0-1.21.56-1.21 1.2a54.7 54.7 0 0 0 0 8.12 1.2 1.2 0 0 0 1.04 1.37c.64.08 1.29-.33 1.37-1.05v-.32ZM292.14 364.5a21.62 21.62 0 0 1 0-7.88c.17-.64-.24-1.28-.88-1.52-.64-.16-1.28.24-1.53.88a25.1 25.1 0 0 0 0 9.16c.16.65.89 1.05 1.53.89.64-.16 1.05-.8.88-1.53ZM297.93 364.5a15.74 15.74 0 0 1-.48-7.23c.16-.64-.24-1.29-.88-1.53-.65-.16-1.29.24-1.53.88-.48 2.82-.32 5.8.48 8.52.16.65.89 1.05 1.53.89.64-.16 1.13-.89.88-1.53ZM303.8 365.38a24.53 24.53 0 0 1-1.37-7.23 1.19 1.19 0 0 0-1.04-1.36c-.64-.09-1.29.32-1.37 1.04v.4c.08 2.65.57 5.3 1.45 7.88.16.64.88 1.04 1.53.88.64-.16.96-.96.8-1.6ZM308.22 365.95l-.24-7.96a1.19 1.19 0 0 0-1.04-1.37c-.65-.07-1.29.33-1.37 1.05v.4l.24 7.96c-.08.64.32 1.28 1.05 1.36.64.08 1.28-.32 1.36-1.04v-.4Z" fill="#227B3D"/><path d="M275.5 174.78c8.69-2.57 17.2-4.58 26.05-4.82a57.65 57.65 0 0 1 31.27 8.11 77.83 77.83 0 0 1 18.41 16c.97.96 2.5.96 3.46 0 .96-.97.96-2.5 0-3.46-9.16-10.61-20.66-19.29-34.17-23.23-10.45-2.97-21.3-2.89-31.91-.96-4.83.96-9.65 2.17-14.4 3.62-2.97.96-1.68 5.7 1.3 4.74Z" fill="#307549"/><path d="M461.05 103.74c-12.78 4.74-28.3 2.73-39.55-10.04-6.76-7.72-8.52-17.92-6.6-27.8 5.87-29.98 49.85-37.53 64.96-10.3 11.9 21.62-.8 41.47-18.81 48.14Z" fill="#BBD1CE"/><path d="M142.38 175.02h.72l.4.08h-.16c.48.16.96.16 1.45.32.48.16.88.32 1.28.48.32.08-.48-.24-.08-.08l.32.16c.25.08.49.24.73.32l1.2.73.24.16c.4.32-.32-.24-.08-.08.25.16.33.32.57.48.4.32.72.64 1.04 1.04l.16.25c.24.32.08.08-.08-.09.16.25.32.4.48.65a2.54 2.54 0 0 0 3.38.88c1.2-.64 1.53-2.17.89-3.37a15.4 15.4 0 0 0-12.3-6.83c-1.37 0-2.42 1.12-2.5 2.49a2.46 2.46 0 0 0 2.34 2.4ZM142.05 180.96c-.08.08-.08.16-.16.25-.48 1.04-1.52 3.7-.72 4.74s2.33.72 3.21-.16a3.8 3.8 0 0 0 0-5.07c-.4-.48-1.04-.72-1.68-.48-.24.24-.49.48-.65.72ZM145.27 192.13c2-1.28 3.62-3.21 4.5-5.46.16-.48-.16-.88-.56-1.04a.92.92 0 0 0-1.05.56l-.08.08-.08.08-.16.32c-.08.24-.24.48-.4.72-.16.24-.24.49-.4.65l-.24.32c.08-.16-.08.08-.08.08l-.09.16c-.32.4-.72.8-1.12 1.12l-.32.24-.16.16c.08-.08 0 0-.08 0-.24.17-.4.33-.65.49-.4.24-.64.72-.4 1.12.24.4.73.65 1.13.4.16 0 .16-.08.24 0ZM148.56 193.74a9.83 9.83 0 0 0 2.74-2.41c.16-.16.16-.4.08-.64a.83.83 0 0 0-.4-.48c-.16-.09-.4-.17-.65-.09a.82.82 0 0 0-.48.4l-.08.17.16-.16c-.4.48-.88.96-1.37 1.36l.17-.16a6.8 6.8 0 0 1-.97.65c-.4.24-.56.8-.32 1.2.16.32.72.48 1.13.16Z" fill="#32142A"/><path d="M462.66 81.32c-5.23 2.1-9.81 4.66-14.96 6.75-4.18-4.1-9.24-6.5-13.42-10.69.24.8-.24-.8 0 0 1.12-5.3 2.41-10.76 3.54-16.15 4.98-1.2 9-2.73 13.98-3.77l-.64-.09c4.58 3.38 8.84 5.23 13.35 8.6-.4-.88.4.97 0 0-.8 4.99-1.05 10.37-1.85 15.35-.24 1.29-1.93 2.41-.57 2.73 1.21.33 2.82-.4 3.06-1.68l2.33-14.79a2.6 2.6 0 0 0-1.13-2.73l-7.47-5.55-4.75-3.53c-.4-.32-.8-.65-1.2-.89-1.2-.8-2.73-.24-4.02.08-4.26 1.05-8.44 2.66-12.7 3.7-.8.24-1.53.88-1.69 1.69l-2.01 9.88-1.13 5.3c-.16.49-.24.97-.24 1.45 0 1.93 2.74 3.62 4.1 4.66 3.38 2.65 7.08 5.07 10.21 8.12.65.64 1.53.88 2.42.64l15.67-6.27a2.52 2.52 0 0 0 1.69-3.05c-.4-1.2-1.37-.24-2.57.24Z" fill="#153A23"/><path d="M462.1 83.09c.23.08.88.4 0 0l.56.24c2.73 1.37 5.3 3.21 8.04 4.66a20 20 0 0 0 3.53 1.6c.65.25 5.47.81 3.78-.4-1.53-1.04-4.82-2.89-6.75-4.17a71.6 71.6 0 0 1-7.4-5.63c2.98 2.57-.4 2.57-2.09 3.54.16.08.24.16.32.16ZM443.12 102.21c1.53-4.66 3.7-8.92 5.39-13.5.48-1.2-.56.57-1.77.33-1.37-.33-1.53-1.93-2.01-.65-1.69 4.58-2.33 8.44-3.86 13.1-.4 1.2-.8 2.41.4 2.73 1.2.33 1.05-.16 1.45-1.44l.4-.57ZM432.83 75.21c-.88.16-1.69.4-2.57.8-1.77.57-3.54.9-5.39.97l-3.86.48c-.88.08-2.4.49-3.3.65-.88.16-1.76.48-.4 1.28.4.16.81.24 1.21.16 2.74 0 5.47 0 8.2.24 2.65.33 5.39.33 8.12 0 1.29-.16-1.93-1.68-2.25-2.57-.32-.88 1.6-2.25.24-2ZM437.41 58.58c-.16-.08-.32.48-.48.4 0 0 .56-.32.32-.48-.08 0-.16.56-.32.48-.4-.16-.72-.32-1.12-.56-1.7-.88-3.3-1.93-4.99-2.81-1.69-.89-3.21-1.69-4.82-2.5-.64-.32-3.06-1.6-3.22-.8 0 .65.24 1.29.73 1.69a43.32 43.32 0 0 0 4.18 3.46c1.36 1.2 2.89 2.25 4.42 3.29 1.69 1.04 2.09 1.93 3.94 2.57 1.2.4-1.13-.8-.8-2 .4-1.37 3.45-2.26 2.16-2.74ZM453.17 57.13c.64-1.12 1.2-1.52 1.45-2.73.64-2.49 1.6-4.82 2.73-7.15a67.2 67.2 0 0 0 2.25-4.82c.16-.56.48-1.53 0-2.01-.32-.32-.96-.16-1.28.08a4.63 4.63 0 0 0-1.45 1.85c-1.29 2.25-2.65 4.5-3.86 6.83-.56 1.12-1.05 2.25-1.69 3.3l-1.93 3.13c-.64 1.04 1.13-.4 2.33.24 1.2.64.73 2.4 1.45 1.28ZM466.36 69.03c3.13-1.61 6.35-3.14 9.56-4.58l-.32.16c1.37-.4 6.27-3.06 5.63-4.26-.32-.64-4.18.48-5.23.96-1.04.48-4.34 1.45-5.55 1.85-2.17.64-4.5.64-6.5 1.69-1.13.56.8.72 1.44 1.85.64 1.12-.24 2.97.97 2.33ZM427.04 109.45l.08-3.38-1.76 2.33c2.16-.32 4.42-.72 6.59-1.12l-.65.08h.4l-.64-.08c.4.08.16-.08-.64-.4a1.67 1.67 0 0 1-.32-.49c-.16-.4 0 0 0 .08l.24.97.4 2.09c.4 1.28 1.69 2.09 2.98 1.68 1.28-.4 2-1.68 1.68-3.05-.24-1.04-.4-2.09-.64-3.13a3.47 3.47 0 0 0-1.2-1.93 3.57 3.57 0 0 0-2.98-.56c-2.17.32-4.34.72-6.51 1.04-.48.16-.97.4-1.29.88-.32.4-.48.97-.56 1.53l-.08 3.38a2.47 2.47 0 0 0 2.41 2.4 2.48 2.48 0 0 0 2.5-2.32ZM466.27 105.75c-.08 0-.08-.08-.16-.08l.4.48c0-.08-.07-.08-.07-.16l.24.56c0-.08 0-.08-.08-.16l.08.65v-.25l-.08.65c0-.08.08-.16.08-.24l-.25.56c0-.08.09-.08.09-.16l-.4.48.15-.16-.48.4a.61.61 0 0 1 .32-.16l-.56.24c.16-.08.32-.08.48-.08l-.64.08c.8-.08 1.6-.08 2.5-.08.8 0 1.52 0 2.32.08l-.64-.08c.24.08.56.08.8.24l-.56-.24c.16.08.32.16.48.32l-.48-.4c.16.08.24.24.32.32l-.4-.48.24.48-.24-.56c.08.16.08.24.08.4l-.08-.64v.4l.08-.64c0 .08 0 .16-.08.24l.24-.56c0 .08-.08.16-.16.24a2.48 2.48 0 0 0 .89 3.37c1.2.64 2.65.24 3.37-.88.97-1.6.65-3.7-.8-4.98-1.29-1.2-2.98-1.37-4.66-1.37h-2.1c-.8 0-1.52.08-2.33.24a3.62 3.62 0 0 0-2.4 2.41 3.2 3.2 0 0 0 .88 3.22c.48.4 1.04.72 1.76.72a2.47 2.47 0 0 0 2.42-2.41c0-.64-.24-1.29-.73-1.69l.16-.32ZM253.72 416.57c-1.77 1.45-1.13 4.5.8 5.55 1.6.96 3.46.56 5.15.4l2.33-.24c.88 0 1.77-.16 2.65-.32a3.16 3.16 0 0 0 2.41-3.06v-2.25a2.42 2.42 0 0 0-2.4-2.4 2.42 2.42 0 0 0-2.42 2.4V418.66c0 .32 0-.08.08-.24l.8-1.05c.4-.16.49-.16.32-.16-.16 0 .65-.08.25 0-1.13.09-2.33.25-3.46.33-1.05.16-2.17.24-3.22.32h-.32c.4.08.49.08.32 0h-.16c-.24 0 .4.32.08.08 0 0 .49.4.25.16.24.32.32.4.24.24-.09-.08 0-.08.08.16s.08.24.08.16v.4c0-.32-.08.32-.08.32-.08.25-.17.4-.32.57-.17.16-.17.24-.09.08.97-.97.97-2.5 0-3.46a2.48 2.48 0 0 0-3.37 0ZM288.69 421.47h4.66c.48 0 1.05 0 1.53-.16a2.9 2.9 0 0 0 1.93-1.69c.24-.96.32-2 .24-3.05a2.5 2.5 0 0 0-.72-1.77 2.33 2.33 0 0 0-3.38-.08c-.48.48-.8 1.13-.72 1.85v1.93l.08-.64v.16l.24-.56v.08l.4-.49c0 .08-.08.08-.08.08l.48-.4s-.08.08-.16.08l.56-.24c-.08 0-.16 0-.24.08l.64-.08c-.88.08-1.76 0-2.65 0h-2.73c-.64 0-1.29.24-1.69.73a2.36 2.36 0 0 0-.72 1.76c0 1.2 1.04 2.33 2.33 2.41Z" fill="#153A23"/><path d="M287 408.54c2.41 1.76 4.82 3.85 7.15 5.86.49.48 1.3.48 1.77 0 .49-.48.49-1.28 0-1.77-2.49-2.17-5.06-4.25-7.63-6.26-.57-.32-1.37-.17-1.7.4-.31.64-.15 1.36.41 1.77ZM281.86 411.1a61.45 61.45 0 0 0 6.19 4.9c.56.33 1.36.17 1.68-.4.32-.56.16-1.28-.4-1.68l-1.53-1.05c-.24-.16-.48-.4-.72-.56l-.08-.08-.08-.08-.4-.32c-.97-.8-1.93-1.6-2.82-2.41-.48-.48-1.28-.48-1.68 0-.4.48-.65 1.2-.16 1.69ZM425.27 113.7l5.55 11.42c.32.56 1.13.8 1.69.48.56-.32.8-1.13.4-1.69l-5.55-11.33c-.32-.56-1.12-.8-1.68-.4-.57.24-.73.96-.4 1.52ZM431.38 111.7c.65 1.68 1.45 3.3 2.34 4.82.96 1.77 1.92 3.45 2.73 5.3.32.56 1.12.8 1.69.4.56-.32.8-1.12.4-1.68-.8-1.77-1.77-3.46-2.65-5.15-.4-.8-.89-1.6-1.29-2.49-.16-.4-.4-.8-.56-1.12l-.08-.24c-.16-.33.08.08 0-.09a1.13 1.13 0 0 1-.16-.48c-.17-.64-.89-1.04-1.53-.88-.64.24-1.05.96-.89 1.6Z" fill="#227B3D"/><path d="M268.03 38.81A200.36 200.36 0 0 1 289 17.68c1.2-1.05-.56-2.73-1.69-1.69a193.7 193.7 0 0 0-20.98 21.22c-1.05 1.12.64 2.89 1.69 1.6ZM273.17 41.46c5.47-5.38 10.7-11.09 16.4-16.15 1.2-1.04-.56-2.81-1.77-1.68-5.7 5.14-10.93 10.76-16.4 16.23-1.12.96.65 2.73 1.77 1.6Z" fill="#EFB086"/><path d="M89.48 291.3c-3.7 3.53-2.82 10.92 3.53 9.15 9.33-2.65 2.82-15.18-3.53-9.15ZM116.81 81.88c-1.85 1.77-1.37 5.47 1.77 4.58 4.74-1.28 1.45-7.55-1.77-4.58ZM274.3 111.62a79.5 79.5 0 0 1 4.02-11.1c.24-.56.8-1.2 1.28-.96.49.24.49.97.32 1.45l-2.4 10.2c3.2-.32 6.35.17 9.32 1.45.24.08.4.4.24.64 0 .08-.08.16-.16.25a10.38 10.38 0 0 1-5.95 1.6c-.72-.08-1.6-.16-2.17.4-.32.4-.48.8-.56 1.29a34.51 34.51 0 0 1-3.22 8.44c-.16.24-.48.4-.8.24a.44.44 0 0 1-.24-.4c-.57-2.66.56-5.63.48-8.44 0-.32-.08-.64-.24-.89a1.3 1.3 0 0 0-1.05-.48 55 55 0 0 1-8.76-2.65c-.8-.32-1.69-1.12-1.13-1.77.17-.16.4-.24.73-.32 1.77-.32 3.62-.32 5.38 0l4.9 1.05ZM300.99 78.03c-2.9 2.73-2.17 8.51 2.81 7.15 7.32-2.1 2.17-11.81-2.81-7.15ZM362.49 358.07c-3.7 3.54-2.81 10.93 3.54 9.16 9.4-2.65 2.8-15.19-3.54-9.16ZM376.4 324.32c-1.85 1.77-1.37 5.47 1.77 4.58 4.74-1.28 1.44-7.55-1.77-4.58ZM410.64 330.03a104.54 104.54 0 0 1-3.94-14.7c-.16-.81-.08-1.86.73-2.02.8-.16 1.2.64 1.44 1.37 1.61 4.18 3.3 8.44 4.9 12.62a25.42 25.42 0 0 1 10.94-5.39c.32-.08.73.16.73.48 0 .16 0 .24-.08.4a12.94 12.94 0 0 1-5.15 6.03c-.8.48-1.77 1.05-2.01 2.01-.08.64.08 1.29.32 1.85a45.86 45.86 0 0 1 2.81 11.33c0 .4-.24.8-.64.8-.24 0-.4-.08-.56-.16-2.57-2.33-3.54-6.43-5.63-9.32a2.79 2.79 0 0 0-.88-.8c-.49-.08-1.05 0-1.45.24a76.63 76.63 0 0 1-11.25 3.61c-1.05.25-2.66 0-2.5-1.04.08-.32.25-.56.49-.8a17.7 17.7 0 0 1 5.7-3.94l6.03-2.57ZM429.78 295.31c-1.85 1.77-1.37 5.47 1.77 4.58 4.74-1.36 1.44-7.55-1.77-4.58ZM79.83 335.25c.32-3.62.96-7.15 1.77-10.6.16-.57.48-1.21 1.04-1.05.57.16.57.8.57 1.28-.16 3.22-.33 6.43-.57 9.57 2.82-.8 5.8-.89 8.69-.25.24.09.4.25.4.49a.6.6 0 0 1-.16.32 9.33 9.33 0 0 1-5.07 2.41c-.72 0-1.36.24-1.85.72-.24.4-.32.8-.32 1.29a30.23 30.23 0 0 1-1.53 8.03c-.08.25-.4.4-.64.33a.63.63 0 0 1-.32-.33c-.97-2.25-.4-5.14-.89-7.63 0-.32-.16-.56-.32-.8a1.62 1.62 0 0 0-1.04-.32c-2.82-.08-5.55-.4-8.36-.89-.73-.16-1.7-.8-1.29-1.37.16-.15.32-.32.56-.4 1.53-.56 3.22-.88 4.83-.8h4.5Z" fill="#fff"/></svg>