<svg width="488" height="421" fill="none" xmlns="http://www.w3.org/2000/svg"><path d="M368.53 61.64c106.76 94.9 123.24 175.5 118.17 203.95-22.83 127.12-122.83 150.35-152.82 152.04-39.56 2.17-103.06-.73-144.87.4-114.4 6.5-160.78-57.7-169.63-90.57-54.66-134.51 21.95-238.1 67.13-273.05C202.6-46.28 322.95 17.3 368.53 61.64Z" fill="#F7BC28"/><path d="M187.65 155.9c-3.86 15.6-10.46 31.5-23.72 40.58-12.3 8.44-29.02 9.4-42.77 3.54-13.75-5.87-24.36-17.92-29.74-31.82-4.02-10.45-4.83-23.47 2.8-31.74 4.03-4.34 9.66-6.67 15.2-8.84l36.02-14.39a3.76 3.76 0 0 1 4.98.97l37.55 35.51" fill="#32142A"/><path d="M148.66 120.46c-4.03 4-8.9 7.08-14.23 9a69.19 69.19 0 0 1-16.57 3.54c-2.25.24-4.5.48-6.43 1.53-1.64 1-3 2.42-3.94 4.1a21.9 21.9 0 0 0-2.81 10.68 36.08 36.08 0 0 0 7.88 24.19c7 8.76 17.52 15.03 28.78 16 11.5.96 23.72-4.75 29.02-15.2 1.05-2.09 1.69-9.08-1.6-1.36-3.7 8.6-14.96 12.85-24.2 13.02-10.54.16-20.67-5.3-27.58-12.94-3.46-3.78-8.2-8.28-9.49-13.18a39.7 39.7 0 0 1-.96-7.55c-.22-2.31-.1-4.64.32-6.91.8-3.38 5.07-7.24 8.2-8.28 2.01-.64 4.18-.56 6.27-.64 7.24-.33 14.15-3.38 20.02-7.56 1.45-1.04 2.9-2.17 4.34-3.3a8.39 8.39 0 0 0 1.69-1.68 2.41 2.41 0 0 0 .16-2.33 1.43 1.43 0 0 0-1.93-.48c-.08 0-.08.08-.16.08l3.22-.73Z" fill="#7F4341"/><path d="M120.6 155.58c-.4-3.21-1.05-7.31 1.28-9.96 2.34-2.66 6.44-2.82 9.73-2.74 4.1.16 11.01-1.6 14.95-3.61 3.38-1.69 4.02.16 6.84-2.17 1.77-1.53-.8-4.02-2.58-2.57-2.97 2.57-6.5 4.98-10.44 5.54-4.27.64-8.77-1.2-13.03-.72-3.54.4-7.07 1.85-9.08 4.98-2.17 3.3.96 8.76 1.44 12.46a1.78 1.78 0 0 0 1.77 1.76c.97.08-.72-2-.88-2.97ZM164.33 164.58c3.78-3.62 4.5-4.26 6.91-8.92a1.91 1.91 0 0 0-.64-2.49c-.8-.48-.72-.88-1.2 0a46.47 46.47 0 0 1-8.69 12.13c-.72.65-4.98 2.74-4.26 3.38.73.64 4.9-1.53 5.63-2.17l2.25-1.93Z" fill="#7F4341"/><path d="M167.3 311.4c7.16 3.53 15.36 4.73 23.24 4.17 6.1-.4 15.76-1.12 18.49-7.71 5.79-14.06 11.58-29.5 17.44-43.88 1.85-4.5-3.05-7.31-6.5-8.76a42.57 42.57 0 0 0-19.3-2.65c-5.15.4-14.4 2.1-17.37 7l-1.52 3.05-14.47 48.77Z" fill="#E48929"/><path d="m172.77 313.64.89.08c4.66.32 27.5 1.53 35.77-6.83l1.05-2.65-37.7 9.4Z" fill="#C05929"/><path d="M221.73 273.63c1.37.4 2.65.8 3.94 1.28l.48.16c.26.1.5.24.73.4.24.16.48.24.72.4l.32.25c.4.24-.24-.17.08.08a6.17 6.17 0 0 1 2.33 5.54c-.4 4.82-4.82 7.88-9.32 8.6-.48.08.32 0-.16 0l-.57.08h-2.09c-.16 0-.88-.08-.64-.08a10.81 10.81 0 0 1-3.86-1.2 2.67 2.67 0 0 0-3.53.88 2.54 2.54 0 0 0 .19 2.88c.2.27.47.49.77.65a17.81 17.81 0 0 0 18.57-1.44c2.9-2.17 5.15-5.23 5.63-8.84a11.74 11.74 0 0 0-2.66-9.8c-2.4-2.82-6.19-3.94-9.64-4.99-3.14-.8-4.5 4.18-1.29 5.14Z" fill="#E48929"/><path d="M177.68 280.13a16.26 16.26 0 0 0 6.67 10.93c3.54 2.65 9.65 4.26 13.99 4.66-1.45 2.1-5.63 2.98-8.12 3.62-2.5.7-5.15.67-7.64-.08-3.7-1.2-6.43-4.42-7.8-8.04a22.9 22.9 0 0 1-.8-11.4" fill="#C05929"/><path d="M144.72 118.38c-5.47-27 19.77-53.04 44.53-59.3 49.6-12.46 55.8 61.38 13.19 87.9-9 5.55-21.7-5.38-31.92-8.2-10.2-2.8-19.3-9.96-23.63-19.6" fill="#32142A"/><path d="M181.94 67.19c-15.84 2.25-15.36-27.16-.24-30.14 6.03-1.2 13.1.89 17.12 5.55 2.5 2.9 7.15 21.37.64 22.18-5.87.72-11.74 1.52-17.52 2.4Z" fill="#32142A"/><path d="M141.42 143.53c-.4.72 7.16-2.98 7.4-2.25 1.84 4.9 5.94 8.2 10.45 10.76 4.9 2.82 13.66 10.45 19.3 10.45 12.45-.16 24.67-15.03 32.55-24.67 8.36-10.2 10.93-22.26 13.18-35.2.49-2.8.57-5.94-1.12-8.2a9.86 9.86 0 0 0-3.7-2.8c-13.5-6.83-30.39-2.9-42.77 5.78-11.1 7.88-19.21 18.97-26.85 30.22-2.25 3.37-3.78 7.87-8.44 15.9Z" fill="#FFC9A0"/><path d="M152.6 127.78c-6.84-.65-11.58-8.84-9.33-15.27s10.45-9.89 16.88-7.56c6.43 2.34 10.45 9.73 9.49 16.56M130.89 157.75l17.04-23.14c.33-.6.88-1.02 1.53-1.2a2.35 2.35 0 0 1 1.69.88c4.02 3.7 8.36 8.11 7.96 13.58-.17 2.65-1.53 5.06-2.82 7.39l-9.89 17.68-15.51-15.19Z" fill="#FFC9A0"/><path d="M126.14 149.71c-50.96 22.75-78.46 76.1-91.48 127.77-4.99 19.6-7.32 39.14-8.92 59.22-.25 2.98-2.01 49.1-3.54 49.1 42.69.08 66.08-5.86 108.69-5.78-9.17-78.51 4.18-142.4 20.74-207l-25.48-23.3Z" fill="#FAC7B7"/><path d="M226.72 93.22c-.3-.86-.67-1.7-1.13-2.49-4.82-9-16.4-11.57-25.8-9.8-11.66 2.25-21.87 9.8-30.88 18.16-3.53 3.3-9.88 8.52-10.69 11.09-.8 2.57 16.64 9.32 20.34 9.8 9.73 1.37 19.86.08 29.26-2.73 4.83-1.45 12.06-2.73 16.16-5.79.97-.8 5.07-11.73 2.74-18.24Z" fill="#32142A"/><path d="M150.34 329.8c3.54-8.52 12.54-13.67 21.55-15.92 9-2.25 18.4-2.4 27.41-4.66 9-2.25 18.09-7.23 21.7-15.67 1.46-3.37.9-8.75-2.8-9-1.4.05-2.75.53-3.86 1.37-4.59 2.81-8.77 6.27-13.51 8.76s-10.3 4.1-15.52 2.81c-5.22-1.29-9.8-5.94-9.64-11.33.25-2.31.7-4.6 1.36-6.83.4-1.45-4.98 1.53-6.43 3.13-1.44 1.61-2.97 3.22-3.62 5.3-3.94 12.7-16.48 20.34-28.05 26.85" fill="#FFC9A0"/><path d="M151.23 122.31c-2.41-2.17-4.99-6.1-3.14-9.4a8.28 8.28 0 0 1 8.68-3.78c1.13.25 1.61-1.52.49-1.76-4.02-.73-8.69.88-10.7 4.66-2.25 4.02.33 8.84 3.46 11.57.8.8 2.1-.48 1.2-1.29Z" fill="#32142A"/><path d="M154.04 118.7c-.24-.33-.48-.73-.72-1.05a4.7 4.7 0 0 1-.32-.64c-.08-.16-.16-.24-.16-.4a1.9 1.9 0 0 1-.17-.65c.09.17 0-.08 0-.08v-.64c0-.04 0-.09.02-.13a.3.3 0 0 1 .06-.11c0-.08 0-.08.09-.16.08-.08.08-.16.16-.24.08-.08.16-.24.08-.08l.16-.16.08-.08c.08-.08.16-.08.24-.16-.16.08 0 0 .08 0s.16-.08.24-.08h1.45l.24.08.56.16a.94.94 0 0 0 .64-1.77c-.08 0-.08 0-.16-.08a6.26 6.26 0 0 0-2.97-.24 3.2 3.2 0 0 0-2.33 1.6 3.78 3.78 0 0 0-.24 2.98c.3 1.04.81 2 1.52 2.81a1 1 0 0 0 1.29.24 1.14 1.14 0 0 0 .16-1.12Z" fill="#32142A"/><path d="M204.29 299.5a142 142 0 0 0 7.23-4.82c3.54-2.5 7.32-4.82 9.65-8.6.88-1.45-1.37-2.73-2.25-1.28-2.17 3.45-5.87 5.62-9.09 7.87-2.25 1.6-4.58 3.13-6.91 4.58-1.37.88-.08 3.13 1.37 2.25ZM209.83 302.15a54.94 54.94 0 0 0 7.4-5.46c2.17-2.01 4.18-4.34 6.19-6.6 1.13-1.2-.72-3.04-1.85-1.84-2 2.17-3.94 4.42-6.1 6.43a46.7 46.7 0 0 1-6.92 5.14c-1.37.97-.08 3.22 1.28 2.33Z" fill="#EFB086"/><path d="M217.8 264.55c-1.21.07-2.34 0-3.55 0-2.57 0-5.14-.09-7.71-.33a68.56 68.56 0 0 1-15.6-2.97c-1.45-.48-3.22-1.53-2.73-2.9.32-.8 1.28-1.2 2.17-1.52 9.49-3.05 14.87-3.13 28.38.97 2 .64 6.83 2.97 4.74 4.98-.48.44-1.06.77-1.69.96-1.3.46-2.65.73-4.02.8ZM194.24 124c4.42-1.77 9.8-1.6 14.47-.8a2.2 2.2 0 0 0 2.81-1.45c.56-1.6-1.12-2.65-2.5-3.13-4.01-1.37-8.43-.97-12.45.24-2.04.65-4 1.52-5.87 2.57-1.2.72-4.34 2.17-4.1 3.94.32 2.4 6.03-.73 7.07-1.2l.57-.17Z" fill="#32142A"/><path d="M177.52 111.3c8.84.49 13.9.73 22.42-2A41.92 41.92 0 0 0 217 99.17c2.57-2.65 3.38-8.76 4.18-12.46.48-2.25-1.77 1.61-2.9 4.26-2.33 5.63-5.62 7.88-10.6 10.85a43.49 43.49 0 0 1-19.06 6.27c-5.15.32-9.57.88-18.97.8-2.33 0 1.36 2.01 3.7 2.17l4.18.24ZM162 91.62c1.77-3.94 4.74-7 8.12-9.65a73.87 73.87 0 0 1 17.44-10.44c3.06-1.29 6.44-2.82 9.73-3.38 3.14-.56 6.6 1.37 9.33 2.65a19.1 19.1 0 0 1 4.02 2.1c.65.49 1.15 1.16 1.44 1.92.33 1.53-1.12 1.6-2.33 1.69-5.95.24-12.22.4-18.09 1.85-5.86 1.44-10.69 4.82-15.43 8.6-.8.64-3.14 3.45-2.5 4.1.65.64 5.55-4.27 6.36-4.9a29 29 0 0 1 10.61-5.71c5.3-1.77 11.9 0 17.45-.24 2.89-.17 10.28.64 9.48-.97-.8-1.6-3.86-8.84-6.83-10.36a48.92 48.92 0 0 0-9.49-3.86 10.87 10.87 0 0 0-4.26-.4 52.14 52.14 0 0 0-22.43 11.25c-6.27 5.46-12.46 11-15.84 18.72-1.04 2.09 2.25-.8 3.22-2.97Z" fill="#7F4341"/><path d="M184.35 99.33c8.76 2.41 17.44-.08 23-7.47.55-.8 2.72-5.07 2.32-5.07-.4 0-1.6 2.17-2.17 2.98-4.58 6.1-15.75 9.16-22.99 8.36-6.43-.65-2.5.64-.16 1.2Z" fill="#7F4341"/><path d="m159.43 299.82 2-2.25 8.2 16.96-3.61 1.28-6.6-15.99ZM158.22 151.56l-9.4-10.2 5.38 17.76 4.02-7.56Z" fill="#EFB086"/><path d="M200.27 128.18c-2.17.16-4.9 1.85-4.9 3.86 0 2.65 3.53 1.52 4.74.64.88-.64 2.49-1.6 2.57-2.81.08-1.2-1.05-1.77-2.41-1.7ZM210.72 134.93c-1.93.96-3.86 3.53-3.06 5.46 1.05 2.5 3.86.08 4.66-1.28.57-.89 1.7-2.41 1.3-3.62-.41-1.2-1.7-1.2-2.9-.56Z" fill="#32142A"/><path d="M22.2 358.96c.88-9.72-1.13-21.61-1.2-31.33-.09-7.88-.57-13.83 1.92-21.22a2.23 2.23 0 0 1 2.73-1.37 2.29 2.29 0 0 1 1.37 1.37c2.33 6.83 6.27 13.82 7.8 20.97a.93.93 0 0 0 .74.8.97.97 0 0 0 1.1-.64c1.3-4.42 1.46-9.16 2.02-13.74.32-3.3 1.2-6.54 2.57-9.56a3.84 3.84 0 0 1 6.21-.84c.32.36.56.78.7 1.24l3.62 9.8a45.33 45.33 0 0 0 2.33 5.39 24.8 24.8 0 0 0 6.03 6.59c11.18 9.24 25.89 13.42 40.36 14.06 14.47.64 28.94-2.17 42.93-5.78l-12.62 24.75 1.04 62.92H22.04l.16-63.4Z" fill="#E48929"/><path d="M58.86 358.8c-4.18-9.32-9.57-25.71-11.9-34.39-5.07-18.72-9.09-37.93-7.64-57.3l3.78-6.99c13.99 30.94 29.5 63.65 58.2 81.8 1.37.9 2.82 1.78 3.62 3.14.72 1.2 23.56-.8 23.64.64.4 4.5 1.44 8.6 2.4 13.67l-72.1-.57Z" fill="#E48929"/><path d="M89.16 239c2.74-21.46 14.4-42.2 15.2-63.81.08-2.57 0-5.23-1.53-7.31-3.94-5.55-12.7-1.93-17.85 2.4-28.21 23.55-46.38 59.55-45.82 96.27.16 10.2 1.69 20.33 3.7 30.38 3.3 16.63 8.2 33.83 20.26 45.8 15.11 14.95 38.75 18.32 59.49 13.98 20.74-4.33 39.47-15.42 57.72-26.27-8.68-21.46-17.37-42.86-26.05-64.2-10.6 6.5-21.7 13.25-34.08 14.46-15.2 1.44-27.9-7.72-30.71-22.82a59.54 59.54 0 0 1-.33-18.89Z" fill="#FAC7B7"/><path d="M92.3 168.52c3.14-1.13 6.6-1.37 9.4.64 2.5 1.69 3.7 4.82 3.94 7.72a17.4 17.4 0 0 1-.64 6.1 1.3 1.3 0 1 0 2.5.73c1.2-3.97.96-8.24-.65-12.06a10.63 10.63 0 0 0-8.12-6.35 14.87 14.87 0 0 0-7.23.8c-1.45.49-.8 2.98.8 2.42Z" fill="#F9A793"/><path d="M45.67 309.55c-.88-3.54 31.28 2.57 33.93 3.2 5.63 1.3 7.15 5.15 8.76 10.3 3.54 11.65 7.24 23.3 10.21 35.11.08-.08-40.36 1.37-52.9-48.62Z" fill="#F9B7A5"/><path d="M153.8 265.03a107.9 107.9 0 0 1-15.28 7.55 109.3 109.3 0 0 1-14.95 5.14 26.47 26.47 0 0 1-14.79-.08c-5.47-1.6-10.7-4.82-13.67-9.72A35.18 35.18 0 0 1 90.37 250a1.28 1.28 0 1 0-2.57 0 38.77 38.77 0 0 0 3.86 16.95c2.73 5.63 7.31 9.49 13.02 11.98a28.8 28.8 0 0 0 17.04 2c5.11-1.19 10.11-2.8 14.96-4.81a109.87 109.87 0 0 0 18.08-8.68l-.96-2.41Z" fill="#F9A793"/><path d="M205.09 133.32c-.32.24-.64.48-.88.64-3.3 2.82-6.11 6.43-9.09 9.65a2.77 2.77 0 0 0-.96 1.68c0 .8.72 1.45 1.44 1.93 2.58 1.85 5.55 3.78 9 1.29a8.04 8.04 0 0 0 2.82-4.1c1.1-3.46 1.7-7.06 1.77-10.69.08-2.8-2.41-1.52-4.1-.4Z" fill="#E48929"/><path d="M200.35 393.84s19.21-151.55 160.54-163.2l8.04-12.62 47.43-4.02 6.11 16.63s61.58 35.84 53.54 107.44l-67.69 27.97v30.61l-207.97-2.81Z" fill="#39B55D"/><path d="M416.44 214s-4.58-40.66-5.22-44.44c-1.37-7.31-2.58-20.25-5.63-27-4.66-10.28-17.37-15.5-28.3-12.7-12.46 3.14-21.14 15.84-25.97 27-4.5 10.37-14.55 41.71-4.5 51.27 7.48 7.16 22.67 2.74 30.47-1.68l-1.85 11.17 41-3.62Z" fill="#B26D55"/><path d="M406.88 170.53c.24-3.14 3.21-5.23 6.1-6.43a13.4 13.4 0 0 1 6.6-1.2 7.23 7.23 0 0 1 5.54 3.37c.63 1.18.9 2.52.8 3.85-.15 4.02-2.65 7.56-5.14 10.77-3.53 4.74-7.4 9.73-12.94 11.82" fill="#B26D55"/><path d="M408.32 366.04c-1.2-20.82-2.41-41.71-.24-62.52 2.17-20.81 3.06-55.45 14.4-72.89 15.34 9.33 37.3 33.03 44.13 49.66 6.67 16.16 12.06 27.57 9.4 57.78l-67.69 27.97Z" fill="#39B55D"/><path d="m360.89 230.63-7.64 11.82-4.18-10.53c-.08.08 8.2-1.29 11.82-1.29Z" fill="#194429"/><path d="M347.87 178.8a53.67 53.67 0 0 0-2.42 12.3c-.09 1.05.1 2.1.57 3.05.09.2.23.36.4.48.2.07.43.1.64.08 2.98-.16 6.03-.32 8.76-1.52.49-.17.9-.48 1.21-.89a2.3 2.3 0 0 0 .24-1.76c-.8-5.07-4.42-8.52-6.91-13.42a1.13 1.13 0 0 0-1.45-.4.82.82 0 0 0-.4.48c-.24.48-.4 1.04-.64 1.6Z" fill="#C05929"/><path d="M476.01 338.07a237.45 237.45 0 0 1-9.64 61.4c-3.62 12.53-7.24 35.83-17.93 44.51-10.05 8.04-25.89 1.69-36.26-2.4-13.67-5.4-27.5-9.41-41.16-14.47-17.77-6.6-44.54-10.45-64.15-8.76-9.57.88-13.5-6.1-23-5.15-1.68.17-3.61.33-4.98-.64a7.5 7.5 0 0 1-2.33-3.13l-4.66-9.24a7.94 7.94 0 0 1-1.21-4.26c.16-2.33 2.17-4.1 4.18-5.38 10.3-6.92 22.6-10.13 34.9-11.82 34.56-4.74 68.97 3.06 99.36 20.17.32-11.09.64-17.92 1.28-33.75l65.6-27.08Z" fill="#B26D55"/><path d="M334.84 409.75c4.83 1.69 17.53 1.37 20.83 4.5 3.45 3.21-26.05 4.42-29.67 4.82a1598.9 1598.9 0 0 1-85.46 5.47c-27.17 1.04-56.35 4.41-83.28.32-11.02-1.69-14.8-6.43-15.36-17.44-1.28-26.92-2.49-53.92-3.78-80.84a10.8 10.8 0 0 1 8.93-11.09 718.12 718.12 0 0 1 142.61-9.16 7.18 7.18 0 0 1 6.92 6.43c1.28 13.5 6.1 44.84 7.07 48.45 2.73 10.21 5.63 20.74 11.1 29.82 4.82 8.2 8.12 14.62 20.1 18.72Z" fill="#194429"/><path d="M409.6 170.85a26.03 26.03 0 0 0 4.67-1.93c1.37-.56 3.38-1.45 4.82-.56.89.48.8 1.52.73 2.4a20 20 0 0 1-3.22 8.44 13.12 13.12 0 0 1-5.38 4.42c-1.05.49-.17 2.01.88 1.53 4.42-2 7.32-6.19 8.68-10.77.32-1.13.56-2.28.73-3.45a4.7 4.7 0 0 0-.57-3.3c-1.28-1.76-3.7-1.68-5.54-1.12-2.17.64-4.18 1.93-6.35 2.49a.87.87 0 0 0-.57 1.13 1.05 1.05 0 0 0 1.13.72Z" fill="#32142A"/><path d="M408.64 175.35c.58-.18 1.14-.4 1.7-.64.3-.09.59-.2.88-.33.16-.08.32-.08.48-.16l.16-.08s.24-.08.08 0h.56c.08 0 .24.08.08 0-.16-.08.08.08.08.08l.16.16.08.16c0 .09.08.17.08.25-.16-.25 0 .08 0 .08v.08c-.08-.16 0-.16 0 0v.32c0 .08-.08.16 0-.08v.08a.6.6 0 0 1-.08.32l-.08.16c-.09.2-.2.38-.32.56l-.16.32-.08.08c-.16.16.16-.16 0 .08a12.54 12.54 0 0 1-1.53 1.53l-.08.08-.08.08-.32.24a9.5 9.5 0 0 1-1.2.73l-.33.16c-.08 0-.16.08 0 0l-.16.08c-.16.08-.32.08-.48.16a.92.92 0 0 0 .48 1.77c.9-.24 1.75-.65 2.5-1.2.94-.65 1.8-1.4 2.57-2.26a5 5 0 0 0 1.28-2.97 2.75 2.75 0 0 0-2.25-2.65c-1.53-.16-2.97.8-4.42 1.12a.92.92 0 0 0-.64 1.13c0 .48.48.72 1.04.56Z" fill="#32142A"/><path d="M359.28 252.41c4.59-9 9.33-17.84 14.31-26.68.8-1.44-1.44-2.73-2.25-1.28a936.38 936.38 0 0 0-14.3 26.68c-.73 1.52 1.52 2.8 2.24 1.28ZM394.17 254.18l3.14-32.79c.16-1.68-2.41-1.6-2.57 0l-3.14 32.87c-.16 1.6 2.41 1.6 2.57-.08ZM406.07 244.62V223.4a1.29 1.29 0 0 0-2.57 0v21.22a1.27 1.27 0 0 0 2.19.9c.23-.24.37-.57.38-.9ZM383.88 248.47c.66-6.05 1.68-12.06 3.06-18 .4-1.6-2.1-2.33-2.5-.72a147.92 147.92 0 0 0-3.13 18.64 1.27 1.27 0 0 0 1.29 1.29 1.26 1.26 0 0 0 1.28-1.2ZM370.94 253.46l11.17-29.74c.57-1.52-1.93-2.25-2.49-.72l-11.17 29.73c-.57 1.53 1.93 2.25 2.49.73ZM410.09 219.87c2.17 6.42 4.66 12.77 6.67 19.28a1.3 1.3 0 0 0 2.5-.72c-1.93-6.51-4.43-12.86-6.68-19.29-.56-1.52-3.05-.8-2.49.73ZM410.41 365.15a941.45 941.45 0 0 1 2.17-72.32c.08-1.69-2.49-1.69-2.57 0a940.9 940.9 0 0 0-2.17 56.41c-.08 5.3-.08 11.73-.08 17.04l2.65-1.13Z" fill="#194429"/><path d="m395.06 391.75 15.51-63 .08 70.95-15.6-7.95Z" fill="#194429"/><path d="M410.57 398.74a29.98 29.98 0 0 1 6.6 4.74l-6.52-15.83-.08 11.1Z" fill="#A05744"/><path d="M368.05 170.04c-.8 1.77-.65 4.1-.4 6.03.48 3.3 3.29 2.33 4.17-.24.73-2.09 1.05-4.9-.24-6.75-1.28-1.85-2.81-.72-3.53.96ZM340.55 173.66a11.8 11.8 0 0 0-.4 6.03c.48 3.3 3.3 2.33 4.18-.24.72-2.1 1.04-4.9-.24-6.75-1.29-1.85-2.82-.65-3.54.96ZM351.08 174.38c.56-.4 1.13-.72 1.61-1.12a5.05 5.05 0 0 1 1.77-.8c1.77-.33 3.7-.57 5.22.56a.88.88 0 0 0 .89-1.53c-1.85-1.37-4.18-1.12-6.27-.8-1.54.4-2.97 1.13-4.18 2.17a.9.9 0 0 0-.32 1.2 1.03 1.03 0 0 0 1.28.32Z" fill="#32142A"/><path d="M351.24 156.7c-.4 1.21 28.62-10.52 41.8-13.1l5.07 36.09a48.93 48.93 0 0 1 11.98-13.42s2.9-38.25-23.55-38.01c0 0-25.17-.96-35.3 28.45Z" fill="#FAC7B7"/><path d="M366.92 162.41c.56 0 1.2-.08 1.77-.08 3.1-.27 6.23.34 9 1.77 2.33 1.12 4.5 2.57 6.84 3.7.8.4 1.76.72 2.33-.17a2.8 2.8 0 0 0-.08-2.4 21.45 21.45 0 0 0-7.64-8.85 15.85 15.85 0 0 0-7.64-1.92c-2.25 0-7.31.48-9.24 1.84-2.41 1.7.8 5.15 3.45 5.95.4.1.8.15 1.21.16ZM349 160.32c-2.42-.8-10.3-.24-12.47 1.45-2 1.44-.64 1.85 1.37 3.3.8.56 4.26.96 5.22 1.04 8.6 1.12 9.73.8 10.45-1.05a.95.95 0 0 0-.08-.8c-.56-1.69-2.09-2.81-3.61-3.62-.4-.16-.65-.24-.89-.32Z" fill="#FAC7B7"/><path d="M338.86 163.05c-6.1.24-10.77 5.63-11.57 11.5-.4 3.2-.08 6.66 1.84 9.4a11.8 11.8 0 0 0 6.92 4.82c6.03 1.52 12.3-2.1 14.55-7.8a13.82 13.82 0 0 0-.48-11 12.06 12.06 0 0 0-11.26-6.92.83.83 0 0 0-.61.3.85.85 0 0 0-.2.67.94.94 0 0 0 .81.8 10.2 10.2 0 0 1 8.93 4.82 11.58 11.58 0 0 1 1.93 6.43 11.14 11.14 0 0 1-9.9 11.1 10 10 0 0 1-10.85-9.09v-.24c-.28-3.24.63-6.47 2.58-9.08a10.22 10.22 0 0 1 7.31-4.02.85.85 0 0 0 .6-.25.85.85 0 0 0 .18-.92.86.86 0 0 0-.45-.45.83.83 0 0 0-.33-.07ZM371.1 157.59c-6.11.24-10.77 5.62-11.58 11.49-.4 3.21-.08 6.67 1.85 9.4 1.63 2.4 4.1 4.12 6.92 4.82 6.03 1.53 12.3-2.09 14.55-7.8a13.66 13.66 0 0 0-.48-10.92 12.23 12.23 0 0 0-11.26-7 .98.98 0 0 0-.88 1.05.94.94 0 0 0 .8.8 10.2 10.2 0 0 1 8.92 4.83 12.27 12.27 0 0 1 1.93 6.43 11.14 11.14 0 0 1-9.89 11.09 9.99 9.99 0 0 1-10.85-9.08v-.24c-.29-3.25.63-6.48 2.57-9.09a10.22 10.22 0 0 1 7.32-4.01.88.88 0 0 0 .84-.51.88.88 0 0 0-.15-.97.87.87 0 0 0-.61-.3Z" fill="#32142A"/><path d="M384.2 173.1c9.49-2.5 18.82-5.22 28.14-8.28a.92.92 0 1 0-.48-1.77 472.35 472.35 0 0 1-28.14 8.28.96.96 0 0 0-.56 1.2.98.98 0 0 0 1.04.57Z" fill="#32142A"/><path d="M354.06 153.57c-1.13-4.58 9.08-6.9 9.4-2.97.08 1.2-1.04 1.77-1.93.8-.96-1.12-.24-2.9.33-4.02 1-1.74 2.47-3.17 4.26-4.1a9.03 9.03 0 0 1 5.94-.88 2.81 2.81 0 0 1 2.26 2.41c.16.48.72 3.3-.4 2.17-.65-.64-.33-2.09-.09-2.81a6.12 6.12 0 0 1 7-3.86v-1.69a7.35 7.35 0 0 1-6.35-1.92c-1.77-1.93-.89-4.1 1.2-5.15a6.42 6.42 0 0 1 9.25 4.74c.24 1.13 2 .65 1.77-.48-1.13-5.86-8.37-8.92-13.19-4.98a4.63 4.63 0 0 0-.96 6.5c.08.17.24.25.32.41 2 2.41 5.3 3.13 8.36 2.73.88-.16.8-1.52 0-1.76-4.66-1.21-10.7 3.13-9.4 8.27a2.87 2.87 0 0 0 2.08 2.17 2.06 2.06 0 0 0 2.5-1.53 7.94 7.94 0 0 0-.57-3.85 4.53 4.53 0 0 0-2.57-2.73c-5.22-2.01-11.58 1.84-13.59 6.67-.96 2.33-.56 6.02 2.66 6.18 2.4.08 3.3-2.57 2.49-4.5-1.29-2.97-5.23-2.65-7.8-1.84-2.9.88-5.63 3.29-4.82 6.66a.98.98 0 0 0 1.22.55.98.98 0 0 0 .63-1.19ZM390.07 142.32c-.24-2.25-.72-5.46 1.61-6.9a2.7 2.7 0 0 1 3.14.47c.89.89 1.45 2.05 1.6 3.3l.25 1.85c0 .48.24 1.28-.17 1.68-.4.4-.08-.48 0-.64.27-.5.66-.9 1.13-1.2 1.85-1.3 4.74-1.85 6.03.48.5 1.06.8 2.2.88 3.37.08.97.48 3.46-.96 3.62-1.13.08-1.2 1.93 0 1.77 1.93-.25 2.9-1.93 2.97-3.7a13.4 13.4 0 0 0-.88-5.3 4.91 4.91 0 0 0-3.7-3.14c-1.89-.22-3.8.3-5.3 1.45-1.21.88-2.74 2.81-1.77 4.42.96 1.6 3.13.56 3.53-.89.23-.92.26-1.88.08-2.8-.05-1-.26-1.98-.64-2.9a5.79 5.79 0 0 0-3.7-3.78 4.44 4.44 0 0 0-4.98 2.1c-1.29 2-1.13 4.5-.8 6.74 0 1.13 1.84 1.13 1.68 0ZM396.58 154.7c-.08-.4.49-.73.8-.73a1.53 1.53 0 0 1 1.3.49c.55.62.96 1.36 1.2 2.16.32.89.64 2.17.08 2.98a1.26 1.26 0 0 1-1.53.48c-1.04-.72.97-1.69 1.53-1.77.97-.16 2.01-.4 2.57.56a14.3 14.3 0 0 1 1.45 5.8c.14 1.91-.05 3.84-.56 5.7-.24.94-.56 1.85-.97 2.73-.24.56-.88 2.17-1.36 1.04a5.04 5.04 0 0 1-.49-3.05 4.1 4.1 0 0 1 1.77-2.09c1.7-1.2 3.62-2.17 5.39-3.3.96-.64.08-2.16-.89-1.52l-4.01 2.4c-1.1.56-2.11 1.3-2.98 2.18-1.6 1.85-1.45 4.66-.16 6.75a1.76 1.76 0 0 0 2.33.8c1.05-.48 1.6-1.6 2.1-2.57a19.5 19.5 0 0 0 1.6-7.71c.06-2.66-.46-5.29-1.53-7.72a3 3 0 0 0-2.41-1.93 6.33 6.33 0 0 0-3.62.65c-1.69.88-2.65 3.53-.64 4.66 1.69.96 3.86-.24 4.34-2.01.64-2.25-.56-5.79-2.57-7-2.01-1.2-4.83.09-4.42 2.58 0 1.04 1.77.56 1.68-.56ZM409.45 156.79c-.3-.39-.57-.79-.8-1.21a4.2 4.2 0 0 1-.49-1.29c-.13-.44-.19-.9-.16-1.36v-1.2c0 .07 0-.25.08-.25a.99.99 0 0 0-.64-1.12.91.91 0 0 0-1.13.64 8.65 8.65 0 0 0 1.77 7.07.98.98 0 0 0 1.29 0 1.08 1.08 0 0 0 .08-1.28Z" fill="#fff"/><path d="M231.14 360.9c.4 11.24-6.84 23.22-23.4 17.83-17.52-5.7 1.13-34.23 17.05-26.6 4.42 2.1 6.27 5.3 6.35 8.76ZM21 394.32c29.34.16 58.76-.56 88.1-2.25 8.2-.48 16.48-.96 24.68-1.6a2.57 2.57 0 1 0 0-5.15 1465.17 1465.17 0 0 1-88.1 3.78c-8.29.08-16.49.08-24.77.08-3.3 0-3.3 5.14.08 5.14ZM18.18 376.72c30.79.57 61.5.8 92.29.89h25.8c3.3 0 3.38-5.23 0-5.15-30.79.09-61.55-.08-92.29-.48-8.6-.08-17.2-.24-25.8-.4-3.38-.08-3.38 5.06 0 5.14ZM10.7 360.97a1409.91 1409.91 0 0 0 129.27-1.93c3.3-.24 3.3-5.38 0-5.14-33.6 2.1-67.26 2.95-100.97 2.57-9.49-.08-18.9-.32-28.38-.64-3.3-.08-3.3 5.06.08 5.14ZM7.65 343.21c20.9.54 41.83.38 62.78-.48 3.3-.16 3.38-5.3 0-5.14-20.9.8-41.83.96-62.78.48-3.38-.08-3.38 5.06 0 5.14ZM12.15 324.65h54.59c3.3 0 3.37-5.22 0-5.22h-54.6c-3.29.08-3.29 5.22 0 5.22ZM18.18 422.29c30.79.56 61.5.8 92.29.88h25.8c3.3 0 3.38-5.22 0-5.14-30.79.08-61.55-.08-92.29-.48-8.6-.09-17.2-.25-25.8-.4-3.38-.09-3.38 5.06 0 5.14ZM10.7 407.58a1409.91 1409.91 0 0 0 129.27-1.93c3.3-.24 3.3-5.38 0-5.14-33.6 2.09-67.26 2.94-100.97 2.57-9.49-.08-18.9-.32-28.38-.64-3.3-.16-3.3 4.98.08 5.14Z" fill="#FAC7B7"/><path d="M352.45 199.54c-3.86 3.93 2.97 9.72 6.91 6.18 4.9-4.26-2.65-10.52-6.91-6.18ZM183.06 143.53a10.18 10.18 0 0 0 3.94 10.84.89.89 0 0 0 1.02-.02.89.89 0 0 0 .32-.97.9.9 0 0 0-.45-.53 8.37 8.37 0 0 1-3.14-8.76.9.9 0 0 0-.72-1.05.75.75 0 0 0-.96.48Z" fill="#32142A"/></svg>