<svg width="75" height="36" fill="none" xmlns="http://www.w3.org/2000/svg"><path d="M5.5 27.93a41.9 41.9 0 0 1 20.47-9.24c7.93-1.22 16.93-1.16 24.06.56 4.88 1.18 5.58 1.4 6.8 2.15-2.1 2.59-9.02 6.97-8.62 12.28a1.48 1.48 0 0 0 2.37 1.07c5.89-4.44 18.14-11.7 23.32-16.26.54-.47 1.14-1.06 1.1-1.78-.03-.7-.64-1.22-1.2-1.65A205.77 205.77 0 0 0 51.64.31c-1.05-.61-2.46-.29-3.03.79-.5.94.03 1.66.54 2.3l7.22 9.16c-12.37-5.21-26.81-4.99-39.17.14A31.41 31.41 0 0 0 1.1 27.44c-1.81 3.6-2.02 5.85 4.4.5Z" fill="#FBC8B8"/></svg>