<svg width="30" height="24" fill="none" xmlns="http://www.w3.org/2000/svg"><path d="M30 3.25c-1.12.46-2.3.75-3.54.9a5.75 5.75 0 0 0 2.7-3.13c-1.19.65-2.5 1.11-3.9 1.37a6.42 6.42 0 0 0-4.5-1.8c-3.4 0-6.14 2.55-6.14 5.68 0 .45.04.88.15 1.29A17.93 17.93 0 0 1 2.09 1.63a5.37 5.37 0 0 0-.84 2.86c0 1.97 1.1 3.7 2.73 4.72a6.47 6.47 0 0 1-2.78-.7v.06c0 2.76 2.13 5.04 4.93 5.57a6.63 6.63 0 0 1-2.78.1 6.17 6.17 0 0 0 5.75 3.94A13.04 13.04 0 0 1 0 20.52a18.4 18.4 0 0 0 9.44 2.55c11.31 0 17.5-8.65 17.5-16.14 0-.25 0-.5-.02-.73 1.22-.8 2.24-1.8 3.08-2.95Z" fill="#198C36"/></svg>