<svg width="79" height="159" fill="none" xmlns="http://www.w3.org/2000/svg"><path d="M5.87 29.9C2.49 33.14.34 39.05.17 45.56c-.53 22.02-1.03 68.56 17.39 92.19l15.78 17.6c3.6 4.01 8.26 4.21 12 .55 4.88-4.8 11.42-12.01 15.2-19.5.17-.35.35-.67.53-1 2.4-4.07 20.44-36.67 17.64-90.41-.32-6.16-2.41-11.68-5.6-14.77L45.14 3.17C41.67-.2 37.4-.23 33.9 3.12L5.87 29.9Z" fill="#F7BC28"/><path d="M14.55 42.23c-2.5 2.39-4.1 6.77-4.22 11.6-.4 16.33-.77 50.84 12.89 68.37l11.7 13.06c2.68 2.98 6.13 3.13 8.9.4 3.62-3.54 8.47-8.9 11.27-14.45.13-.25.26-.5.4-.73 1.78-3.02 15.1-27.43 13.08-67.06-.13-2.57-3.94-10.25-5.24-12L43.7 22.4c-2.58-2.5-5.76-2.5-8.34-.03l-20.8 19.87Z" fill="#E48929"/><path d="M39.5 20.5v59.07h28.24s2.01-16.48.84-26.15c0 0-.33-6.64-5.24-12L43.7 22.4s-2-2-4.2-1.89ZM39.5 79.57l-.01 58.02s-2.27.22-5.11-2.96l-9.42-10.5S17 116.18 14.4 102.98c0 0-3.27-12.12-3.72-24.49l28.83 1.09Z" fill="#FBFAF7"/></svg>