<svg width="738" height="544" fill="none" xmlns="http://www.w3.org/2000/svg"><g clip-path="url(#a)" filter="url(#b)"><path d="M462.3 554.94a402.76 402.76 0 0 0 117.9-78.45c19.42-18.61 36.92-39.13 53.92-59.96 12.02-14.74 23.92-29.8 32.42-46.81 7.85-15.73 12.64-32.76 16.93-49.8a974.62 974.62 0 0 0 17.77-87.32c5.47-34.93 8.97-71.1-.12-105.26-3.1-11.63-8.5-23.88-19.33-29.2-15.52-7.63-33.86 2.58-46.56 14.31-18.14 16.73-32.42 37.13-46.21 57.58-46.83 69.44-90.6 143.96-103.18 226.74" fill="#194429"/><path d="M576.1 408.34a635.7 635.7 0 0 0 33-54.52 645.05 645.05 0 0 0 27.5-57.67 646.81 646.81 0 0 0 37.36-121.7 644.44 644.44 0 0 0 10.25-71.12c.3-3.35-4.95-3.33-5.23 0a629.96 629.96 0 0 1-8.68 62.7 647.43 647.43 0 0 1-35.7 121.37 634.56 634.56 0 0 1-26.5 57.22 644.8 644.8 0 0 1-36.5 61.08c-1.9 2.8 2.64 5.42 4.49 2.64Z" fill="#153A23"/><path d="M673.52 175.47c6.17-10.16 7.26-12.58 15.08-21.5.93-1.05 11.36-12.36 10.34-13.4-.96-.95-9.26 5.75-10.19 6.82-8.1 9.22-13.33 14.91-19.73 25.43-1.75 2.89 2.77 5.52 4.52 2.65h-.02ZM657.91 238.18c7.24-13.93 10.18-19.16 19.33-31.81.83-1.15 12.29-13.99 11.15-14.65-1.32-.77-7.16 4.38-8.2 5.34-17.81 16.53-19.56 24.57-26.8 38.48-1.55 2.98 2.96 5.63 4.52 2.64ZM642.53 281.48a563.9 563.9 0 0 1 31.08-46.9c3.15-4.25 3.06-4.3 6.3-8.44.87-1.11 6.45-9.48 5.37-10.56-.9-.9-9.8 7.87-10.68 8.98-11.76 15.02-17.94 24.31-28.14 40.43-2.89 4.56-5.71 9.18-8.47 13.83-1.72 2.9 2.8 5.54 4.52 2.64l.02.02ZM625.8 318.82c13.3-10.12 30.36-25.9 41.21-38.63 17.23-20.2 1.58-9.89-3.7-3.7-10.56 12.35-23.28 22.73-36.22 32.57-1.12.86-1.72 2.25-.94 3.6.64 1.1-1.48 3.91-.35 3.05v3.1Z" fill="#153A23"/><path d="M394.37 311.81c2.57-23.8-.9-47.88-.3-71.83.62-23.96 6.05-49.3 23-66.28 11.88-11.9 28.2-18.41 44.62-22.06 10.34-2.3 21.46-3.55 31.28.42 15.53 6.29 23.3 23.4 28.77 39.22a511.58 511.58 0 0 1 27.88 147.28M201.22 530.5c-53.76 7.63-111.79-18.3-145.02-64.78-1.54-2.14-3.09-4.54-3-7.18.22-7.2 10.76-7.7 14.53-13.57 5.44-8.47-6.33-18.24-15.98-21.02-13.24-3.82-27.9-6.47-37.31-17.1-12.1-13.59-10.66-34.68-5.75-51.99 4.91-17.3 12.59-34.59 10.34-52.74-1.77-14.16-7.42-33.25 4.84-38.88 7.44-3.43 16.12 1.94 22.33 7.84 20.1 19.1 33.3 46.8 57.37 59.69 17.09 9.14 37.11 9.3 54.68 17.26 19.64 8.91 34.56 26.86 45.77 46.03 9.7 16.62 17.33 35.09 18.09 54.26.76 19.16-6.27 39.08-21.1 49.76" fill="#194429"/><path d="M450.92 387.47c15.17-8.95 27.76-21.56 37.89-35.87 10.2-14.38 17.88-30.47 23.9-47 7.16-19.77 12-40.27 16.89-60.68 4.67-19.5 9.14-39.3 16.43-58.01 5.84-15.05 14.31-30.28 27.93-39.6a54.76 54.76 0 0 1 5.21-3.14l-3.01-.39c4 3.7 1.87 9.88-.23 14.18-1.52 3.14-3.47 6.03-5.29 8.98l-6.5 10.54-25.46 41.33-14.3 23.18a2.49 2.49 0 0 0 .65 3.2c.9.68 2.5.8 3.26-.18a74.52 74.52 0 0 1 48.86-27.99l-2.81-3.65a186 186 0 0 1-41.74 49.5c-4.67 3.88-9.53 7.54-14.56 10.94l3.65 1.49a85.43 85.43 0 0 0-31.21-54.4c-1.73-1.35-4.05-.5-4.25 1.76a95.04 95.04 0 0 0 8.69 47.9c5.96 12.72 16.63 26.65 32.44 24.14 7.42-1.18 13.73-5.77 21.03-7.25 4.66-.95 10.88-.26 13.97 3.51a7.01 7.01 0 0 1 1.18 5.76 7.3 7.3 0 0 1-1.29 2.55c-.72.87-1.57 1.63-2.5 2.27a25.26 25.26 0 0 1-7.48 3.32c-2.65.75-5.39 1.4-8.09 1.4l-.56-.01c-.45 0 .35.1-.22-.05a22.3 22.3 0 0 1-1.43-.42c-.47-.16 0 .03-.37-.14-.22-.1-.45-.2-.65-.31-.58-.3-1.15-.6-1.7-.93a72.81 72.81 0 0 1-6.6-4.63c-4.04-3.06-8.23-6.79-13.19-8.24a9.52 9.52 0 0 0-3.18-.41c-3.18.18-3.2 5.16 0 4.97h.65c.2 0 .8.12.2 0a11.19 11.19 0 0 1 4.12 1.67 66.27 66.27 0 0 1 6.81 4.73c4.1 3.1 8.44 7.02 13.52 8.4 2.6.7 5.35.17 7.95-.29a39.78 39.78 0 0 0 8.9-2.7c5.21-2.24 10.12-6.43 10.31-12.5.2-6.4-4.73-10.94-10.54-12.52a23.46 23.46 0 0 0-8.96-.58c-3.7.45-7.12 1.8-10.53 3.26-6.74 2.84-13.78 6.11-21.13 3.43-6.3-2.28-11-7.96-14.38-13.47-8.5-13.8-12.56-30.55-12.3-46.69.03-2.06.14-4.12.31-6.17l-4.25 1.76a80.48 80.48 0 0 1 29.93 52.18c.22 1.56 2.45 2.3 3.66 1.49a191.44 191.44 0 0 0 58.09-62.22c1.2-2.08-.78-3.94-2.82-3.66a79.5 79.5 0 0 0-41.98 19.57 75.78 75.78 0 0 0-9.07 9.69l3.92 3.01 26.52-42.99 13.25-21.5 6.74-10.96c1.87-3.02 3.85-6 5.36-9.23 2.86-6.15 4.79-14.32-.88-19.54a2.57 2.57 0 0 0-3.02-.4c-15.07 8.07-25.2 22.52-32.1 37.78-8 17.7-12.67 36.83-17.26 55.6-5.03 20.61-9.6 41.36-16.15 61.55-5.54 17.07-12.64 33.66-22.3 48.83-9.18 14.43-20.78 27.55-35.04 37.15-1.77 1.2-3.56 2.33-5.39 3.4-2.76 1.63-.26 5.93 2.51 4.3h-.01ZM498.52 523.12c6.77 12.05 13.77 23.94 24 32.5 12.88 10.78 28.1 19.27 45.46 20.13 17.37.86 37.1-7.08 49.16-23.32 2.43-3.27 4.61-7.13 4.6-10.98 0-8.12-8.79-10.58-15.52-13.03-6.74-2.44-13.1-11.19-7.44-17.62l38.35 10.91c9.84 2.8 20.23 5.6 30.93 2.48 10.7-3.13 21.42-14.45 20.68-25.85-1.51-23.97-42.56-13.85-49.3-35.8 9.6-4.87 19.89-3.26 29.21-1.05 9.33 2.21 19.03 4.92 29.01 1.94 9.98-2.97 19.96-14.09 18.4-24.45-2.53-16.72-30.47-17.23-27.7-34.88 1-6.28 5.92-11.53 9.09-17.3 6.97-12.71 10.37-39.02-5.89-48.51-10.34-6.06-28.93-2.06-37.66 9.51-9.2 12.2-9.84 28.02-15.89 48.12-2.87 9.53-12.52 4.94-16.39-2.75-1.23-2.44-1.21-5.54-1.35-8.5-.58-13.86-7.27-28.65-20.14-28.27-12.79.38-23.52 15.78-26.57 29.84-3.05 14.05-1.23 27.99-3.62 42.07-.49 2.84-1.22 5.84-3.13 8.08-5.17 6.13-13.8 1.57-16.13-5.18-2.32-6.74-1.68-15.1-5.31-20.94-4.25-6.83-13.6-8.18-21.69-4.98-8.1 3.2-15.03 10.15-20.62 17.7-11.4 15.37-18.38 34.2-19.46 52.43.05 0 4 28.24 14.92 47.7Z" fill="#1F7A36"/><path d="M204.32 558.56c6.27-1.92 12.5-3.94 18.51-6.6 5.8-2.6 11.2-6 16.03-10.11 9.1-7.6 16.81-17.07 20.81-28.34 3.77-10.61 3.6-22.58-.08-33.2-2-5.78-5.03-11.17-8.93-15.9-3.86-4.66-9.8-9.39-16.24-7.15-5.15 1.8-8 6.74-10.74 11.1a46.65 46.65 0 0 1-.72 1.06s.45-.44.16-.22c-.44.37-.8.9-1.23 1.28l-.4.35c.35-.3-.34.24-.44.31-.47.32-.96.6-1.46.86-.11.06-.93.38-.47.23l-.49.16-.78.22-.34.07-.34.06h.1c.1.07.36 0 0 0h-.44c-.27 0-.53-.03-.79 0-.36 0 .33 0 .34.06.02.05-.44-.09-.44-.08-.3-.06-.58-.14-.85-.25 0-.06.6.34.28.12l-.3-.15c-.23-.13-.45-.3-.69-.42-.38-.21.4.45.13.08a3.57 3.57 0 0 0-.28-.25c-.15-.15-.78-.9-.31-.29v3.4l10.5-19.55c3.22-6.01 6.74-11.95 9.39-18.25 2.6-6.17 4.04-12.73 2.99-19.43-.85-5.41-3.6-10.61-7.26-14.66-3.66-4.05-8.66-6.85-14.19-7.19-3.55-.22-7.08.78-9.97 2.86-5.85 4.28-8.93 11.13-12.3 17.33a80.74 80.74 0 0 1-2.64 4.53c-.45.72-.94 1.44-1.44 2.14l-.37.5a3.07 3.07 0 0 0 .05-.06l-.82 1a23.2 23.2 0 0 1-2.56 2.52c-.3.25-.74.42.1-.06-.18.1-.34.26-.52.38-.62.44-1.28.82-1.97 1.16l-.52.24c-.36.18.74-.28.35-.15l-.23.1a15.1 15.1 0 0 1-2.36.65c-.2.01-.4.05-.6.1l.27-.03c.33-.04.36-.05.1 0l-.37.03 3.26 2.47c-.18-.7-.33-1.4-.45-2.11 0 0-.08-.58-.04-.25l-.03-.25c-.03-.4-.07-.81-.08-1.22-.06-1.41-.01-2.83.15-4.25a23.46 23.46 0 0 1 .26-1.44 42.4 42.4 0 0 1 2.53-7.97c-.19.45.13-.29.19-.42l.47-1.05c.57-1.24 1.16-2.46 1.75-3.68 1.26-2.62 2.5-5.24 3.57-7.94 2.13-5.39 3.25-11.16 2.39-16.94-.72-4.79-3.08-9.3-6.19-12.98-3.21-3.81-7.64-6.55-12.63-7.1-3.64-.42-7.36.71-10.42 2.65-2.92 1.81-5.41 4.3-7.83 6.75-1.14 1.16-2.28 2.33-3.48 3.43a36.1 36.1 0 0 1-1.77 1.54c-.45.35-.2 0 .1-.09a23.3 23.3 0 0 1-1.4.97c-.6.38-1.35.62-1.9 1.02.26-.2.68-.26.17-.08l-.48.16c-.35.11-.7.2-1.06.28-.17.04-.34.05-.5.09-.16.04.86-.07.21-.04-.38 0-.75.04-1.13.03-.18 0-.36 0-.54-.03-.64-.05 0-.14.17.03-.18-.17-.97-.2-1.23-.27-.4-.1-.77-.28-1.17-.38-.3-.08.15.06.18.08l-.4-.18a17.62 17.62 0 0 1-2.35-1.41c-.48-.33.25.22-.25-.19l-.78-.66c-1.9-1.67-3.6-3.55-5.4-5.32a44.2 44.2 0 0 0-22.19-11.55c-8.64-1.7-18.63-.62-24.65 6.54-5.88 7-6.65 17.5-3.99 25.99 1.44 4.6 4 8.75 7.48 12.1 3.37 3.27 7.37 5.86 11.5 8.08 4.5 2.41 9.18 4.5 13.77 6.7a187.4 187.4 0 0 1 7.76 3.94c.6.32 1.23.64 1.8 1.01.23.15.65.52.22.13.21.2.45.39.64.6.04.03.23.2.23.26 0 .05-.35-.6-.2-.23.1.19.2.37.32.55.19.28-.17-.3-.14-.34.02-.03.07.25.08.29.17.72.03-.57 0-.04-.02.2-.02.39 0 .58-.12-.26.15-.75 0-.13 0 .1-.2.5-.17.58 0-.02.31-.63.13-.33-.07.12-.12.26-.2.38-.1.19-.21.37-.33.55-.02.04-.15.27-.19.27-.03 0 .45-.5.18-.23-.4.39-.76.8-1.17 1.18l-.28.24s.5-.35.18-.14c-.2.13-.4.3-.62.44-.48.31-.97.6-1.48.84-.26.13-.72.3-.17.1a16.34 16.34 0 0 1-1.96.62c-.44.18.4 0-.1.04-.69.06-1.39.06-2.08 0-.18 0-.36-.03-.54-.05.09 0 .4.05 0 0a92.42 92.42 0 0 0-5.44-.85 37.53 37.53 0 0 0-6.56-.2c-8.65.51-18.43 4.37-20.48 13.77-2.29 10.6 5.43 20.22 13.38 26.16 9.26 6.97 20.9 8.9 31.82 11.89 2.84.75 5.65 1.65 8.4 2.7.32.11.64.25.97.37l-.13-.05.41.18c.65.28 1.27.6 1.88.96.25.16.5.35.75.49.26.14-.02-.04-.08-.08a6.93 6.93 0 0 1 .98.91l.3.34c-.2-.25-.15-.23 0 .02.15.26.28.45.42.72.3.55-.1-.45.05.16.03.13.25.61.17.72 0 .05 0-.7-.04-.29v.83c0 .2-.15.35 0 .03.2-.45-.07.2-.11.36-.05.16-.3.82-.12.39.2-.44-.18.33-.26.44-.12.22-.28.41-.4.63.27-.48.14-.17-.1.1l-.53.54-.29.26c-.09.08-.5.41-.16.15.35-.27-.3.19-.4.26a10.28 10.28 0 0 1-1.13.63c.37-.19 0 0-.08.03l-.5.17c-.25.08-.5.15-.77.2-.26.07-.74.14-.14.07-.7.09-1.41.12-2.12.14-1.4.03-2.8-.04-4.2-.13-2.75-.17-5.52-.44-8.27-.11s-5.44 1.05-7.67 2.7a15.46 15.46 0 0 0-4.76 5.69c-5.09 10.7.52 22.26 7.19 30.83a83.91 83.91 0 0 0 24.8 21.17 81.95 81.95 0 0 0 14.95 6.61c1.32.5 2.7.84 4.1 1a149.3 149.3 0 0 0 26.33-.77 88.9 88.9 0 0 0 14.84-2.95c1.69-.5 2.92-2.38 2.35-4.14-.57-1.76-2.34-2.9-4.14-2.36a72.68 72.68 0 0 1-10.8 2.42 101.02 101.02 0 0 1-2.1.3l-1.18.14c-4.5.51-9.01.77-13.53.85-3.18.06-6.36.02-9.53-.1l-2.31-.13h-.32c1.38.11-.25-.21-.59-.32a65.24 65.24 0 0 1-5.55-1.93l-.87-.35c-.05 0-1-.43-.34-.14l-2-.9a79.81 79.81 0 0 1-13.42-7.84c-.52-.37-1.04-.75-1.55-1.14-.03 0-.86-.66-.33-.25l-.76-.6a85.36 85.36 0 0 1-11.35-10.95 46.77 46.77 0 0 1-7.05-10.78 30.74 30.74 0 0 1-.86-2.18 27.03 27.03 0 0 1-1.1-4.25 17.2 17.2 0 0 1-.13-2.52c0-.56.05-1.1.09-1.65.05-.9-.1.5 0-.04.05-.31.1-.63.17-.94a16.25 16.25 0 0 1 .65-2.28c.06-.15.43-.92.06-.16.22-.45.45-.9.7-1.35.14-.21.27-.44.41-.63a15.33 15.33 0 0 1 .23-.32c.34-.38.67-.74 1.04-1.08l.56-.5c-.66.55 0 .04.13-.05.43-.27.87-.52 1.33-.74.74-.38-.67.17.15-.05.4-.11.8-.26 1.2-.36l.9-.2c.97-.2-.39 0 .2-.03.6-.04 1.18-.1 1.78-.12 1.44-.04 2.88.03 4.32.12 2.77.17 5.56.45 8.33.12 2.73-.29 5.31-1.36 7.44-3.08 4.22-3.36 5.75-9.43 2.41-13.95-1.68-2.28-4-3.78-6.59-4.88a75.81 75.81 0 0 0-8.72-3.07c-5.5-1.6-11.12-2.77-16.6-4.4-5.27-1.58-9.57-3.22-14.11-6.35-.5-.35-1-.7-1.48-1.07.57.45-.23-.18-.28-.23l-.71-.57a38.88 38.88 0 0 1-5.06-5.16c-.62-.74.38.54-.2-.24-.16-.24-.33-.45-.5-.71a25.62 25.62 0 0 1-2.27-3.9c-.06-.12-.41-.97-.1-.2a19.65 19.65 0 0 1-1.16-4.06c-.07.83 0 .12 0-.12-.05-.51-.07-1.02-.06-1.54 0-.25 0-.5.03-.75 0-.05.07-.9 0-.32-.06.59.05-.26.06-.3a13.35 13.35 0 0 1 .64-2.26c.26-.74-.35.67 0 0l.3-.6c.21-.38.45-.75.7-1.11.45-.64-.03-.05 0 0a12.84 12.84 0 0 1 1.52-1.56c.1-.08.38-.4.5-.42l-.33.26.37-.26a17.01 17.01 0 0 1 2.8-1.58 14.8 14.8 0 0 1 1.6-.54 26.6 26.6 0 0 1 3.13-.75l.75-.13c.86-.14-.76.08.12 0l1.53-.15a38.95 38.95 0 0 1 6.55.13l.53.07c.9.1-.75-.13.14 0l2.11.35c3.15.56 6.21.9 9.28-.26 4.44-1.7 8.99-5.21 9.33-10.33.39-5.97-6.02-8.54-10.41-10.79-4.65-2.34-9.42-4.49-14.1-6.78a89.32 89.32 0 0 1-6.24-3.36 54.88 54.88 0 0 1-4.06-2.67l-.64-.48c.68.51-.24-.2-.35-.3a36.93 36.93 0 0 1-4.53-4.47c-.57-.66.4.57-.1-.14l-.46-.64c-.3-.45-.57-.87-.84-1.35-.26-.47-.52-.9-.75-1.38a20.83 20.83 0 0 1-.53-1.11 33.04 33.04 0 0 1-1.66-6.1c-.16-.9.07.74 0-.15l-.08-.79a27.82 27.82 0 0 1-.04-4.92c0-.25.04-.5.06-.76.03-.2.03-1.02 0-.11a23.05 23.05 0 0 1 1.5-5.63c-.45.79-.04.12.04-.05l.3-.62c.21-.4.46-.8.68-1.19a15.2 15.2 0 0 1 .49-.76c0-.22.72-.85.87-1.01a16.4 16.4 0 0 1 1.63-1.49c.62-.53-.6.4.08-.05a15.28 15.28 0 0 1 2.64-1.56 3.12 3.12 0 0 1 .48-.22 23 23 0 0 1 2.92-.9c.45-.1.93-.18 1.4-.26.82-.14-.78.06.05 0l.72-.07c1.05-.09 2.1-.11 3.15-.07.99 0 1.98.09 2.95.25-.97-.19.58.1.84.14.5.09.99.2 1.48.3 2.04.45 4.05 1.05 6 1.8l.7.27c.15.06.93.4.1.04l1.36.6a43.28 43.28 0 0 1 7.27 4.3c.6.44-.6-.5-.03 0l.47.37 1.05.9c.98.9 1.9 1.8 2.81 2.75 3.44 3.53 7.06 7.24 12.02 8.47 3.51.85 7.22.33 10.37-1.46 2.85-1.56 5.26-3.9 7.54-6.2 1.17-1.16 2.31-2.35 3.5-3.5a49.41 49.41 0 0 1 2.56-2.28 19.9 19.9 0 0 1 3.83-2.33l-.3.13.35-.13a15 15 0 0 1 2.14-.58c.69-.14 0-.15-.15 0 .06-.06.5-.05.58-.05.46-.03.92-.03 1.38 0 .23-.02.47 0 .7.05l-.41-.05.49.08a11.09 11.09 0 0 1 1.91.53c.16.06.9.4.13.03.54.25 1.06.51 1.57.81.45.27.87.56 1.3.85.72.48-.52-.45.15.1l.6.51c.87.77 1.68 1.6 2.41 2.5.08.1.62.82.14.17l.48.66.9 1.35a26.4 26.4 0 0 1 1.56 3.08l.27.75c.17.5.33 1 .45 1.5.12.52.25 1.01.35 1.52.06.25.1.5.12.75v.35c.1 1.36.1 2.72-.02 4.08l-.11.99c.1-.7-.06.37-.07.41a38.26 38.26 0 0 1-2.2 7.52l-.37.9c.23-.56-.26.6-.31.7-2.25 5.08-4.97 9.95-6.7 15.24-1.85 5.6-2.4 11.55-.95 17.3.33 1.35 1.82 2.6 3.25 2.48 3.85-.33 7.5-1.84 10.46-4.32 2.66-2.18 4.74-5.08 6.54-7.99 1.8-2.91 3.4-6.08 5.07-9.13.8-1.48 1.63-2.94 2.54-4.36l1.35-2 .53-.5c.33-.45-.47.6-.12.16.26-.32.52-.65.79-.96a20.3 20.3 0 0 1 2.32-2.26c.39-.34-.7.49-.13.1l.5-.35a17 17 0 0 1 1.85-1.05c.6-.3-.7.25-.18.08l.45-.16c.37-.13.74-.23 1.12-.32l.54-.12c.19-.03.86-.13.19-.04-.67.1-.03 0 .12 0 .22 0 .45-.03.66-.04h1.22l.53.04c.13 0 .25.03.37.03.42.03-.76-.13-.34-.04 1.15.22 2.28.53 3.38.92.45.16-.51-.27-.1-.03.1.06.23.1.35.16a22.11 22.11 0 0 1 2.33 1.37c.25.17.5.35.74.54-.53-.4.03.03.24.21.47.4.93.83 1.35 1.27.42.44.86.9 1.26 1.38l.6.73c-.4-.5.07.1.2.3.77 1.07 1.45 2.2 2.05 3.37l.36.72.23.5.04.09c-.17-.36.2.49.23.59a25.4 25.4 0 0 1 1.26 4.53c0 .13.03.26.06.38.09.39-.03-.26-.03-.27a28.15 28.15 0 0 1 .03 5.59c0 .16-.16 1.2-.07.6-.06.44-.14.86-.22 1.3a35.04 35.04 0 0 1-1.88 6.43l-.43 1.07-.08.2-.22.5a85 85 0 0 1-1.98 4.1c-1.5 2.96-3.1 5.85-4.68 8.79l-10.13 18.87-2.54 4.72c-.52.97-.72 2.45 0 3.4 1.96 2.56 4.37 4.11 7.6 4.49 2.58.3 5.25-.52 7.5-1.71a16.72 16.72 0 0 0 5.85-5.26c1.3-1.88 2.45-3.87 3.78-5.73.27-.39-.39.44-.07.08l.24-.29.56-.65c.39-.42.8-.8 1.2-1.18.62-.56-.33.2.15-.13l.67-.45c.23-.15.4-.23.6-.33.2-.1.54-.12.11-.06-.42.06 0 0 .13-.03l.78-.2c.6-.17-.6 0 .03 0h1.04c-.49 0 .1 0 .2.03.33.07.66.16.99.26.2.07.8.35.3.1.68.34 1.34.72 1.97 1.15l.38.28c-.12-.09-.45-.37.05.06a26.2 26.2 0 0 1 2.4 2.31c.45.5.9 1 1.34 1.53l.69.84-.06-.07c.15.2.31.4.45.61a46.52 46.52 0 0 1 4.3 7.13c.3.63.58 1.27.87 1.9-.26-.57.1.25.17.45l.38.97a52.65 52.65 0 0 1 2.22 7.9c.13.66.25 1.35.34 2 .04.26.11.85.04.24.04.38.1.76.13 1.14a48.5 48.5 0 0 1 .03 9.72l-.11.96c0 .07-.07.53 0 .1l-.06.37a42.85 42.85 0 0 1-1.9 7.72c-.21.62-.45 1.24-.68 1.86l-.4.99-.25.59a53.4 53.4 0 0 1-3.97 7.24 58.98 58.98 0 0 1-2.4 3.44l-.2.25-.1.13-.66.82a76.6 76.6 0 0 1-7.22 7.64 105.49 105.49 0 0 1-4.66 4.03l-.82.65c-.12.1-.23.2-.35.28-.75.6.3-.2-.18.14a60.17 60.17 0 0 1-7.81 4.85 75.36 75.36 0 0 1-4 1.93l-1.06.45-.45.2c.49-.2-.03 0-.1.05a155.52 155.52 0 0 1-11.05 3.94c-1.51.48-3.03.94-4.54 1.4-1.68.52-2.92 2.38-2.35 4.15.54 1.7 2.33 2.9 4.14 2.35Z" fill="#163A24"/><path d="M398.7 210.94c-6.1-6.47-12.42-18.01-18.53-24.48-3.96 4.7-11.12 12.44-15.07 17.14 9.74 11.6 14.22 14.6 16.71 17.22" fill="#7F4341"/><path d="m384.96 192.36-4.8-5.89-14.21 18.11 2.55 2.95s12.28-7.63 16.46-15.17Z" fill="#472323"/><path d="m358 227.72 14.05 53.41c1.7 4.01 3.41 8.13 3.54 12.49.14 4.76-1.62 9.34-3.34 13.78a1765.95 1765.95 0 0 0-60.82 187.5 11.3 11.3 0 0 1-2.65 4.98c-4.43 4.62-9.69 1.71-13.88-1.05l-21.2-13.97c-3.91-2.57-7.96-5.3-10.26-9.39l-.07-.13c-3.15-5.71 2.83-12.2 8.83-9.78l25.21 10.19c11.44-85.29 29.62-169.86 60.6-248.03Z" fill="#7F4341"/><path d="M353.43 358.33s-8.26-62.55-7.26-97.86l11.82-32.75 7.1 108.71-11.66 21.9Z" fill="#472323"/><path d="m438.4 362.4-74.97 14.2a676.38 676.38 0 0 1-10.75-108c-.27-13.85 0-28.13 5.32-40.89 2.79-6.64 7.05-12.83 13.01-16.79 12.94-8.6 31.06-4.62 43.16 5.18 0 0 15 15.25 22.35 145.04" fill="#F7BC28"/><path d="M385.85 563.66c-34.8 4.16-16.3 37.2-46.8 22.8-1.84-.87-3.79-1.9-4.5-3.53-.86-1.99.36-4.13 1.46-6.03 13.36-22.91 13.2-49.34 12.78-74.74l-1.57-93.86c-.34-20.66-.51-42.02 9.57-60.93 1.23-2.29 2.7-4.61 5.13-6.1 2.56-1.54 5.85-1.95 8.96-2.32l53.4-6.29c2.75-.32 5.76-.6 8.1.62 2.32 1.22 3.33 3.6 4.13 5.76 25.11 69 21.67 111.54 10.08 182.93l-60.74 41.69Z" fill="#153A23"/><path d="M427.78 605.32c-2.7-37.74 4.36-74.86 9.5-112 5.5-39.6 1.39-76.45-6.21-115.56-3.65-18.77-9.25-37.42-13.11-56.15-.38-1.84.53-3.76 2.4-4.28 1.71-.48 3.86.58 4.24 2.43 7.13 34.59 15.42 69 19.33 104.14 1.92 17.12 2.4 34.14.74 51.31-2.02 20.72-5.97 41.18-9.3 61.71-3.67 22.6-6.48 45.47-4.85 68.4.13 1.87-1.68 3.47-3.44 3.47-1.97-.01.83-1.6.7-3.47Z" fill="#FAC7B7"/><path d="m407.02 606.73 5.65-74.18c1.65-21.63 3.62-43.23 5.16-64.87a536.59 536.59 0 0 0 1.24-57.17c-.34-9.72-.72-19.54-1.85-29.2l-.26-2c-.08-.67.05.29-.04-.4l-.2-1.35a583.42 583.42 0 0 0-2.59-16.1c-2.57-14.78-5.5-29.5-8.09-44.28l-.62-3.6c-.3-1.85.48-3.74 2.41-4.28 1.65-.45 3.93.57 4.24 2.44 2.32 14.05-2.2-4.4.3 9.6 1.32 7.36 2.61 14.72 3.65 22.12 1.21 8.56 9.1 49.6 9.56 58.24.99 19.55.87 39.13-.37 58.67-1.3 20.97-6.1 41.89-7.69 62.84l-5.64 74.18-.72 9.35c-.14 1.88 1.28 3.49-.69 3.49-1.75 0-3.6-1.6-3.45-3.49ZM390.48 606.76c2.54-37.59 5.84-75.22 7.08-112.87 1.25-37.54 3.23-75.1 3.18-112.65 0-21.15-3-42.3-3.44-63.44-.1-4.5 6.8-4.5 6.89 0 .77 37.66.9 75.33.38 113.01-.53 37.56-.32 75.1-2.14 112.61a3222.89 3222.89 0 0 1-3.68 63.34c-.13 1.88-2.88 3.48-4.83 3.48-1.76 0-3.6-1.6-3.44-3.48ZM377.91 610.13c3.23-37.82 6.12-75.73 5.84-113.7-.27-37.43-6.67-74.58-6.63-112.01 0-21.12 2.82-42.23 6.36-63.08.31-1.85 2.57-2.9 4.24-2.43 1.94.54-1.5 2.41-1.73 4.29-8.71 71.68-2.61 73.94-.05 110.83 1.3 18.74 2.94 37.4 3.25 56.19.32 18.8-1.57 37.73-2.55 56.54-1.1 21.15-2.8 42.26-4.6 63.37-.16 1.87 1.3 3.48-.68 3.48-1.74 0-3.6-1.6-3.45-3.48ZM372.62 328.5c-3.12 37.69-4.15 75.46-2.22 113.14 1.93 37.68 5.15 75.47-2.45 112.55-4.2 20.49-8.58 41.14-6.1 62.26.22 1.88-1.74 3.48-3.45 3.48-2.04 0-3.22-1.6-3.44-3.48-2.23-18.96 2.07-37.82 6.06-56.24a335.15 335.15 0 0 0 7.44-55.35c1.76-37.73-3.27-75.37-4.8-113.02-.86-21.11.32-42.27 2.06-63.34.16-1.87 1.48-3.48 3.45-3.48 1.75 0 3.6 1.6 3.44 3.48Z" fill="#FAC7B7"/><path d="M338.18 596.15c12.39-33.36 15.43-69.02 15.23-104.39-.2-36.12-4.88-72.15-4.97-108.26-.06-20.3 2.36-40.59 5.42-60.64.29-1.86 2.6-2.9 4.24-2.43 1.97.54 2.7 2.41 2.41 4.28-5.45 35.65-3.99 71.94-2.3 107.81 1.69 35.7 1.09 71.65-2.88 107.28-2.2 19.86-7.68 39.48-14.63 58.21-.66 1.76-2.33 2.97-4.24 2.44-1.68-.45 1.07-2.52 1.72-4.29v-.01Z" fill="#FAC7B7"/><path d="M378.14 340.64a43.4 43.4 0 0 0-.11-1.54c-.09-.97.05.18-.06-.4a30.81 30.81 0 0 0-1.43-5.45c-.09-.27-.4-1.09-.13-.42a30.76 30.76 0 0 0-3.42-6c-.3-.42.28.3-.28-.35a28.42 28.42 0 0 0-3.99-3.98c.65.53-.6-.45-.61-.45a28.16 28.16 0 0 0-4.73-2.73c-.45-.21.37.13-.45-.18-.49-.18-.98-.36-1.47-.52a30.28 30.28 0 0 0-4.7-1.15c-1.9-.2-3.8-.22-5.7-.07-2.7.2-5.3-2.55-5.17-5.23.13-3 2.27-5 5.17-5.22 9.44-.74 18.91 2.7 25.95 8.98 6.96 6.26 10.93 15.37 11.46 24.71.16 2.73-2.49 5.35-5.17 5.23-2.94-.14-5-2.3-5.17-5.23h.01ZM436.7 316.5c-11.08.31-20.54-7.25-24.38-17.43-3.47-9.2-1.06-20.03 6.19-26.64a23.71 23.71 0 0 1 15.28-6.36 5.25 5.25 0 0 1 5.17 5.23 5.3 5.3 0 0 1-5.17 5.22c-.22 0-2.14.24-1.03.04-.48.09-.95.18-1.42.3-.47.13-.9.3-1.38.45-.56.23-.6.23-.11 0a22.54 22.54 0 0 0-2.14 1.14 16.9 16.9 0 0 0-1.08.7l-.24.2a16.23 16.23 0 0 0-1.76 1.68c-.23.25-.45.49-.65.74-.34.45-.41.5-.2.24.21-.26.15-.18-.17.26a20.38 20.38 0 0 0-1.66 3.01 21.56 21.56 0 0 0-.77 3.03c.19-1-.05.67-.06.9a18.55 18.55 0 0 0 .12 3.33c-.13-1.04.2.93.25 1.12.23 1 .53 1.97.9 2.93-.34-.84.45.9.55 1.07a18.77 18.77 0 0 0 1.62 2.62c-.5-.68.68.79.8.9a14.84 14.84 0 0 0 11.34 4.95 5.24 5.24 0 0 1 5.18 5.22 5.3 5.3 0 0 1-5.18 5.23v-.08ZM380.96 255.08c5.35 4.11 9.71 9.6 10.72 16.48.9 6.05-.39 12.3-4 17.29-7.84 10.75-22.2 13.14-33.82 7.43-16.5-8.11-19.02-33.78-4.34-44.92 9.77-7.42 22.6-2.9 31.44 3.72 2.25 1.68 3.38 4.53 1.86 7.15-1.3 2.25-4.81 3.56-7.07 1.87a42.9 42.9 0 0 0-6.9-4.3l-.66-.3c-1.06-.53.82.28.11.04-.47-.17-.94-.38-1.41-.54a23.3 23.3 0 0 0-3.15-.87l-.72-.13c-.57-.12-.24.24.52.07-.47 0-.93-.03-1.38-.12-.71-.02-2 .32-2.62.1.67.24 1.24-.22.5-.06l-.6.12c-.37.08-.72.17-1.07.27-.35.11-.68.25-1.02.35-.87.26 1.02-.53.45-.21-.23.13-.5.23-.74.36-.62.32-1.22.69-1.8 1.09-1.06.71.9-.83-.04.04-.29.26-.58.51-.85.79-.28.27-.54.55-.8.85l-.3.36c-.45.49-.18.71.23-.32-.27.68-.9 1.34-1.28 2-.39.64-.56 1.37-.96 1.94.87-1.27.2-.49 0 .11-.14.45-.28.86-.4 1.3-.22.75-.4 1.52-.54 2.3-.02.16-.04.33-.08.5-.19.93.1-1.2.07-.53 0 .45-.1.9-.13 1.39-.05.8-.06 1.6-.04 2.41 0 .38.04.76.07 1.15 0 .2.04.42.06.63.08 1.12-.2-.9-.05-.37.33 1.63.75 3.24 1.26 4.83.44 1.28-.54-1.06.07.17l.52 1.04c.45.8.94 1.54 1.43 2.31.38.59-.04-.45-.33-.45.06 0 .34.45.4.51l.8.9c.26.3 1.65 1.92 1.96 1.82-.11.04-1.1-.78-.18-.15l.45.32a19.69 19.69 0 0 0 2.32 1.36c.22.1.45.2.66.31.95.48-1.16-.4-.14-.06.9.29 1.75.63 2.66.86a23.65 23.65 0 0 0 2.1.47c-.75-.13.66.06.82.08 1.3.09 2.62.09 3.93 0 .96-.06 0 0-.2.04a28.87 28.87 0 0 0 3-.65c.62-.17 1.18-.4 1.76-.62-1.3.45.26-.15.58-.33.48-.25.95-.52 1.4-.81l.74-.5c1.1-.73-.55.53.21-.16.95-.85 1.84-1.77 2.67-2.74-.85.99.1-.18.38-.62.37-.58.7-1.18 1-1.8.1-.2.19-.41.3-.61-.65 1.2-.13.32 0 0 .21-.65.42-1.3.58-1.96l.15-.67c.23-.98-.22-.45.03.04-.17-.31.12-1.69.12-2.05 0-.58-.04-1.16-.07-1.73-.07-1.16.24.9.02.17-.1-.33-.12-.7-.2-1.04-.15-.64-.33-1.28-.55-1.9-.02-.08-.45-1.2-.13-.4.31.8-.2-.42-.28-.57-.32-.63-.67-1.24-1.05-1.83-.17-.27-.4-.53-.56-.82-.15-.28.55.6-.18-.22-.52-.58-1.03-1.16-1.59-1.7l-.63-.6c-.15-.13-1.58-1.29-.71-.63-2.22-1.7-3.39-4.49-1.86-7.14 1.29-2.24 4.85-3.62 7.08-1.9ZM405.06 242.36c-10.15 2.24-20.44-3.33-25.5-12.3-5.8-10.29-3.98-22.71.5-33.08 1.13-2.59 4.87-3.18 7.08-1.88 2.64 1.56 2.98 4.56 1.85 7.15a46.08 46.08 0 0 0-1.84 5.58c-.51 1.87-.82 3.8-.9 5.73-.05 1.1-.05 2.19 0 3.28.01.81.11 1.63.3 2.42a17.38 17.38 0 0 0 3 7.22c.63.95-.28-.25.42.52a18.5 18.5 0 0 0 2.85 2.79c-.74-.59.52.33.55.35.41.28.83.53 1.26.78.36.2.72.37 1.09.56.5.25-.55-.16.33.14.83.3 1.68.54 2.55.73.4.08 1.04.13.28.07.48.03.96.06 1.44.06a17 17 0 0 0 1.44-.06c-.93.07.26-.08.55-.14 2.63-.58 5.71.8 6.36 3.65.59 2.64-.79 5.8-3.6 6.43h-.01Z" fill="#E48929"/><path d="m386.94 34.95 17.65-27.4c1.69-2.63 7.42-11.1 7.74-14.22.32-3.11-1.27-6.66-4.26-7.45a3.17 3.17 0 0 0-2.73.4c-.38.32-.7.7-.96 1.14-8.1 11.99-20.16 29.7-28.24 41.69" fill="#EE9E7B"/><path d="M391.02 38.5c7.6 8.67-7.59 24.73-16.6 24.06-4.8-.36-9.21-2.88-12.8-6.12-5.42-4.88-5.02-18.06-1.22-24.31 2.84-4.68 9.1-6.3 14.39-5.1a26 26 0 0 1 15.33 10.43" fill="#FAC7B7"/><path d="M409.15 20.26c-3.77-2.7-10.18-.08-11.89 3.78-1.7 3.87-.25 8.14 1.16 12.09 20.56 57.74 29.85 121.69.5 176.81-3.14 5.91-6.74 11.78-8.01 18.14-1.28 6.37.22 13.53 5.97 17.92 8.63 6.59 23.47 4.1 31.65-2.85 8.18-6.95 11.24-16.88 13.27-26.41 12.55-58.62 8.42-106.32-11.37-160.41a155.3 155.3 0 0 0-21.28-39.09v.02Z" fill="#7F4341"/><path d="M410.16 21.45c-1.31-5.47.33-11.18.24-16.81C410.3-1 407.3-7.54 401.75-8c-4.05-.35-7.56 2.7-10.38 5.67a144.75 144.75 0 0 0-11.94 14.23c-.84 1.16-1.7 2.42-1.75 3.86-.05 1.3.59 2.5 1.24 3.63 2.5 4.27 5.73 8.3 10.12 10.52 4.39 2.22 10.1 2.28 13.9-.86" fill="#7F4341"/><path d="M393.05 53.1a120.35 120.35 0 0 0-30.25-25.67c-.96-.56-.09-2.07.87-1.5a121.8 121.8 0 0 1 30.6 25.94c.72.85-.5 2.08-1.22 1.23ZM386.73 61c-10.38-9.24-20.85-18.5-32.96-25.36-.97-.54-.1-2.05.87-1.5 12.24 6.93 22.82 16.3 33.3 25.6.84.75-.39 1.98-1.21 1.24V61Z" fill="#fff"/><path d="M394.66 38.86a172.95 172.95 0 0 0-22.97 24.5c-.68.9-1.89-.35-1.21-1.22 6.84-8.9 14.53-17.1 22.96-24.52.83-.73 2.06.5 1.22 1.24ZM386.88 32.12a178.05 178.05 0 0 0-24.77 28.62c-.64.9-2.13.04-1.49-.9a180.02 180.02 0 0 1 25.04-28.97c.81-.76 2.03.45 1.21 1.23v.02ZM378.86 26.56c-8.1 6.86-16.32 13.85-22.34 22.73-.62.9-2.11.05-1.48-.9 6.1-9.02 14.38-16.11 22.6-23.08.84-.72 2.06.5 1.22 1.23v.02Z" fill="#fff"/><path d="M375.89 145.24a25.93 25.93 0 0 1 7.1 11.78c2.87 10.18 1.37 21.37-2.31 31.13-2.7 7.19-6.72 14.49-14.02 17.73-9.14 4.04-20.2 1.02-29.02-2.46-11.24-4.43-21.77-11-31.25-18.5-8.26-6.54-16.88-15.1-18.43-26.1-1.83-12.72 6.82-23.5 17.89-28.38 12.14-5.34 25.17-4.45 37.65-.84 10.8 3.13 24.1 7.62 32.39 15.64Z" fill="#7F4341"/><path d="M295.03 195.56c-10.98-12.29-14.5-27.46-11.98-42.44 3.72-22.1 33.62-25.84 33.62-25.84 3.18 4.04 8.69 6.95 10.86 15.64 2.56 10.22 2.56 22.35 2.64 25.47.1 3.8 34.05 35.67 30.57 39.16-18.27 18.19-48.26 7.54-65.7-11.99Z" fill="#32142A"/><path d="M301.16 136.9c4.42 20.06-.87 42.06-13.9 57.82-3.43 4.15-7.44 7.93-12.29 10.2-5.71 2.7-12.2 3.07-18.5 2.92-11.91-.3-23.7-2.43-34.97-6.3-12.64-4.35-25.23-11.6-31.26-23.63-6.02-12.04-4.3-26.8.4-39.48 4.14-11.16 10.83-21.87 20.98-27.94 10.75-6.43 23.85-6.9 36.34-7.19 6.22-.14 12.55-.28 18.58 1.35 5.84 1.58 10.98 4.68 15.7 8.5 7.76 6.27 13.94 14.28 18.58 23.16l.34.6Z" fill="#32142A"/><path d="M350.4 183.62a15.73 15.73 0 0 1-7.04 5.94c-5.88 2.58-13.63 1.4-17.38-3.86a12.08 12.08 0 0 1-1.2-11.61 11.84 11.84 0 0 1 9.32-6.92" fill="#7F4341"/><path d="M344.04 130.07c4.4.2 8.8-1 13.2-.8 3.53.15 7.44.47 9.88 3.07 2.11 2.24 2.53 6.94 2.79 10.01.07.88.11 1.85-.45 2.51-.56.66-1.71.74-2.65.67a32.51 32.51 0 0 1-13.1-3.88s-22.87-12.18-9.67-11.58Z" fill="#C05929"/><path d="M334.4 162a32.05 32.05 0 0 1-6.06-8.53 35.64 35.64 0 0 1-3.22-11.18c-.16-1.23.69-2.86 1.51-3.7a5.11 5.11 0 0 1 7.31 0l.81 1.07c.46.8.7 1.71.7 2.63l.04.26-.19-1.39c.34 2.4.97 4.75 1.9 6.98l-.52-1.24c.9 2.14 2.07 4.17 3.47 6.03l-.8-1.05c.73.95 1.52 1.86 2.36 2.72 1.91 1.94 2.06 5.48 0 7.39a5.22 5.22 0 0 1-7.3 0v.01ZM342.54 141.45a34.33 34.33 0 0 1 10.27 4.79c.82.56 1.83 1.17 2.19 2.15.7 1.91-1.28 3.12-2.82 3.52-1.12.23-2.26.39-3.4.47l-4.22.51.66-.51c-.07.55-.03 1.1.12 1.63.06.56.24 1.09.53 1.56.57.68-.4 1.68-.98.99a4.91 4.91 0 0 1-.87-2.18 5.43 5.43 0 0 1-.12-2.37.7.7 0 0 1 .66-.51c2.22-.27 4.46-.45 6.66-.8 1.1-.18 3.55-1.05 2.03-2.42a22.88 22.88 0 0 0-5.11-3.2c-1.91-.97-3.91-1.73-5.97-2.3a.69.69 0 0 1-.42-.32.7.7 0 0 1 .79-1.02ZM380.7 149.89c1.21 2.1 1.97 6.78-.64 8.26-3.6 2.05-6.94-3.9-7.76-6.6-.95-3.17 3.07-4.44 5.46-3.96a4.44 4.44 0 0 1 2.94 2.3Z" fill="#32142A"/><path d="M288.53 127.02c2.62-4.73-2.7-9.65-7.13-6.65-.95.7-1.79 1.54-2.46 2.5-.2.27-1.1 2.18-.45 2.33.03 0 .45-1.47.45-1.53.56-2.04.96-4.23.64-6.34-.75-4.8-5.4-6.13-9.44-7-4.3-.89-9.8-1-12.14 3.51l-1.5-.9a4.64 4.64 0 0 0-.51-5.88c-1.72-1.68-4.39-1.63-6.36-.5-.97.57-1.84-.94-.87-1.5 2.65-1.52 6.18-1.46 8.45.77a6.39 6.39 0 0 1 .79 8 .85.85 0 0 1-.54.39.86.86 0 0 1-.9-.33.9.9 0 0 1-.17-.65.86.86 0 0 1 .12-.31c2.55-4.9 8.37-5.4 13.19-4.5 4.75.9 10.27 2.48 11.47 7.9.45 1.96.15 13.03-3.77 10.15-3.81-2.79 3.32-8.39 5.96-8.78 5.63-.82 9.4 5.27 6.7 10.15-.54.98-2.03.1-1.5-.9l-.03.07ZM265.64 142.38c1.15-1.9-4.09-1.86-4.8-1.85-1.5.01-3 .2-4.45.53-2.9.67-6.06 1.91-8.2 4.08-4.62 4.7.38 14.1 6.38 14.76 3.18.35 5.5-1.93 5.37-5.12-.13-2.88-2.12-5.03-4.58-6.29a15.25 15.25 0 0 0-8.8-1.43c-3.3.5-6.73 3.04-6.23 6.81a.87.87 0 0 1-1.57.67c-2.15-2.91-7.05-2.8-9.08.18-.64.9-2.13.04-1.5-.9a7.5 7.5 0 0 1 12.07-.18l-1.58.68a7.71 7.71 0 0 1 3.6-7.56c2.81-1.83 6.44-1.84 9.61-1.23 5.43 1.02 11.48 5.5 9.44 11.83a6.2 6.2 0 0 1-5.84 4.28c-3.17.13-5.92-1.8-7.81-4.23-1.9-2.43-3.48-5.66-3.07-8.88.4-3.22 2.88-5.51 5.6-7a22.82 22.82 0 0 1 11.81-2.77c1.5.06 3.48.1 4.65 1.2a2.57 2.57 0 0 1 .45 3.26c-.58.95-2.07.08-1.5-.88l.03.04ZM222.26 131.13c1.93.23 3.47-.96 4.37-2.63.62-1.15 2.18-4.88 1.03-5.97-.96-.92-3.15-.72-4.3-.4a6.3 6.3 0 0 0-3.76 2.99l-1.49-.88c1.66-2.79 2.73-6.99-.35-9.26-1.14-.85-2.7-1.08-3.82-.1-1.06.89-1.44 2.4-.63 3.56l-1.6.45c.07-2.14-.48-4.36-2.06-5.88-1.51-1.45-3.9-2.05-5.82-1.1-3.07 1.54-3.66 5.76-4.05 8.81-.15 1.1-1.8.64-1.66-.44.55-4.15 1.85-9.64 6.68-10.47 5.3-.9 8.81 4.26 8.65 9.09a.87.87 0 0 1-1.6.45c-2.54-3.6 1.83-7.9 5.53-6.51 5.24 1.95 4.57 8.38 2.25 12.3a.86.86 0 0 1-1.49-.87 8.02 8.02 0 0 1 5.38-3.92c1.83-.37 4.71-.24 5.9 1.5.66.98.39 2.15.16 3.23a17.1 17.1 0 0 1-1.32 4.11c-1.13 2.25-3.37 4.02-5.97 3.72-1.08-.13-1.1-1.88 0-1.75l-.03-.03ZM205.38 145.27a5.34 5.34 0 0 0-4.9.16 8.44 8.44 0 0 0-3.5 3.9c-.76 1.57-1.42 3.6-.85 5.33.36 1.09 1.95 2.37 3.08 1.48a.87.87 0 1 1 1.22 1.24 3.54 3.54 0 0 1-4.32 0c-1.53-1.09-2.05-2.98-1.87-4.8.37-3.6 2.58-7.5 5.98-8.96a6.99 6.99 0 0 1 6.03.13c.99.52.12 2.02-.87 1.5v.02ZM225.18 199.68a3.27 3.27 0 0 1-6.2 1.7.9.9 0 0 1 .31-1.2c1.17-.78.77-2.96-.54-3.34a.9.9 0 0 1-.6-1.08c.26-1.02-1.12-1.7-1.8-2.15-1.04-.67-2.15-1.34-2.78-2.44a5.13 5.13 0 0 1 1.4-6.57c.9-.66 1.76.85.87 1.5a3.22 3.22 0 0 0-1.18 2.8c.07 1.18.72 1.98 1.66 2.62 1.63 1.12 4.12 2.29 3.5 4.7l-.6-1.06c2.8.81 3.35 4.92.96 6.52l.3-1.19a1.57 1.57 0 0 0 2.7.22c.22-.3.32-.66.3-1.03-.03-1.12 1.7-1.12 1.71 0h-.01ZM264.11 199.87c-1.3 1.47 1.31 2.6 2.35 2.7 1.68.06 3.36.03 5.03-.1l5.26-.18c.78-.03 4.74-.08 3.46-1.83a.9.9 0 0 1 .74-1.31 5.77 5.77 0 0 0 5.66-3.46 5.84 5.84 0 0 0-1.62-6.47c-.83-.75.4-1.98 1.22-1.23a7.6 7.6 0 0 1 1.96 8.36 7.46 7.46 0 0 1-7.22 4.55l.74-1.32c1.25 1.7-.26 3.72-1.98 4.2-1.25.34-2.64.25-3.92.29l-4.78.16c-2.29.07-5.35.65-7.37-.8-1.53-1.09-2.05-3.3-.75-4.77.74-.84 1.95.4 1.22 1.23v-.02ZM281.04 155.7c-.76 1.71.58 3.89 2.3 4.33 2.14.53 4.26-1.35 4.65-3.41.43-2.2-.94-4.45-2.77-5.55-2.2-1.32-4.9-1.1-7.19-.19-.7.29-1.35-.67-.97-1.28 1.58-2.45 4.3-7.22.72-9.36-.95-.57-.09-2.08.87-1.5a5.66 5.66 0 0 1 2.59 4.93c0 2.53-1.38 4.77-2.7 6.81l-.98-1.28c3.15-1.25 6.92-1.14 9.59 1.14 2.27 1.94 3.38 5.27 2.04 8.08-1.21 2.55-4.31 4.25-7 3.03a5.13 5.13 0 0 1-2.64-6.63c.44-1.02 1.93-.13 1.48.88ZM218.34 161.87l-.1 9.61a.87.87 0 0 1-1.18.8.87.87 0 0 1-.42-.35 33.9 33.9 0 0 0-6.1-6.59l1.45-.38-2.2 11.42a.86.86 0 0 1-1.66 0 5.76 5.76 0 0 0-7.43-4.25c-1.05.38-1.5-1.3-.45-1.68 3.97-1.42 8.72 1.3 9.55 5.47h-1.65l2.2-11.42c.13-.71.98-.77 1.43-.4a35.47 35.47 0 0 1 6.36 6.95l-1.6.45.1-9.6c0-1.13 1.72-1.13 1.72 0l-.02-.03ZM195.09 183.25l-2.48 1.11a.9.9 0 0 1-1.18-1.19c1.54-3.07.86-6.5-1.25-9.07a5.13 5.13 0 0 1-1.1-1.94c-.22-.85-.23-1.73-.47-2.58a8.32 8.32 0 0 0-2.81-4.12c-.87-.7.36-1.92 1.21-1.23a9.92 9.92 0 0 1 3.08 4.34c.35.97.37 1.98.62 2.97.24 1 .98 1.61 1.54 2.4a9.94 9.94 0 0 1 .67 10.11l-1.18-1.2 2.48-1.1c1-.45 1.88 1.05.87 1.5Z" fill="#632B25"/><path d="M240.97 122.28c1.17.95 2.77-.6 3.06-1.74.39-1.53-.95-2.78-2.14-3.46a10.9 10.9 0 0 0-4.23-1.28c-1.49-.16-5.18.57-3.7 2.92l-.75-.45c2.54.03 3.6-3.73 1.9-5.42a2.31 2.31 0 0 0-3.16-.04 1.26 1.26 0 0 0 .74 2.16c1.94.2 1.8-4.98 1.8-6.4 0-2.34-.3-4.91-1.8-6.8a6.73 6.73 0 0 0-4.9-2.66c-2.28-.06-3.66 1.53-4.71 3.4a38.25 38.25 0 0 0-4.5 13.72.86.86 0 0 1-.63.83.86.86 0 0 1-.97-.38c-1.39-1.86-3.64-2.65-5.88-2.7-1.62 0-4.68.26-5.54 1.93-.72 1.4-.31 3.47-.18 4.98.14 1.66.33 3.43-.15 5.06-.93 3.14-4.56 4.5-7.34 5.35a43.55 43.55 0 0 1-5.7 1.35c-.73.13-1.53.16-2.24.34-.53.13-1 .13-.9.75a.9.9 0 0 0 .9.63c.71-.05.99.76.74 1.3a3.94 3.94 0 0 0 2.22 5.2c2.39.82 5-1.3 5.1-3.73l.44.75c-4.18-2.37-9.35.9-11.1 4.94-2.43 5.57.91 11.9 3.94 16.46.63.94-.87 1.8-1.48.9-3.53-5.31-7.05-12.8-3.55-19.02 2.5-4.45 8.32-7.44 13.06-4.75a.87.87 0 0 1 .43.75c-.14 3.6-3.78 6.5-7.28 5.4-3.2-1-4.58-4.81-3.24-7.75l.74 1.3c-2.34.17-3.78-3.44-1.43-4.54 1.47-.69 3.54-.62 5.13-.96 2.06-.4 4.08-1 6.02-1.8 1.55-.67 3.37-1.58 3.91-3.32.54-1.74.16-3.68.02-5.42-.26-3.26 0-5.96 3.38-7.14 4.01-1.4 8.85-.72 11.5 2.86l-1.6.45c.6-4.83 2.06-9.52 4.3-13.84 1.74-3.33 4.38-5.86 8.35-4.76 3.86 1.07 6.02 4.52 6.51 8.36.22 2.23.17 4.49-.16 6.71-.18 1.57-.4 3.49-2.19 3.97-2.7.71-5.07-2.56-3.23-4.81 1.98-2.42 5.7-1.5 6.81 1.25a5.43 5.43 0 0 1-.33 4.67c-.67 1.15-2.47 2.76-3.96 2.2-1.21-.46-1.16-2.33-.78-3.32.69-1.8 2.49-2.6 4.31-2.7 3.33-.12 8.93 1.6 9.3 5.65.28 3.13-3.45 5.99-6.07 3.87-.86-.7.36-1.93 1.22-1.23l-.01.01ZM270.04 169.5c.76-1.02 1.68-2.16 1.82-3.48a3.53 3.53 0 0 0-.97-2.8 2.12 2.12 0 0 0-2.6-.42c-.84.47-1.46 1.39-1.17 2.37l-1.57-.2c.7-1.43 1.6-3.54.65-5.07-.51-.83-1.9-1.64-2.77-.85-.87.78-2.04-.49-1.22-1.23 1.6-1.44 3.98-.77 5.2.82 1.65 2.14.7 5.05-.38 7.19-.34.7-1.37.45-1.57-.2-.49-1.64.36-3.27 1.7-4.19a3.79 3.79 0 0 1 4.33.03 5.19 5.19 0 0 1 2.1 3.93c.11 1.9-1 3.53-2.06 4.97a.9.9 0 0 1-1.19.31.9.9 0 0 1-.3-1.19v.01ZM343.92 213.15c1.86-.16 3.07-2.28 2.57-4.05-.51-1.76-2.54-2.86-4.28-2.87-3.98 0-6.45 3.9-7.68 7.23-.24.65-.72 1.59-.74 2.28-.25.42-.12.71.4.9.26.5.54.56.81.16.35-.22.65-.5.9-.82 1.03-1.06 2.77-3.25 2.7-4.86-.09-1.99-3.88-.63-4.99-.15a11.16 11.16 0 0 0-4.35 3.43.86.86 0 0 1-1.35-.18 10.1 10.1 0 0 0-12.18-3.84c-.65.26-1.2-.48-1.06-1.07.45-2 1.9-9.3-1.46-9.49-2.84-.17-4.36 3.49-5.98 5.25-.76.83-1.97-.4-1.22-1.23 2.2-2.4 4.58-7.19 8.66-5.47 1.53.64 2.03 2.12 2.2 3.67.26 2.6.08 5.2-.54 7.74l-1.06-1.08c5.13-2.05 11.14 0 14.13 4.64l-1.35-.17a12.73 12.73 0 0 1 5.76-4.13c1.57-.56 4.35-1.31 5.81-.09 1.56 1.31.45 3.78-.31 5.23-.9 1.8-2.6 4.2-4.63 4.79-1.84.53-2.94-1.01-2.73-2.74.3-2.5 1.58-5.39 3-7.4 2.4-3.43 6.98-5.76 10.84-3.24 3.87 2.52 3.03 8.91-1.86 9.32-1.1.09-1.1-1.66 0-1.75l-.01-.01ZM318.5 186.23a1.54 1.54 0 0 0-2.15 1.1l-1.27-.98c1.84-.8 1.53-3.56.13-4.67-2.22-1.73-5.29.57-6.37 2.54-.34.62-1.44.54-1.57-.2a3.02 3.02 0 0 0-2.73-2.6 2.99 2.99 0 0 0-2.92 2.35c-.26 1.1-1.93.63-1.67-.45a4.55 4.55 0 0 1 8.97.24l-1.57-.2c1.64-2.99 6.04-5.51 9.07-2.9 2.13 1.84 2.42 6.15-.45 7.41a.9.9 0 0 1-1.26-.98 3.28 3.28 0 0 1 4.67-2.17c.98.52.11 2.02-.87 1.5v.01ZM313.84 148.14c3.46 1.83 8.4.05 8.2-4.38-.07-1.73-1.12-3.25-2.83-3.6a3.6 3.6 0 0 0-4.05 1.77c-.45.9-1.8.27-1.58-.67.62-2.41 1.38-5.3-.17-7.53a2.84 2.84 0 0 0-2.53-1.35 2.16 2.16 0 0 0-2 1.52c-.28 1.08-1.9.62-1.65-.45.4-1.76-1.12-3.22-2.7-3.53-1.09-.2-.63-1.88.45-1.68 2.56.5 4.51 3.03 3.9 5.67l-1.65-.45c.78-2.92 4.45-3.53 6.6-1.8 3.03 2.48 2.27 6.77 1.42 10.08l-1.57-.67c1.04-2.06 3.43-2.98 5.63-2.63a5.35 5.35 0 0 1 4.4 4.82 6.56 6.56 0 0 1-3.17 6.43 7.9 7.9 0 0 1-7.59-.04c-.98-.52-.11-2.02.88-1.5l.01-.01ZM321.56 163.7c1 .2 3.02-.55 2.96-1.88-.04-1.12-3.95-1-4.8-1.01-2.87 0-5.9.95-7.12 3.81l-.74-1.3c1.02-.1 1.7-1.1 1.8-2.09.12-1.16-.64-2.17-1.57-2.77-2.24-1.47-5.04-.72-7.43-.12a.9.9 0 0 1-1.05-.8.9.9 0 0 1 .08-.48c1.06-2.04 2.36-4.5 1.44-6.8-.36-.9-1.09-1.8-2.1-1.88-1.03-.08-2.26.73-2.1 1.83l-1.24-.53c.08-.03.08-.06 0-.09-.98-.54-.1-2.04.87-1.5a1.8 1.8 0 0 1 0 3.1.88.88 0 0 1-.76.05.86.86 0 0 1-.5-.57c-.52-3.37 3.62-5.18 6.05-3.1 3.22 2.8 1.47 7.25-.15 10.36l-.97-1.27c3.45-.9 7.94-1.62 10.34 1.8 1.76 2.49.45 6.31-2.72 6.6-.73.06-.98-.78-.75-1.31 2.07-4.88 7.9-4.95 12.31-4.36.93.12 2.08.17 2.62 1.07.45.78.22 1.89-.17 2.65a4.36 4.36 0 0 1-4.77 2.27c-1.09-.22-.63-1.9.45-1.67h.02ZM350.38 200.1c.3-1.35.43-2.72.42-4.1 0-.84.11-1.71-.9-2.17-.48-.22-1.27-.16-1.8-.22-2.21-.23-4.62-.55-6.84-.3-.83.09-2.68.67-2.13 1.9.28.64.81.35 1-.17.3-.77-.53-1.35-1.13-1.6-2.13-.82-5.04.13-7 1.05a.9.9 0 0 1-1.05-.14 11.1 11.1 0 0 0-11.69-2.79c-1.04.36-1.5-1.32-.44-1.68a12.82 12.82 0 0 1 13.37 3.24l-1.04-.13c2.58-1.21 9.53-3.3 10.67 1.01.85 3.18-3.72 5.01-4.38 1.53-.94-4.91 6.43-4.02 9.08-3.8 1.68.13 4.76-.14 5.65 1.72.94 1.95.28 5.1-.13 7.1-.23 1.1-1.9.64-1.67-.45h.01Z" fill="#632B25"/><path d="M292.92 187.39c8.93-14.32 11.08-32.35 9.04-49.16-.16-1.35-.4-2.79-1.25-3.84-.87-1.06-2.58-1.52-3.6-.61-.9.8-.85 2.16-.77 3.35 1 14.62-.5 29.3-4.44 43.42l-1.8 5.1s-1.72 9 2.81 1.74Z" fill="#FAC7B7"/><path d="M249.06 172a1.85 1.85 0 0 0 2.47-1.43c.25-1.22-.9-2.12-1.94-2.37-2.5-.6-4.08 1.91-4.5 4.04l-1.43-.84c1.97-1.67 2.02-5.16-.57-6.29a3.86 3.86 0 0 0-3.63.3c-.97.64-1.48 1.79-2.25 2.66a3.92 3.92 0 0 1-2.24 1.4c-1.29.23-2.57-.5-3.83-.2-1.41.36-2.31 1.8-2.62 3.15-.18.97-.2 1.96-.04 2.93.05.43.12.84.2 1.26.04.15.1 1.6 0 1.42l1.58-.2a11.08 11.08 0 0 0-.5 5.68c.15.9.44 1.77.83 2.59.26.53 1.84 2.77 2.48 1.16l1.06 1.08a27.08 27.08 0 0 1-11.79 1.87c-1.1-.07-1.1-1.8 0-1.74 3.87.25 7.74-.36 11.33-1.8a.87.87 0 0 1 1.06 1.07c-1.1 2.79-4.24 1.7-5.43-.38-1.72-2.99-1.8-6.78-.7-9.98a.87.87 0 0 1 1.2-.54c.16.07.29.18.37.33a1.47 1.47 0 0 1-1.9 2.03c-1.68-.77-1.7-4.4-1.59-5.9.14-2 .98-3.96 2.7-5.07a4.5 4.5 0 0 1 2.37-.74c1.24 0 2.57.75 3.69-.05 1.53-1.1 2.02-3.04 3.84-3.87a5.66 5.66 0 0 1 4.94.18c3.28 1.77 3.41 6.58.67 8.9a.87.87 0 0 1-1.4-.3.86.86 0 0 1-.04-.56c.73-3.75 4.72-7.18 8.33-4.42a3.6 3.6 0 0 1 1.08 4.57c-.81 1.51-2.6 2.43-4.24 1.75-1.01-.42-.57-2.1.45-1.68l-.01-.01ZM205.1 187c1.27-1.7 1.96-4.18.92-6.09a3.34 3.34 0 0 0-.58-.78l-.12-.11c-.11-.1.02 0-.05-.05a3.56 3.56 0 0 0-.53-.32l-.15-.08c.04 0 .14.06 0 0l-.31-.1-.32-.07-.17-.04h.03a4.17 4.17 0 0 0-.71-.02h-.29c-.14 0 .12 0 0 0h-.12c-.22.04-.45.1-.66.18l-.12.05c.17-.07-.07.03-.08.04l-.27.15-.13.09c-.2.13.06-.06-.05.03l-.25.23-.1.12c-.1.12.02-.04-.03.03l-.18.3c0 .03-.04.07-.05.1-.02.04.03-.1 0 .06-.03.15-.08.26-.1.4a.87.87 0 0 1-1.06.6.9.9 0 0 1-.6-1.07c.47-2.4 3.1-3.37 5.27-3.01 2.7.45 4.15 3.12 3.99 5.73a8.34 8.34 0 0 1-1.87 4.74.86.86 0 0 1-1.26-1.13l-.06.03ZM216.88 149.37c1.4-.4 2.93-.9 4.02-1.94 1.4-1.35 1.07-3.2-.52-4.22-1.72-1.1-3.85-.6-5.67-.03-.94.3-5.16 1.6-3.33 3.24h-1.22a16.75 16.75 0 0 0 2.49-17.21l.97.4c-1.63.63.3 3.6.86 4.36 1.26 1.7 2.7 3.27 4.28 4.68 3.08 2.76 6.9 5.25 11 6.03 3.76.7 7.59-.62 8.95-4.45 1.04-2.9.5-6.31-1.86-8.4l1.35-.17-1.01 1.8c-.55.97-2.04.1-1.5-.88l1.03-1.8a.88.88 0 0 1 1.01-.37c.13.04.24.11.33.2 4.63 4.08 3.46 12.7-2.24 15.2-3.8 1.68-8.15.5-11.7-1.3a32.03 32.03 0 0 1-9.82-7.92c-1.65-1.98-5.25-7.08-1.19-8.66a.86.86 0 0 1 .98.4 18.57 18.57 0 0 1-2.74 19.32.87.87 0 0 1-1.22 0c-2-1.8-.27-4.38 1.65-5.26 2.59-1.2 6.05-2.28 8.8-1.03 2.15.98 3.62 3.38 2.62 5.73-1.01 2.36-3.68 3.31-5.88 3.95-1.07.3-1.53-1.35-.45-1.68h.01ZM268.45 121.6a4.9 4.9 0 0 0-.45 4.95 4.2 4.2 0 0 0 4.16 2.48c1.61-.09 3.43-1.08 4.03-2.64a2.3 2.3 0 0 0-.1-1.99.56.56 0 0 0-.54-.28c-.56.1-1.09.34-1.52.7a6.92 6.92 0 0 0-2.9 6.03c.06 1.11-1.66 1.11-1.73 0a8.69 8.69 0 0 1 3.24-7.15c1.09-.86 2.62-1.76 4-1.07 1.03.52 1.45 1.8 1.44 2.88-.04 2.5-2.23 4.43-4.5 5.04a6.03 6.03 0 0 1-6.52-2.18c-1.6-2.17-1.74-5.45-.13-7.64a.87.87 0 0 1 1.19-.3.87.87 0 0 1 .3 1.2l.03-.02ZM249.73 204.49c.45-1.52-1.8-2.2-2.9-1.86a1.27 1.27 0 0 0-1.03 1.16c0 .37.22.93.64.96l-.83.64c.81-2.07-1.14-3.84-3.15-3.6-2.38.3-3.68 2.58-4.08 4.76-.2 1.1-1.86.63-1.66-.45.57-3.1 2.8-6 6.13-6.06 2.9-.06 5.56 2.89 4.41 5.84a.9.9 0 0 1-.83.64 2.55 2.55 0 0 1-2.32-2.29 2.88 2.88 0 0 1 1.7-3.04 4.23 4.23 0 0 1 3.87.18c1.25.72 2.13 2.13 1.7 3.59-.3 1.07-1.97.62-1.66-.45l.01-.02Z" fill="#632B25"/><path d="M344.91 184.5c-2.88.9-5.9 1.8-8.94 1.4a8.68 8.68 0 0 1-5.97-3.5c-1.34-1.87-1.96-4.33-1.14-6.55.85-2.34 2.86-3.86 4.8-5.22.74-.51 1.43.7.7 1.2-1.69 1.19-3.6 2.54-4.25 4.61a5.8 5.8 0 0 0 1.25 5.46c3.37 4.08 8.84 2.6 13.18 1.26.85-.26 1.22 1.08.37 1.34Z" fill="#32142A"/><path d="m341.58 180.74-3.51.16c-.94.1-1.88.01-2.78-.26a2.9 2.9 0 0 1-1.88-2 3.8 3.8 0 0 1 .5-2.83 8.88 8.88 0 0 1 2.57-2.41.69.69 0 0 1 .94.25.71.71 0 0 1-.25.95c-.82.6-1.72 1.22-2.2 2.15-.38.72-.45 1.8.27 2.32.72.53 1.7.48 2.52.45l3.82-.17c.9-.03.9 1.35 0 1.4ZM348.6 152.91c-.04.32-.04.64 0 .95l-.03-.18c.06.32.16.64.3.95l-.08-.17.2.4a.71.71 0 0 1-.25.94.7.7 0 0 1-.95-.24 4.52 4.52 0 0 1-.55-2.66c0-.18.08-.36.2-.5a.69.69 0 0 1 .49-.2c.18 0 .36.08.49.2a.69.69 0 0 1 .2.5l-.02.01Z" fill="#32142A"/><path d="M261.62 177.34c-1.14 3.48 4.04 3 5.86 2.34a3.66 3.66 0 0 0 1.54-.95c-.23-.71-.16-.83.2-.36.26.33.64.54 1.05.6.8.26 1.8.45 2.6 0l.76-.7c.23-1.27-.15-1.7-1.13-1.3l.31-1.2a16.24 16.24 0 0 0 11.6 7.2c1.2.12 2.67.24 3.6-.68.94-.91 1.07-2.58.86-3.84-.42-2.42-2.35-4.57-4.95-4.22-2.31.3-3.93 3.11-2.02 5 2.15 2.12 5.34-1.17 6.65-2.83.82-1.06 1.54-2.48 1.05-3.84-.56-1.58-2.05-1.47-3.34-1.15-1.86.45-3.52 1.2-5.47.8a.9.9 0 0 1-.6-1.08c.51-2.5 2.73-3.76 4.98-4.49 2.53-.82 6.69-1.06 7.19-4.38l.82 1.1c-4.62-.56-9.26-1.06-13.88-1.69-2.16-.3-5.06-1.84-3.3-4.42 1.7-2.48 4.68-1.74 6.54.03 1.3 1.23 2.27 2.77 3.64 3.95a15.96 15.96 0 0 0 5.93 3.18l-1.06.6c1.69-7 1.13-15.65-2.93-21.8-.78-1.19-3.32-3.15-4.38-1.17-.53 1 .45 1.87 1.35 2.09.9.22 1.86-.25 2.55-.93 1.27-1.26 2.03-3.27 2.31-5.01.29-1.74-.78-5.44-3.36-4.1-.98.51-1.86-.99-.87-1.5a3.81 3.81 0 0 1 4.33.53c1.6 1.35 1.95 3.43 1.6 5.42-.58 3.31-3.24 8.69-7.41 7.14-3.2-1.2-3.1-5.47.38-6.1 4.42-.79 6.5 5.28 7.53 8.54a32.31 32.31 0 0 1 .55 17.37.9.9 0 0 1-1.06.6 17.76 17.76 0 0 1-8.96-6c-.87-1.03-1.96-2.6-3.42-2.7-.62-.04-1.61.26-1.9.9-.56 1.21.73 1.41 1.47 1.59 1.52.36 3.19.4 4.74.59l9.58 1.17a.9.9 0 0 1 .84.71c.03.13.03.27 0 .4-.39 2.52-2.62 3.86-4.83 4.62-2.53.86-6.68 1-7.35 4.25l-.6-1.07c2.64.55 5.12-1.8 7.78-.84 2.2.8 2.85 3.41 2.15 5.49-1.3 3.86-8.48 9.77-11.28 4.15-2.31-4.6 3.14-8.36 7.19-6.26 4.05 2.11 5.48 10.3.04 11.57-2.76.64-6.1-.4-8.58-1.6a18.21 18.21 0 0 1-7.23-6.36.9.9 0 0 1 .3-1.19 2.53 2.53 0 0 1 3.67 1.03c.73 1.5-.22 3.23-1.55 3.97-1.66.93-4.26.51-5.66-.73-.98-.87-1.56-2.72 0-3.4 1.21-.55 2.59.6 2.73 1.83.22 1.72-1.5 2.7-2.86 3.18-1.99.69-4.5 1.14-6.36-.12a3.84 3.84 0 0 1-1.63-4.36c.35-1.06 2.01-.6 1.66.45l.04-.02ZM261.92 134.12c-.13-2.7-3.8-3.5-5.2-1.34-.57.9-.86 2.4-.3 3.39.97 1.71 2.7-1.66 3.08-2.46.53-1.2 1.5-3.75.52-4.9-.84-.98-3.15-1.03-4.3-1.05-2.88-.05-6.29 1.5-6.25 4.87l-1.3-.73c1-.77-.58-1.8-1.2-1.91a5.91 5.91 0 0 0-2.69.18c-.86.23-1.67.6-2.41 1.1-.3.2-1.74 1.14-1.7 1.55.04.55 1.13-.56 1.27-.68a25.13 25.13 0 0 0 2.72-2.93c1.12-1.46 1.89-3.05 2.78-4.64 1.94-3.47 5.75-.54 8.54-2.29 1.85-1.15 1.75-3.18.23-4.54a8.17 8.17 0 0 0-5.18-2c-1.1-.03-1.11-1.79 0-1.74 3.24.11 8.64 2.32 8.1 6.43a4.9 4.9 0 0 1-3.3 3.84c-.96.33-1.97.45-2.98.38-1-.07-2.53-.63-3.41.08-.74.58-1.1 1.88-1.55 2.7a24.48 24.48 0 0 1-4.02 5.25c-.72.7-1.55 1.6-2.5 1.97-1.59.63-3.4-.8-2.39-2.47.96-1.6 2.78-2.78 4.5-3.42 1.8-.7 4.37-1.05 6.02.24a2.76 2.76 0 0 1 .06 4.4c-.55.4-1.29-.16-1.3-.76-.05-3.78 3.3-6.24 6.74-6.57 1.8-.18 4.12 0 5.78.83 1.66.82 1.95 2.53 1.71 4.26a12 12 0 0 1-2.24 5.51c-.83 1.12-2.3 2.4-3.76 1.6-1.3-.7-1.67-2.62-1.54-3.98a5.28 5.28 0 0 1 1.97-3.71c2.82-2.13 7.05.05 7.22 3.53.05 1.12-1.67 1.11-1.73 0v.01ZM199.69 160.31c1.56-.3 3.07.16 4.63.05 1.41-.1 2.05-1.17 2.3-2.45.12-.64.18-1.29.18-1.94 0-.36.08-1.23-.32-1.43-.24-.13-.6.3-.63.57-.07.45.45.86.81 1.02a2.06 2.06 0 0 0 1.88-.13.94.94 0 0 0 .47-.63.92.92 0 0 0-.2-.77.86.86 0 0 1 .03-1.19.87.87 0 0 1 1.2-.04 2.62 2.62 0 0 1 .38 3.1 3.27 3.27 0 0 1-2.67 1.55c-2.01.16-4.5-1.72-3.35-3.92a2.27 2.27 0 0 1 2.52-1.25c1.07.3 1.5 1.4 1.59 2.4.06 1 0 2.01-.2 3-.14 1-.57 1.93-1.24 2.7a4.35 4.35 0 0 1-3.33 1.18c-1.19-.03-2.41-.35-3.6-.12-1.08.21-1.55-1.46-.45-1.68v-.02ZM225.78 161.87a6.1 6.1 0 0 0 7.64-5.87l1.1.84a16.35 16.35 0 0 0-7.07 5.78c-.52.75-1.93.32-1.57-.67.49-1.35-.36-2.72-1.52-3.4-1.5-.87-3.38-.77-5.04-.73a.87.87 0 0 1-.83-.63 2.75 2.75 0 0 1 .4-2.15c.64-.9 2.14-.04 1.5.9a.97.97 0 0 0-.24.8l-.83-.64c2.17-.06 4.6-.07 6.43 1.32 1.5 1.14 2.46 3.15 1.8 5l-1.58-.66c2-2.93 4.82-5.22 8.1-6.58.52-.22 1.09.33 1.08.84a7.82 7.82 0 0 1-9.8 7.54c-1.08-.28-.63-1.96.44-1.67v-.02ZM237.1 124.53a21.97 21.97 0 0 0-4.21 10.87c-.02.25-.06.5-.06.75a.8.8 0 0 0 0 .3c.1.2.02.16-.22-.08l-.75.44a.87.87 0 0 0 .08-1.13h1.22l-3.7 3.8c-.78.8-2-.45-1.22-1.24l3.7-3.8a.88.88 0 0 1 .61-.25.87.87 0 0 1 .61.26 2.61 2.61 0 0 1 .64 2.24c-.14.74-.61 1.56-1.46 1.44-1.8-.25-1.2-3-1.02-4.17a23.05 23.05 0 0 1 4.3-10.29c.66-.9 2.16-.02 1.49.88v-.02ZM256.01 199.64c.3-1.1.51-2.2.66-3.32.11-.95.34-2.16.05-3.1-.45-1.37-1.87-.64-2.47.2-.57.9-.99 1.89-1.23 2.93a14.7 14.7 0 0 0-.54 4.86c.06.62.17.9.63.22 1.08-1.65 1.52-4.43 1.43-6.37-.11-2.37-2.32-2.93-4.24-3.44-1.02-.28-2.25-.57-3.27-.15-.69.3-1.44 1.16-1.25 1.96.2.81 1.27.86 1.9.56.94-.45 1.3-1.62 1.42-2.59.2-1.71-.18-3.69-1.33-5.02-1.51-1.75-3.95-1.44-5.7-.23-1.92 1.32-3 3.6-4 5.63-.46.9-1.85.27-1.58-.67.52-1.77.8-3.6.83-5.44 0-.83.18-3.71-1.15-3.78-1.1-.05-1.11-1.8 0-1.74 1.88.09 2.64 1.93 2.81 3.6.22 2.63-.07 5.29-.83 7.82l-1.57-.67c1.38-2.78 2.97-5.73 5.96-6.98 2.7-1.12 5.64-.34 7.2 2.22 1.34 2.25 1.7 5.76.22 8.03-1.28 1.97-4.94 2.63-5.8-.14a3.44 3.44 0 0 1 .93-3.27c1.03-1.08 2.52-1.34 3.95-1.17 2.56.29 6.33 1.3 7.07 4.18.41 1.56.1 3.4-.24 4.94-.31 1.44-.76 3.34-1.88 4.37a1.8 1.8 0 0 1-2.93-.52c-.62-1.31-.33-3.15-.13-4.53.36-2.62 1.83-8.24 5.56-7.3 1.52.4 2.06 1.94 2.08 3.38a23.11 23.11 0 0 1-.87 5.96c-.28 1.09-1.94.63-1.66-.45l-.03.02ZM270.52 194.3c1.39.49 3.34 1.18 4.73.35 1.48-.9 1.35-3.14.77-4.55a4.8 4.8 0 0 0-3.6-2.93 5.04 5.04 0 0 0-4.44 1.53l.22-.85c.12.45.82.4 1.18.37.24-.09.48-.16.73-.21.13-.11.16-.02.1.26l-.2-.13a10.56 10.56 0 0 0-5.39-1.62c-1.12-.03-1.12-1.77 0-1.74 1.65.04 3.3.41 4.81 1.1 1.12.5 3.22 1.52 2.17 3.06-.7 1.03-2.42 1.23-3.53.9a2.25 2.25 0 0 1-1.35-1.04c-.45-.78-.03-1.33.57-1.83a6.67 6.67 0 0 1 7.74-.64 6.83 6.83 0 0 1 2.92 7.33 4.05 4.05 0 0 1-3.3 3.02c-1.54.24-3.11-.18-4.57-.69-1.04-.36-.6-2.05.45-1.68Z" fill="#632B25"/><path d="M260.49 171.18c-2.99 1.75-5.95 3.97-8.05 6.8-1.03 1.39-1.85 3.11-1.34 4.89.63 2.2 2.94 2.97 4.58 1.28a4.77 4.77 0 0 0 1.26-2.25c.23-1.41-.58-1.53-1.56-1.77-1.92-.48-3.9-.8-5.84-1.09-3.55-.53-7.4-.3-10.85-1.28-2.25-.63-4.5-2.25-4.85-4.74-.27-2 .99-4.27 3.06-4.59 1.99-.3 4.04 1.6 3.15 3.65-1 2.25-4.34 2.27-6.36 2.34-1.85.07-3.7-.04-5.54-.31-1.87-.27-3.7-.93-5.57-1.1-5.27-.44-5.07 6.66-3.15 9.85l-1.34-.17c1.1-1.28-.49-2.7-1.62-3.04a9.53 9.53 0 0 0-3.14-.14c-1.1.06-1.1-1.67 0-1.74 2.03-.12 4.44-.14 5.88 1.57a3.44 3.44 0 0 1 .1 4.58.86.86 0 0 1-1.35-.18c-2.82-4.67-1.78-13.28 5.14-12.4 1.55.19 3.05.67 4.59.94 2.19.38 4.42.5 6.64.37.82 0 1.64-.1 2.45-.28.9-.24 2.63-1.28 1.04-2.06-1.1-.53-2.05.62-2.25 1.63a3.19 3.19 0 0 0 1.14 2.85c1.44 1.35 3.48 1.59 5.34 1.74 2.14.17 4.28.33 6.4.62 1.73.22 3.43.5 5.13.83 1.4.27 3.18.4 4.32 1.35 1.95 1.65.3 4.78-1.17 6.18-1.84 1.74-4.57 1.8-6.24-.21-5.03-5.97 4.8-13.08 9.13-15.62.96-.57 1.83.94.87 1.5ZM270.42 155.46v-3.66c0-.9.32-2.33-.52-2.9-1.48-1.01-3.99-.5-4.88 1.05-.76 1.33-.13 3.55 1.7 3.32.95-.11 1.55-1.15 1.98-1.9.54-.94 1.01-1.92 1.4-2.93.85-2.3 1.3-4.74 1.34-7.2 0-1.11 1.74-1.11 1.73 0a22.97 22.97 0 0 1-1.8 8.57c-.9 2.13-2.36 5.48-5.16 5.2-2.52-.27-3.9-2.95-3-5.27 1-2.55 3.91-3.55 6.41-2.83a3.18 3.18 0 0 1 2.5 3c.1 1.84 0 3.71 0 5.55 0 1.13-1.73 1.13-1.72 0h.02ZM326.44 202.78c1.18.26 4.68.23 2.67-1.9-1.04-1.1-3.76-2.13-4.8-.54-.23.35-.61 1.71.11 1.88-.04 0-.22-1.76-.26-1.96a12.25 12.25 0 0 0-1.97-4.04c-1.67-2.37-4.09-4.85-6.98-5.57-2.88-.71-6.42 1.03-6.11 4.37.07.78-.98 1.11-1.48.62a6.8 6.8 0 0 0-5.84-1.95c-1.2.18-2.79 1.6-3.98.9-1.03-.63-1.1-2.34-.84-3.38.45-1.73 1.75-3.15 3.1-4.2.9-.72 2.04-1.42 3.11-.6.9.7.99 2.1.8 3.15a14 14 0 0 1-2.53 5.46c-.5.7-1.03 1.37-1.58 2.04-.55.66-2.09 2.03-.42 2.87.71.36 1.82-.38 2.36-.74l-.18 1.35a9.94 9.94 0 0 0-4.38-2.7c-1.4-.4-2.94-.48-4.15-1.35-1.48-1.09-2.03-3.38-.58-4.71.82-.75 2.04.47 1.22 1.23-2.25 2.05 3.77 3.06 4.73 3.41a11.8 11.8 0 0 1 4.38 2.89.89.89 0 0 1 .22.7.89.89 0 0 1-.4.64c-1.83 1.27-5.58 1.61-5.76-1.54-.08-1.44 1.1-2.54 1.93-3.55a16.54 16.54 0 0 0 3.2-5.39c.27-.9.58-2.59-.83-1.9a6.1 6.1 0 0 0-2.05 2.15c-.35.5-.54 1.1-.54 1.71.05.83.04.67.65.52.6-.15 1.18-.5 1.8-.62a8.55 8.55 0 0 1 7.8 2.4l-1.5.63c-.36-4.09 3.85-6.77 7.51-6.2 4.53.68 8.54 5.11 10.34 9.18.56 1.29 1.72 4.38.48 5.61-1.1 1.1-2.74.03-3.18-1.19a3.53 3.53 0 0 1 1.12-3.87c1.68-1.3 4.12-.75 5.76.32 1.48.96 2.78 2.91 1.57 4.6-1.09 1.54-3.36 1.32-4.94.97-1.09-.24-.63-1.92.45-1.68l-.03-.02ZM308.37 141.12c2.85 8.62 6.32 18.5 1.88 27.25-.62 1.23-1.57 3.1-3.2 2.96-1.51-.13-2.25-1.86-2.45-3.17-.2-1.23.07-2.73 1.4-3.19 1.46-.5 2.66.8 3.14 2.07 1.4 3.63-.69 9.43-5.32 8.21-.93-.24-.75-1.74.23-1.7 4.8.14 9.58.13 14.35-.04 1.1-.03 1.1 1.7 0 1.75-4.8.17-9.58.17-14.35.02l.23-1.7c2.24.58 3.48-1.7 3.56-3.63.04-.81.02-1.95-.45-2.65-.7-1-1.24.03-1.03.9.13.53.2.93.8 1.05.6.12.63-.08.96-.6.41-.64.76-1.32 1.06-2.02a18.2 18.2 0 0 0 1.3-4.94c.86-6.94-1.63-13.65-3.76-20.12-.35-1.06 1.31-1.52 1.66-.45Z" fill="#632B25"/><path d="M299.66 593.64c-64.78 10.06-133.45-8.22-184.63-49.13-20.68-16.52-39.44-38.46-42.08-64.77-.3-2.99-.26-6.34 1.8-8.54 1.7-1.8 4.36-2.31 6.83-2.64 57.65-7.61 111.76 29.83 151.16 72.56a180.2 180.2 0 0 1-9.6-72.94c.54-7.07 3.64-16.08 10.73-15.88 4.38.14 7.6 4.02 10.14 7.6a356.92 356.92 0 0 1 53.6 114.95" fill="#1F7A36"/><path d="M74.33 471.88c28.58-5.47 58.23 1.22 83.98 13.97 26.74 13.23 49.43 33 69.94 54.4 11.86 12.35 23.07 25.3 34.26 38.26 2.47 2.86 7.06-.2 6.14-3.57-7.73-28.49-15.77-56.9-23.19-85.46-5.77-22.26-9.25-18.14-4.67 1.45 6.72 28.75 13.04 57.47 20.76 85.96l6.14-3.6c-20.2-23.35-40.55-46.9-64.48-66.6-23.4-19.26-50.42-34.74-80.32-41.07-16.63-3.52-33.78-4.04-50.52-.85-1.95.38-3.06 2.7-2.57 4.53.56 2.03 2.57 2.93 4.52 2.56v.02Z" fill="#163A24"/><path d="M306.38 586.24a326.2 326.2 0 0 1-78.52-14.7 330.68 330.68 0 0 1-72.7-33.17c-12.75-7.8-18.58-7.98-32.62-19.72-1.52-1.27-16.12-13.97-17.62-12.47-1.3 1.3 7 10.13 8.55 11.4a333.67 333.67 0 0 0 69 43.91 338.32 338.32 0 0 0 77.88 26.05 335.11 335.11 0 0 0 46.04 6.05c4.73.28 4.71-7.06 0-7.35h-.01Z" fill="#194429"/><path d="M144.42 514.45c19.6 14.55 34.05 34.58 51.48 51.47 3.4 3.3 16 4.35 12.6 1.06-17.93-17.35-34.83-37.83-55-52.8-1.6-1.19-15.9-9.4-16.82-7.82-1.1 1.88 6.13 6.9 7.73 8.09ZM197.77 536.83c14.5 15.69 19.6 28.06 34.76 41.57 3.52 3.14 20.23 5.07 16.67 1.92-15.16-13.52-31.81-32.23-46.03-46.72-13.35-13.61-21.98-15.43-5.4 3.23Z" fill="#194429"/><path d="M259.52 503.15a738.38 738.38 0 0 0 14.54 150.1c.42 2.06.97 4.31 2.7 5.52 1.73 1.21 4.18.94 6.33.56 19.62-3.37 39.23 1.46 58.85-1.92 2.51-28.7 5.02-65.61 7.54-94.33 1.02-11.72 2-23.8-1.52-35.04-3.53-11.23-11.55-19.73-21.58-22.52" fill="#E48929"/><path d="m249.92 539.35 92.25-.42 26.14-.11c3.3 0 3.31-5.15 0-5.14l-92.25.41-26.14.12c-3.3 0-3.3 5.15 0 5.13ZM249.43 523.26a542.13 542.13 0 0 0 106.36-4.75c1.37-.2 2.12-1.94 1.8-3.14-.41-1.48-1.8-2-3.15-1.8a536.82 536.82 0 0 1-104.99 4.57c-3.3-.18-3.3 4.94 0 5.13h-.02Z" fill="#FAC7B7"/><path d="M189.51 395.33c-3.53-6.36-9.31-11.32-11.6-18.23a95 95 0 0 1 34.1-17.67c6.62 13.31 13.98 27.4 27 34.59 13.97 7.7 31.47 5.58 46.3-.22a124.2 124.2 0 0 1 2.08 23.53s-57.41 50.75-97.88-22Z" fill="#E48929"/><path d="M332.43 312.87c-3.18 27.75 16.8 32.72 18.94 50.45 2.78 23-11.12 36.63-21.35 43.09-10.23 6.45-22.9 8.08-34.96 7.11-9.73-.8-19.78-3.46-26.83-10.24-6.74-6.51-9.86-16.1-10.34-25.48-.48-9.38 1.38-18.7 3.23-27.9 2.25-11.2 5.44-23.74 15.36-29.42 3.99-2.3 8.63-3.15 13.2-3.56 10.48-.94 22.54 1.08 28.38 9.82" fill="#32142A"/><path d="M315.96 392.03c8.78-14.24 9.86-16.74 6.33-24.71-1.8-4.04-4.46-6.33-8.13-10.4-3.15-3.52-3.15-4.43-5.68-8.44-.52-.84-3.25-2.3-2.73-1.46l6.99 11.16c2.25 3.56 5.24 8.12 6.05 9.7.75 1.47 2.96 8.71 1.65 12.76-1.24 3.85-3.53 7.3-5.81 10.6-.57.82.77 1.6 1.35.78h-.02ZM283.74 396.3c-6.33-4.86-9.8-18.06-9.9-20.66-.03-1-.27-6.39-1.18-1.85-1.68 8.37 5.32 21.63 9.35 25.94.68.72 2.5-2.85 1.73-3.45v.02Z" fill="#7F4341"/><path d="M253.63 318.72a62.27 62.27 0 0 1 45.06-63.75c-5.7 11.51-15.35 20.5-24 30-8.66 9.5-16.75 20.51-18.13 33.29" fill="#32142A"/><path d="M268.19 280.03c7.3-16.1 18.99-23.92 36.47-26.56 7.47-1.13 15.55-.53 21.85 3.64 5.69 3.77 13.39 10 15.84 16.38 4.55 11.8 5.36 31.2-1.5 41.83-4.62 7.19-9.1 15.58-16.45 19.92-1.95 1.15-6.83-10.83-9.08-10.54-7.2.9-11.96-6.83-15.93-12.89a64.63 64.63 0 0 0-29.4-24.25" fill="#32142A"/><path d="M269.09 283.25a213.26 213.26 0 0 0-11.53 27.6c-3.71 10.69-6.9 22.09-4.8 33.2 2.1 11.13 11 21.74 22.32 22.15 12.1.45 21.63-10.2 27.39-20.83a107.33 107.33 0 0 0 11.87-36.15c1.21-8.66 1.24-17.97-3.01-25.6-4.25-7.64-13.94-12.83-22.03-9.56l-20.21 9.19Z" fill="#FFC9A0"/><path d="M302.25 337.74c1.06 4.54 6.65 6.82 11.18 5.73 4.53-1.1 8.06-4.59 10.97-8.23 3.77-4.73 6.88-11.68 3.2-16.49-2.14-2.78-6-3.76-9.5-3.34-3.48.43-6.69 2.03-9.82 3.6" fill="#FFC9A0"/><path d="M268.68 282.53c-.2 9.47 3.88 18.8 10.46 25.63 6.57 6.83 8.27 11.96 20.51 17 2.25.92 15.1 5.38 16.1 3.14 1.29-2.86-7.47-9.3 0-12.44 6.46-2.73 9.83-15.83 8.4-22.7-1.44-6.86-8.21-23.89-14.46-27.08-5.02-2.55-14.65-.44-20.28-.38-5.46.09-13.04 9.61-17.44 12.81" fill="#32142A"/><path d="M156.57 417.86s20.5-19.38 31.7-27.93c1.64-1.24 3.71-2.53 5.59-1.7 1.26.54 1.95 1.87 2.6 3.09 8.75 16.55 25.98 28.3 44.59 30.48 18.6 2.17 37.95-13.77 50.26-27.86 2.78 14.78 5.23 21.63 5.18 36.67 0 0-78.26 94.9-139.92-12.75Z" fill="#F7BC28"/><path d="M307.65 375.73c-5.66-4.62-6.2-12.93-6.3-20.22l-.13-11.83a222.89 222.89 0 0 1-20.76 14.82 56.07 56.07 0 0 1 4.37 27.13c-.06.66-.1 1.4.32 1.92.62.73 1.8.53 2.7.24a62.06 62.06 0 0 0 18.2-9.34" fill="#FFC9A0"/><path d="M284.3 384.45a93.63 93.63 0 0 0 23.14-12.68c8.72 12.43 16.9 25.53 21.15 40.1 5.88 20.2 3.8 41.73 1.67 62.65l-1.75 17.15c-.12 1.2-.29 2.5-1.12 3.36-.66.7-1.63.99-2.55 1.24-21.41 6-43.6 8.77-65.83 8.2-.97 0-2.03-.09-2.7-.76-1.07-1.05-.62-2.84-.1-4.25a464.5 464.5 0 0 0 26.62-115.14" fill="#F7BC28"/><path d="M330.75 275.21c4.5 7.23 14.24 7.6 20.55 2.23 7.13-6.09 6.29-17.29 0-23.7-8.78-8.92-21.9-5.2-29.71 2.88-.4.33-.65.79-.72 1.3-.03.9 4.12 6.02 4.77 7.18 1.82 3.28 3.2 7.05 5.1 10.11Z" fill="#32142A"/><path d="M197.6 462.12s23.83-11.05 33.04-16.18c3.04-1.7 6.3-3.43 9.78-3.26 5.13.25 9.06 4.5 12.4 8.37 2.2 2.58 6.58 5.44 8.79 8.02 0 0-32 20.9-64 3.05Z" fill="#FFAB00"/><path d="m271 452.9.24-.18 1.47 1.9c6.17-6.6 12.46-13.03 18.18-20.05 1.96-2.35 3.8-4.8 5.5-7.35.85-1.3-1.25-2.51-2.09-1.22-3.07 4.72-6.81 8.99-10.53 13.2-3.44 3.9-6.96 7.7-10.56 11.43-.73.76-1.49 1.5-2.21 2.28a1.21 1.21 0 0 0 1.46 1.9c.03 0 .23-.18.25-.2 1.12-1.08-.59-2.79-1.7-1.7Z" fill="#E48929"/><path d="m259.5 486.3 6.71 5.4 12.6-46.32-8.3 8.23s-5.82 23.6-11 32.7ZM294.14 398.8c3.57-1 7.2 1.32 8.86 4.41 2.13 3.94 1.28 8.82-.12 12.85-.51 1.47 1.82 2.1 2.33.64 1.67-4.8 2.4-10.62-.4-15.17-2.3-3.76-6.88-6.29-11.31-5.05-1.5.42-.86 2.75.64 2.33Z" fill="#E48929"/><path d="M329.67 415.97c-2.25-11.16-2.34 25.74-6.54 36.32-1.43 3.6-2.97 7.28-3.08 11.15-.2 7.08 4.41 15.04 8.7 20.67 0 .01 7.63-35.1.92-68.14Z" fill="#FFAB00"/><path d="m302.93 344.5-.2-5.42s.98 1.7 1.8 2.31l-1.6 3.1ZM282.8 364.96s10.07-3.38 15.9-13.48c0 0-10.6 18.76-14.13 21.85l-1.77-8.37Z" fill="#EFB086"/><path d="M324.22 340.6c.66 11.47 6.93 13.77 9.8 16.53 5.84 5.62 6.68 14.9 3.15 22.3-.45.9 1.41-.75 1.84-1.64 3.33-7.01.5-17.25-1.8-19.63-1.9-1.95-10.63-10.2-11.45-17.56-.7-6.23-1.46-.98-1.55 0ZM278.97 279.56c.33 15.17 3.45 29.46 23.16 36.05.94.31 7.9 1.38 5.9.5-16.55-7.24-27.4-16.22-27.52-36.43 0-.98-1.56-1.1-1.54-.12ZM285.1 271.74c5.78-.24 18.81-5.44 24.59-5.64 5.57-.19 6.06.4 11.99 4.04 3.91 2.4 6.85 3.9 9.58 7.68 3.08 4.24 3.48 9.5 3.26 14.57-.21 4.87-.2 11.2-4.42 14.5l1.28.33c-2.13-10.23-2.13-18.03-18.88-26.95-.9-.45-4.95 1.53-4.11 2.1 16.4 11.5 17.68 15.78 21.51 25.25a.78.78 0 0 0 1.29.34c3.77-2.93 5.4-11 5.74-15.43.4-5.44-.45-8.22-2.95-13.23-4.9-9.76-18.23-18.42-21.9-18.42-7.15 0-18.7 5.84-26.91 8.98-.9.35-2.59 1.95-1.6 1.9l1.54-.02Z" fill="#7F4341"/><path d="M296.06 277.71c-1.98 6-3.2 14.6.58 19.71 3.67 5 8.17 6.23 14.18 7.74 3.8.94 5-3.1 3.77-3.15a18.35 18.35 0 0 1-14.36-7.56c-3.33-4.7-4.2-13.5-2.41-18.93.38-1.16-1.38 1-1.76 2.16v.03Z" fill="#7F4341"/><path d="M306.52 337.81c2.47.5 4.99 1 7.49.33a12.41 12.41 0 0 0 6.23-4.16c2.2-2.72 4-6.77 2.7-10.28-.93-2.54-3.22-4.01-5.68-4.88-1.03-.36-1.47 1.27-.45 1.63 1.8.64 3.66 1.7 4.45 3.56a6.7 6.7 0 0 1 0 4.54c-1.02 3.4-3.66 6.56-7.06 7.75-2.4.85-4.84.37-7.26-.12-1.07-.2-1.52 1.42-.45 1.63h.03Z" fill="#32142A"/><path d="M310.65 332.28c1.25.16 2.55.24 3.74-.3 1.19-.53 1.92-1.7 2.32-2.87a6.74 6.74 0 0 0-1.38-6.59c-.73-.8-1.93.4-1.2 1.2a5.01 5.01 0 0 1 .99 4.83c-.26.79-.75 1.64-1.56 1.96-.9.36-1.97.2-2.9.08a.85.85 0 0 0-.86.85.87.87 0 0 0 .85.84Z" fill="#32142A"/><path d="M259.8 516.13c-3.04-11.63-6.08-18.13-9.13-29.77-.55-2.1-.77-4.9 1.32-5.84a4.5 4.5 0 0 1 2.8-.09c7.68 1.7 11.52 9.91 18.48 13.37a5 5 0 0 0 2.6.67c1.6-.13 2.74-1.48 3.73-2.66a47.49 47.49 0 0 1 12.92-10.7c2.63-1.5 5.97-2.75 8.67-1.35 3.36 1.71 3.99 6.74 7.7 7.63a6.9 6.9 0 0 0 3.47-.22c8.28-2.28 13.82-10.55 22.38-11.7 1.16-.16 2.5-.13 3.33.64 1.29 1.18.63 3.19-.12 4.72-4.56 9.4-8.54 16.33-11.75 25.07l-66.4 10.23Z" fill="#E48929"/><path d="M249.96 506.64a482.53 482.53 0 0 0 83.04-3.3c1.37-.17 2.57-1.05 2.57-2.56 0-1.25-1.19-2.74-2.57-2.57a483.43 483.43 0 0 1-83.04 3.28c-3.3-.15-3.3 4.99 0 5.14v.01ZM244.76 493.47a3033.15 3033.15 0 0 0 94.77-.34c3.3-.06 3.3-5.2 0-5.13a2967.73 2967.73 0 0 1-94.77.32c-3.3-.05-3.3 5.09 0 5.13v.02Z" fill="#FAC7B7"/><path d="M277.04 302.3c-.93-.21-2.03-.38-2.74.26-.81.72-.6 2.1.07 2.93.68.84 1.7 1.35 2.56 1.98 4.1 3 4.84 8.7 6.85 13.37.33.76.93 1.63 1.74 1.49.75-.13 1.06-1.01 1.16-1.76.36-2.71-.2-5.47-1.61-7.82M271.16 318.42c.16 2.04.11 4.1-.16 6.13l.1-.69-.17 1.1c-.17.67-.07 1.38.25 1.98.35.58.9 1 1.54 1.18a2.61 2.61 0 0 0 2.72-.9c.2-.27.36-.57.44-.9.47-2.6.6-5.25.42-7.9a2.57 2.57 0 0 0-5.14 0Z" fill="#32142A"/><path d="M259.8 334.47c-1.93 1.48-1.33 4.04.9 5.32 2.23 1.27 5.57 1.34 8.19.48 1.35-1.64.9-7.5 1.35-8.7" fill="#C05929"/><path d="M165.89 267.53c4.1 1.44 7.06 4.76 8.43 6.78 4.68 6.87 4.26 20.95-4.74 25.03-5.6 2.53-15.63 3.25-20.17-.95-2.55-2.37-5.73-5.43-8.23-12.58" fill="#32142A"/><path d="m123.12 325.91-18.33 11.76c-.6.32-1.12.78-1.53 1.32-.45.72-.5 1.61-.52 2.46l-.69 25.05c-.02.9 0 1.9.56 2.6.48.47 1.08.81 1.73.98 6.9 2.38 13.86 4.5 20.9 6.36l-2.12-50.53Z" fill="#E48929"/><path d="M121.31 305.4c-.91 27.4-.44 54.81 1.42 82.16.13 1.95.36 4.1 1.77 5.47 1.42 1.37 3.74 1.52 5.8 1.53 35.08.23 70.17.27 105.27.13 1.03 0 2.16-.04 2.92-.73.76-.7.9-1.66 1.03-2.6a319.19 319.19 0 0 0 1.3-84.46l-119.5-1.5ZM95.1 328.3c-.1 16.04-.05 32.12.13 48.13a25.4 25.4 0 0 0 .16 3.21c.14.83.35.9.55.9 3.3.13 6.6.16 9.89.08.1 0 .2-.03.27-.45.06-.51.1-1.02.1-1.53.39-16.37.45-34.08.12-50.51l-11.23.16Z" fill="#32142A"/><path d="M166.7 297.34c-5.34.32-10.84.94-15.73-1.28-4.89-2.21-9.03-6.45-10.13-11.68-1.27-6.03 1.9-12.55 7.1-15.86 5.2-3.31 12.04-3.54 17.75-1.22 1.58.6 3.04 1.49 4.3 2.61 2.55 2.42 3.63 6 4.17 9.48.53 3.4.65 6.95-.42 10.22-1.08 3.27-3.5 6.23-6.75 7.29" fill="#E48929"/><path d="M167.62 309c-4.9-8.55-9.2-17.43-12.88-26.58l6.04-.2c.65-.07 1.3.02 1.9.27.47.31.87.73 1.16 1.22 5.63 8.3 8.66 18.11 14.02 26.6M218.59 247.79c5.94 2.1 10.26 6.91 12.25 9.84 6.8 9.98 6.19 30.43-6.9 36.38-8.09 3.68-22.7 4.72-29.29-1.38-3.7-3.43-8.32-7.89-11.96-18.25" fill="#32142A"/><path d="M230.7 280.68c2.16-4.56 1.4-10 .62-15-.8-5.11-2.37-10.39-6.14-13.93a20.24 20.24 0 0 0-6.29-3.84c-8.39-3.41-18.46-3.07-26.1 1.8-7.64 4.87-12.28 14.45-10.42 23.3 1.62 7.7 7.72 13.93 14.88 17.17-.01-.01 25.51 7.19 33.44-9.5Z" fill="#E48929"/><path d="M198.29 258.23c.2-.58.22-1.2.07-1.8a2.85 2.85 0 0 0-.74-1.68 3.52 3.52 0 0 0-3.9-.23 2.79 2.79 0 0 0-1.27 2.81 3.09 3.09 0 0 0 1.8 2.07s3.07.85 4.04-1.17ZM193.15 271.57c.2-.57.22-1.2.07-1.8a2.9 2.9 0 0 0-.74-1.68 3.5 3.5 0 0 0-3.91-.23 2.78 2.78 0 0 0-1.26 2.82 3.09 3.09 0 0 0 1.8 2.07s3.08.84 4.04-1.18ZM212.67 254.12c.2-.58.22-1.2.07-1.8a2.9 2.9 0 0 0-.74-1.68 3.52 3.52 0 0 0-3.91-.23 2.79 2.79 0 0 0-1.26 2.82 3.1 3.1 0 0 0 1.8 2.07s3.08.85 4.04-1.18ZM226.02 261.3c.2-.57.23-1.2.08-1.79a2.9 2.9 0 0 0-.74-1.68 3.5 3.5 0 0 0-3.91-.23 2.79 2.79 0 0 0-1.26 2.81 3.1 3.1 0 0 0 1.8 2.08s3.07.84 4.03-1.18ZM228.08 275.98c.2-.58.22-1.2.07-1.8a2.9 2.9 0 0 0-.74-1.69 3.5 3.5 0 0 0-3.91-.23 2.78 2.78 0 0 0-1.26 2.82 3.1 3.1 0 0 0 1.8 2.07s3.08.84 4.04-1.17ZM216.78 285.94c.2-.57.22-1.2.07-1.8a2.88 2.88 0 0 0-.74-1.68 3.5 3.5 0 0 0-3.91-.23 2.79 2.79 0 0 0-1.26 2.82 3.09 3.09 0 0 0 1.8 2.08s3.08.83 4.04-1.19ZM201.37 282.87c.2-.58.22-1.2.07-1.8a2.88 2.88 0 0 0-.74-1.68 3.5 3.5 0 0 0-3.91-.23 2.77 2.77 0 0 0-1.26 2.8 3.07 3.07 0 0 0 1.8 2.08s3.08.86 4.03-1.17ZM151.22 274.57c.13-.4.15-.81.05-1.2a1.92 1.92 0 0 0-.5-1.13 2.33 2.33 0 0 0-2.6-.16 1.84 1.84 0 0 0-.83 1.87 2.06 2.06 0 0 0 1.2 1.38s2.06.58 2.68-.76ZM147.8 283.44c.14-.39.16-.8.05-1.2-.03-.42-.2-.82-.49-1.13a2.35 2.35 0 0 0-2.6-.16 1.85 1.85 0 0 0-.84 1.87 2.07 2.07 0 0 0 1.2 1.38s2.05.58 2.68-.76ZM160.78 271.83c.14-.38.16-.8.05-1.2-.04-.42-.21-.8-.5-1.12a1.6 1.6 0 0 0-.5-.3 2.33 2.33 0 0 0-2.1.14 1.84 1.84 0 0 0-.83 1.87 2.06 2.06 0 0 0 1.19 1.38s2.06.58 2.69-.77ZM169.66 276.61c.13-.38.15-.8.05-1.2-.04-.42-.21-.81-.5-1.12a1.68 1.68 0 0 0-.5-.31 2.34 2.34 0 0 0-2.1.14 1.85 1.85 0 0 0-.84 1.88 2.06 2.06 0 0 0 1.2 1.37s2.07.58 2.69-.76ZM171.02 286.36c.14-.38.16-.8.05-1.2-.03-.42-.2-.81-.49-1.12a1.63 1.63 0 0 0-.5-.31 2.34 2.34 0 0 0-2.1.14 1.86 1.86 0 0 0-.84 1.88 2.06 2.06 0 0 0 1.2 1.38s2.05.57 2.68-.77ZM163.51 292.98c.14-.39.16-.8.05-1.2a1.9 1.9 0 0 0-.49-1.12 1.76 1.76 0 0 0-.5-.31 2.34 2.34 0 0 0-2.1.14 1.86 1.86 0 0 0-.84 1.87 2.05 2.05 0 0 0 1.2 1.38s2.04.6 2.68-.76ZM153.27 290.94c.13-.38.15-.8.05-1.2a1.95 1.95 0 0 0-.5-1.12 2.33 2.33 0 0 0-2.6-.16 1.84 1.84 0 0 0-.84 1.87 2.08 2.08 0 0 0 1.2 1.38s2.05.57 2.69-.77Z" fill="#32142A"/><path d="m185.15 309.06 22.97-38.51c.4-.66.82-1.35 1.52-1.67.69-.32 1.54-.2 2.31-.05l5.4 1a255.38 255.38 0 0 0-22 41.12M238.63 307c.22 9.86.44 21.77.67 31.63a93.6 93.6 0 0 0 15.24-11.92c1.11 2.62 2.25 5.29 4.19 7.36 1.94 2.07 4.87 3.45 7.64 2.78 3.37-.82 5.36-4.3 6.39-7.6a30.78 30.78 0 0 0-.42-19.27 4.4 4.4 0 0 0-1.09-1.9c-.71-.62-1.7-.76-2.64-.86l-29.98-.22Z" fill="#32142A"/><path d="M175.17 396.7c-3.37-2.27-4.27-6.8-4.47-10.87-.25-5.19.25-10.66 3.1-15.01.52-.8 1.26-1.63 2.22-1.6 1.6.03 2.1 2.15 2.08 3.74a158.2 158.2 0 0 1-1.8 23.14" fill="#FFC9A0"/><path d="M167.64 407.56c-5.1-4.56-15.24-8.4-18.58-14.38-3.34-5.99-7.56-20.73-3.72-21.07 2.08-.22 6.84 7.28 7.75 11.29-2.99-4.74-2.88-9.28-4.44-16.09-.18-.77.3-5.06.78-5.69 1.77-2.24 4.79 2.79 5.81 5.47 1.02 2.68 2.74 6.38 4.45 8.69a128.02 128.02 0 0 1-3-12.58c-.37-1.98-.68-4.08.04-5.96.72-1.88 2.83-3.39 4.73-2.7 1.6.57 2.38 2.33 2.94 3.93 4.56 13.21 5.52 28.6 15.45 38.45" fill="#FFC9A0"/><path d="M265.17 484.72c.1.5.17.99.25 1.48 0 .14.03.27.05.41 0-.1-.06-.48 0 0l.13 1.02c.16 1.4.3 2.81.42 4.23.28 3.25.5 6.5.68 9.75.4 6.64.67 13.27 1.03 19.9.45 8.5 1.23 16.99 1.88 25.47l2.38 31.25 2.7 35.34a2.48 2.48 0 0 0 2.41 2.42c1.24 0 2.52-1.11 2.42-2.42l-4.8-62.98c-.7-9.14-1.53-18.27-2.07-27.4-.38-6.43-.63-12.86-.99-19.29-.38-6.8-.62-13.73-1.83-20.44-.24-1.29-1.8-2.01-2.98-1.69-1.35.37-1.92 1.68-1.69 2.97l.01-.02ZM279.18 485.83c1.3 23.8 3.42 47.58 5.57 71.34.58 6.33 1.13 12.67 1.66 19.01.1 1.3 1.03 2.42 2.42 2.42 1.22 0 2.53-1.11 2.42-2.42-1.88-22.67-4.22-45.3-5.85-68-.53-7.44-1-14.9-1.4-22.35-.16-3.1-5-3.11-4.83 0h.01ZM294.42 475.87c.66 19.63 2.4 39.22 5.21 58.66.79 5.47 2.5 16.08 3.45 21.52.23 1.29 1.8 2.02 2.97 1.7 1.35-.38 1.92-1.69 1.69-2.98-3.32-18.92-6.44-43.17-7.68-62.34-.36-5.52-.63-11.04-.81-16.56-.1-3.1-4.95-3.12-4.83 0ZM308.28 481.91c2.22 17.1 4.6 34.17 7.16 51.21.72 4.82 2.87 17.56 3.6 22.38.2 1.29 1.8 2 2.97 1.68 1.38-.37 1.89-1.67 1.69-2.97-2.6-16.74-6.45-41.42-8.73-58.21-.64-4.7-1.26-9.39-1.87-14.1-.17-1.28-1-2.4-2.42-2.4-1.17 0-2.58 1.1-2.42 2.4l.02.01ZM325.01 479.2c-1.8 17.96 5.95 55.02 6.82 72.86.16 3.1 4.99 3.12 4.84 0-.9-17.84-8.62-54.9-6.82-72.86.13-1.3-1.2-2.42-2.42-2.42-1.42 0-2.29 1.11-2.42 2.42Z" fill="#FAC7B7"/><path d="M161.4 422.65c4.92-3.96 9.63-8.19 14.1-12.66 1.1-1.1-.6-2.8-1.7-1.7-4.48 4.47-9.19 8.7-14.12 12.66a1.22 1.22 0 0 0 0 1.7 1.24 1.24 0 0 0 1.71 0ZM198.45 462.72a57.9 57.9 0 0 0 15.95-7c1.31-.83.1-2.92-1.22-2.09a55.63 55.63 0 0 1-15.37 6.74c-1.5.4-.86 2.73.64 2.33v.02ZM239.03 444.25c4.25-1.26 7.79 2.44 10.66 4.99l10.22 9.1c1.16 1.04 2.88-.66 1.71-1.7l-11.5-10.25c-3.23-2.86-7.16-5.84-11.73-4.46-1.49.45-.85 2.77.65 2.32Z" fill="#E48929"/><path d="m391.29 551.8-.1-87.75 160.52 34.82a363.74 363.74 0 0 0 1.6 51.17l-162.02 1.76Z" fill="#F7BC28"/><path d="m551.54 521.87-158.31-34.93c21.4 34.14 60.54 56.47 100.84 57.5 10.47.27 20.93-.8 31.35-1.86 7.44-.76 19.5-1.43 26.95-2.19l-.83-18.52Z" fill="#E48929"/><path d="M588.68 252.42a30.09 30.09 0 0 0 4.05-14.06c0-.65.09-1.44.66-1.76.22-.1.45-.16.69-.17l16.63-2.08c2.6 7.14 3.4 14.8 2.33 22.32" fill="#B26D55"/><path d="M538.65 425.7c34.4-7.8 61.63-36.14 75.12-68.73 13.48-32.6 14.86-68.94 11.84-104.06-15.93-1.8-28.32-3.54-44.27-5.31.29 29.58-5.84 42.72-18.83 57.68-12.99 14.97-36.46 31.36-72.76 26.39l48.9 94.03Z" fill="#E48929"/><path d="M612.41 240.66c-10.94 2.56-23.43.82-30.45-3.32-3.67-2.16-9.68-10.63-7.19-16.25.76-1.31 1.75-2.46 2.94-3.4 2.91-1.8 6.25-1.7 9.5-1.56-.13 0-.86-14.17-.9-15.67-.2-5.45-.54-11.6.97-16.9.2-.85.6-1.66 1.13-2.36 2.1-2.53 6.3-.78 7.81 1.53 1.61 2.46 2.02 5.65 2.25 8.53.15 2.82.15 5.65 0 8.46-.1 2.55.18 5.35-.17 7.86.17-1.24.39-2.54.69-3.82 1.11-4.68 7.96-4.49 8.63.3.13.92.2 1.85.22 2.79-.05-2.42 2.32-4.82 4.61-5.28 3.12-.61 5.21 2.47 5.17 4.9.53-2.8 2.74-5.08 5.25-4.12a6.2 6.2 0 0 1 3.3 3.24c.9 2 .88 4.27.6 6.44-.44 3.72-.44 3.75-1.61 7.32-1.32 4.1-2.7 4.74-4.76 4.45 0 0 3.6 14.15-7.99 16.86Z" fill="#B26D55"/><path d="M552.37 407.53c13.2 27.8 36.61 49.19 59.45 69.83l52.6 47.54c1.16 1.04 2.43 2.14 3.98 2.24 1.72.13 3.25-.97 4.6-2.02 14.4-11.08 28.95-22.3 40.32-36.47 11.36-14.18 19.41-31.8 18.66-49.94a1401.33 1401.33 0 0 1-163.04-44.4l-16.57 13.22Z" fill="#FFAB00"/><path d="M580.35 448.6c-5.14 12.37 1.44 26 8.41 36.2a92.31 92.31 0 0 0 10.7 12.92c4.75 4.77 10.63 8.2 17.5 8.5 7.53.32 14.74-2.4 21.12-6.19 1.97-1.16 3.39-3.48 2.25-5.78-.95-1.91-3.67-3.5-5.78-2.24a49.11 49.11 0 0 1-10.25 4.67c1.03-.3-.17.03-.32.07l-.73.17c-1.42.3-2.85.5-4.3.6-1.17.1.9.05-.28 0h-.7a21.93 21.93 0 0 1-3.81-.52 26.53 26.53 0 0 1-1.28-.44c-.68-.26-1.35-.57-2-.87-.15-.08-.7-.41 0 0a21.44 21.44 0 0 1-3.5-2.47 24.2 24.2 0 0 1-.55-.49 86.97 86.97 0 0 1-9.94-11.59 78.48 78.48 0 0 1-2.4-3.5l-.42-.65c-.08-.11-.76-1.22-.22-.32l-1.18-2.03a53.59 53.59 0 0 1-3.71-8.01c-.26-.7-.49-1.41-.7-2.13.28.94.03.13 0-.11-.1-.41-.21-.82-.3-1.24a28.23 28.23 0 0 1-.63-4.39c0-.29-.03-.58-.04-.87.03 1.14.03-.37.04-.58.03-.69.1-1.35.2-2.04.05-.34.12-.67.18-1 .17-1.1-.28.82.04-.24.24-.77.49-1.52.8-2.25a4.38 4.38 0 1 0-8.18-3.17l-.02-.01Z" fill="#FFAB00"/><path d="M655.5 525.67a163.4 163.4 0 0 0 36.5-30.05c10.63-11.83 19.33-25.3 25.03-40.18 3.15-8.3 5.23-16.99 6.17-25.82.29-2.63-2.53-5.15-5.04-5.04-2.98.14-4.72 2.22-5.03 5.04l-.16 1.34c-.16 1.32.1-.56-.05.37-.14.94-.28 1.89-.45 2.83a100.35 100.35 0 0 1-6.22 21.25c-.34.85.36-.8-.15.37a111.92 111.92 0 0 1-6.98 13.53 130.82 130.82 0 0 1-7.88 11.6c-.58.77.45-.56-.16.2l-1.08 1.35a150.92 150.92 0 0 1-19.62 20.13 169.18 169.18 0 0 1-4.94 4.06l-.45.36c-1 .78.53-.4-.06.04l-1.23.94a165.54 165.54 0 0 1-13.27 8.99c-2.25 1.37-3.3 4.57-1.8 6.88 1.5 2.32 4.5 3.28 6.9 1.8l-.04.01Z" fill="#153A23"/><path d="M572.59 481.71c1.76.46.75.3 1.56-1.34.81-1.64 1-3.48 1.62-5.18 1.45-3.95 5.04-6.68 8.6-8.92 8.9-5.6 15.35-3.72 22.18 4.37 6.11 7.24 10.92 17.02 13.78 26 2.02 6.38-3.91 11.11-8.9 13.67-3.57 1.83-7.14 2.9-11.04 1.57-4.25-1.44-7.13-3.91-11.8-3.88-.84 0-10.63.56-10.07 1.6l-5.93-27.89Z" fill="#B26D55"/><path d="M592.9 417.46c26.66 20.64 59.79 30.55 93.13 35.65 3.24.5 6.6.96 9.74 0 3.14-.97 5.96-3.71 5.87-6.98-.14-4.5-5.18-7.02-9.5-8.33-20.96-6.35-42.96-8.09-64.05-13.93-11.04-3.05-20.23-8.2-30.5-12.87-7.23-3.27-12.99.05-4.7 6.46ZM476.65 331.5c-21.04 2.34-56.9 8.83-77.57 34.84-20.68 26.01-28.59 61.86-20.68 94.2 2.25 9.14 8.89 22.75 14.63 30.2 12.8 16.63 32.37 32.9 51.07 38.82 50.67 16.06 92.4 10.88 136.18-11.13 1.1-13.5-.7-36.14-1.35-49.68l-25.4 10.96-13-85.02c-5.2-24.05-30.08-62.45-63.16-63.27a5.8 5.8 0 0 0-.72.08Z" fill="#F7BC28"/><path d="M441.71 405.39c-1.11 20.51 8.39 40.36 22.81 54.58A74.4 74.4 0 0 0 489 476.22c9.5 3.83 19.68 5.84 29.86 6.63 11.7.93 23.16-.97 34.66-3.14l-.23-1.53c-19.47 3.7-40.66 3.6-59.52-2.85-18.52-6.33-33.88-20.41-42.6-37.85-4.94-9.93-7.54-20.98-6.94-32.08.09-1.62-2.43-1.61-2.52 0v-.01ZM385.22 389.2c6.74-11.24 23.89-23.45 37.47-15.44 1.4.82.13 3-1.27 2.17a15.86 15.86 0 0 0-9.9-2.1c-6.64.72-12.67 4.85-17.43 9.31-5.4 5.04-10.4 11.54-13.49 18.22 0 0 3.07-9.6 4.62-12.16Z" fill="#E48929"/><path d="m444.76 298.82 8.13 39.83a21.6 21.6 0 1 0 42.08-9.69l-2.16-8.42-48.05-21.72Z" fill="#A55E4A"/><path d="M422.76 293.26c11.29 5.57 32.73 30.74 49.98 33.16 6.75.95 13.85.7 20.15-1.95 6.3-2.65 11.69-7.93 13.36-14.55 1.6-6.4-.33-13.09-2.25-19.4-5.84-19.21-6.08-36.6-11.93-55.8-.58-1.92-2.7-4.83-4.11-6.23-1.77-1.74-8.54-3.15-11.02-3.3-11.2-.75-22.17 3.28-32.13 8.43-4.89 2.52-6.98 3.41-10.17 6.7-3.83 3.95-12.56 6.62-11.84 16.74l-.04 36.2Z" fill="#B26D55"/><path d="M435.31 282.84c0-3.52-2.88-6.51-6.17-7.75-3.28-1.24-6.92-1.1-10.43-.9-1.62.08-3.29.2-4.75.9-3 1.45-4.35 5.1-4.3 8.43.07 6.32 4.23 12.16 9.74 15.3 5.5 3.15 12.14 3.83 18.43 3.04" fill="#B26D55"/><path d="M444 254.9c-10.03 3.96-23.8 6.48-26.9-2.48-.9-2.54-1.75-5.34-.6-7.78.75-1.57 2.25-2.75 3.7-3.83 19-13.9 41.37-23.32 65.82-20.99 1.45.14 5.06 1.26 6.1 2.19 1.17 1.05 2.17 4.49 2.2 5.96.04 1.35.05 2.7.05 4.05 0 5.73-3.44 6.6-9.63 9.04L444 254.9Z" fill="#153A23"/><path d="M487.98 223.76a34.44 34.44 0 0 0-17.24-18.04c-8.38-3.95-19.33-4.62-27.3-.75a31.1 31.1 0 0 0-7.55 5.4c-10.02 9.31-15.85 21.43-16.31 33.91" fill="#153A23"/><path d="M452.02 328.82a14.91 14.91 0 0 1 10.1 9.43c.6 1.74.85 3.71.1 5.4-.64 1.42-1.9 2.44-3.04 3.5a31.2 31.2 0 0 0-9.13 28.46c.2 1.03.5 2.08 1.2 2.85 1.53 1.7 4.24 1.32 6.46.8l13.94-3.25c2.83-.65 6.14-1.22 8.38.64 4.64 3.85-.82 12.5 3.02 17.15 3.28 3.96 9.5 1.35 14.55.35 1.53-.3 3.33-.35 4.42.78 2.18 2.28.15 7.74 3.26 8.23.75.06 1.49-.15 2.1-.59 4.38-2.74 4.9-8.88 4.3-14.02-.59-5.13-1.76-10.69.77-15.2.82-1.45 2.02-2.82 2.03-4.49.04-3.6-5.4-5.63-5.04-9.23.23-2.42 2.94-3.69 4.32-5.7a5.9 5.9 0 0 0-1.35-7.81M454.72 270.3c-.97.37-2.1 1.17-2.29 1.8-.72 2.39-.94 5.54 0 7.92.58 1.46 2.18 3.07 3.87 2.35 3.16-1.36 2.06-13.47-1.58-12.07ZM484.71 262.96c-3.55 1.37-3.5 6.66-2.28 9.71.57 1.45 2.17 3.07 3.86 2.35 3.14-1.35 2.07-13.48-1.58-12.06Z" fill="#32142A"/><path d="M435.67 301.43c-3.17 4.45-6.42 9.04-7.65 14.38-1.23 5.33-2 11.6 2.43 14.79 3.44 2.49 7.97 2.65 12.13 3.5 4.17.84 8.72 3.05 9.63 7.19a14.42 14.42 0 0 1-1.85 10.89c-2.04 3.38-5.97 19.02.9 26.27.9.97.84-13.93 2.14-13.67 5.06 1 10.14-1.2 15.2-2.21 5.07-1.02 11.42-.19 13.63 4.49 1.72 3.62 1.2 9.43 5.15 10.1 3.25.56 5.25-3.56 5.27-6.85.01-3.3-.65-7.06 1.58-9.48 2.28-2.5 6.3-2.08 9.44-3.33 5.4-2.15 12.74-7.13 8.77-11.38-1.31-1.4-8.7-5.57-9.2-7.43-.62-2.24 1.05-4.49 3.05-5.63 2-1.15 4.33-1.56 6.42-2.53 7.39-3.4 9.77-14.42 4.44-20.56-3-3.47-6.49-4.05-9.04-7.85-4.94-7.4 2.06-13.11-6.92-22.56M421.22 278.81c-2.01-.26-4.15-.22-5.44 1.58-1.09 1.51-1.12 3.56-.73 5.31.88 3.94 4.11 6.86 7.73 8.34 2.36.9 4.84 1.42 7.35 1.54 1.13.09 1.13-1.68 0-1.76-4.36-.31-9.15-1.54-11.85-5.27-1.12-1.55-1.9-3.53-1.66-5.48a3.07 3.07 0 0 1 1.18-2.24c.97-.64 2.33-.4 3.42-.26.47.06.87-.45.9-.9a.9.9 0 0 0-.9-.9v.04Z" fill="#32142A"/><path d="M423.57 283.58a2 2 0 0 0-2.4 1.91c-.04 1.14.74 2.14 1.6 2.8 1.53 1.18 3.53 1.42 5.4 1.59a.9.9 0 0 0 .63-1.53.9.9 0 0 0-.63-.27c-1.28-.11-2.73-.28-3.81-.87a3.23 3.23 0 0 1-1.3-1.23c-.1-.16 0 0-.08-.17 0-.02-.05-.27-.04-.15v-.17c0-.03.05-.26.03-.09l.04-.07c-.06.07-.05.06 0 0l.06-.06c-.07.05-.07.05 0 0a.8.8 0 0 1 .1-.05c-.08.03-.09.04 0 .02.14.05-.3-.06-.04 0a.9.9 0 0 0 .9-.66.9.9 0 0 0-.45-1.03l-.01.03ZM437.35 273.03a11.97 11.97 0 0 0 4.04-1.92l13.48-9.57c2.25-1.61 4.8-4 4-6.65-.84-2.73-5.1-5.5-9.82-3.93-8.7 2.88-14.38 9.92-17 18.7-.02 0-.92 4.9 5.3 3.37ZM493.9 247.83c2.38.45 3.86 3.98 2.66 6.4-1.27 2.57-4.3 2.94-6.88 3.01l-11.56.34c-1.39.03-2.87.05-4.04-.79-1.8-1.26-2.3-4-2.25-6.41a7.39 7.39 0 0 1 .52-2.97c1.13-2.42 4.05-2.74 6.4-2.22 4.94 1.07 10.14 1.7 15.15 2.64Z" fill="#32142A"/><path d="m475.56 273.32 12.27 9.8c1.44 1.15 2.98 2.7 2.07 4.1-.63.99-2.21 1.42-3.65 1.77l-12.93 3.08a3.9 3.9 0 0 1-1.67.14 2 2 0 0 1-1.56-1.3c-1.7-5.65-1.42-9.39-2.18-13.97 0 0-4.62-13.43 7.65-3.62Z" fill="#C05929"/><path d="M461.6 307.39c4.89 4.39 11.63 6.01 18.16 5.28 2.75-.31 5.53-.9 7.88-2.35a11.97 11.97 0 0 0 4.52-14.4c-.2-.44-.49-.95-.98-1.04-.24-.03-.48 0-.72.07a234.88 234.88 0 0 0-27.11 8.99s-4.4 1.07-1.75 3.45Z" fill="#B26D55"/><path d="M469.7 307.48c2.13.78 4.4 1.15 6.68 1.1 2.6-.15 5.11-1.07 7.2-2.64.9-.67 0-2.2-.9-1.52a11.47 11.47 0 0 1-6.52 2.4 16.9 16.9 0 0 1-6.03-1.04c-1.07-.37-1.53 1.35-.44 1.7Z" fill="#32142A"/><path d="M447.8 304.17c-3.05 3.96-6.17 12.76-4.2 17.87 1.68 4.34 6.14 2.59 10.25 3.6 4.81 1.2 9.84 3.19 10.34 6.37 1.5 9.48-4.3 13.4-8.1 17.88-3.98 4.7-6.5 13.15-4.27 19.54 0 0 1.46-6 1.53-6.96.64-8 1.7-9.28 5.54-13.73 3.48-4.02 6.48-6.71 7.1-12.2.52-4.65-1.94-10.5-3.73-11.1-4.05-1.34-10.7-1.53-14.3-3.95-6.07-4.08-2.36-13.27 1.02-17.66.73-.95-.45-.61-1.17.32l-.01.02ZM489.46 381.98c-1.73 1.11-3.84.74-5.46-.45-1.8-1.31-2.62-3.5-2.92-5.64-.66-4.66 1.62-7.53.62-12.18-.07-.3-.74-2.05-1.53-2.44-1.94-.96-4.22-.97-6.34-1.45-1.35-.31-5.55-.67-4.5-2.91.36-.73 1.14-1.35 1.68-1.94.54-.58 1.13-1.3 1.66-1.99 1.1-1.4 7.03-8.32 7.78-9.94 4.04-8.73.82-12.03-1.23-14.37-.8-.9-2.02-2.49-1.8-1.3 1.46 8.03-1.25 18.13-6.21 24.48-1.54 1.97-6.42 6.44-4 7.74a26.1 26.1 0 0 0 5.54 1.89l6.92 1.59-.66-.65c1.23 5.65-1.5 15.44.86 18.38.94 1.18 9.89 4.67 10.95 1.59.4-1.13-.36-1.07-1.37-.42l.01.01ZM497.03 292.49l-.08 8.62c-.03 2.4-.42 5.16.24 7.5 1.25 4.45 6.57 4.19 9.06 7.41.79 1.02 1.21 2.4.12 3.4-.81.75-2 1.03-2.99 1.48a15.84 15.84 0 0 0-4.68 3.34 15.33 15.33 0 0 0-4.5 9.76c-.08 2.03.36 4.04 1.29 5.84 1.02 2.08 3.37 5.02 1.65 7.26-.72.95.9 1.88 1.61.94 2.74-3.6-1.5-7.64-2.4-11.07-1.07-4.11.8-8.49 3.68-11.42 1.53-1.57 5.66-2.03 7.64-2.88 1.66-.7 2.31-3.74 2.36-5.7.04-1.66-5.88-4.47-8.78-6.2-3.03-1.8-2.5-5.05-2.47-8.13l.1-10.15c0-1.2-1.85-1.2-1.87 0h.02ZM486.9 354.68c.21 4 .73 4.85 2 8.68.61 1.84 2.28 3.86 3.7 5.5 1.36 1.5 3.25 3.82 4.11 5.66.51 1.1.27-.86-.24-1.94-.81-1.74-2.04-3.18-3.15-4.72a32.31 32.31 0 0 1-3.55-6.56c-1.22-3.68-.16-9.46-.35-13.3-.06-1.19-2.25 2.25-2.2 3.45l-.31 3.23ZM597.15 214.13v4.94c0 1.35.2 2.64 1.25 3.6 1.88 1.7 4.6 1.34 6.43-.2 2.13-1.8 2.76-4.67 3.18-7.28.45-2.69.64-5.42.59-8.15-.03-1.13-1.8-1.13-1.77 0 .05 2.24-.08 4.47-.38 6.69-.28 2.16-.6 4.61-1.89 6.44-1.07 1.52-3.26 2.65-4.91 1.25-.94-.8-.73-2.17-.73-3.27v-4.05a.9.9 0 0 0-1.76 0v.03Z" fill="#7F4341"/><path d="M606.02 220.6c1.19 1.88 2.65 3.91 5.05 4.22 2.1.27 3.97-1.16 4.94-2.95 1.1-2.08 1.52-4.62 1.96-6.9.56-2.6.74-5.26.53-7.9-.1-1.13-1.87-1.13-1.76 0 .4 4.1-.45 8.36-1.61 12.28-.45 1.53-1.35 3.42-3.15 3.72-2.09.35-3.5-1.87-4.44-3.36-.6-.96-2.13-.07-1.52.9v-.01Z" fill="#7F4341"/><path d="M615.65 219.6a5.47 5.47 0 0 0 4.4 4.76.9.9 0 0 0 .75-1.43.9.9 0 0 0-.68-.37 2.63 2.63 0 0 1-.47-.14l-.08-.03.09.04c-.1-.06-.2-.1-.3-.14l-.26-.15c-.1-.06-.19-.12-.27-.19-.09-.06 0-.02.03 0 0-.03-.1-.07-.13-.1-.16-.14-.31-.29-.45-.45l-.1-.12-.04-.04.03.04c0-.06-.13-.19-.17-.24a4.44 4.44 0 0 1-.37-.69 4.7 4.7 0 0 1-.18-.62l-.02-.14c-.04-.22 0 .17 0 0-.01-.23-.1-.45-.26-.62a.9.9 0 0 0-.63-.26c-.44 0-.93.4-.9.9v-.01Z" fill="#7F4341"/><path d="M587.28 216.24c5.3 0 10.55 1.05 15.44 3.11.98.36 1.88.91 2.63 1.64 1.28 1.41 1.35 3.66.48 5.34a7.35 7.35 0 0 1-4.4 3.4c-1.84.5-3.75.68-5.65.52-3.82-.18-7.6-.86-11.24-2.03" fill="#B26D55"/><path d="M587.28 217.12c3.89 0 7.76.59 11.48 1.72 3.03.94 8.04 2.35 6.52 6.56-1.27 3.53-5.72 4.09-8.93 3.99a42.48 42.48 0 0 1-11.56-2.02c-1.09-.34-1.55 1.35-.45 1.7a45 45 0 0 0 10.67 2.02c3.15.2 6.63.12 9.31-1.8 2.25-1.6 3.66-4.41 2.7-7.14-1.05-3.08-4.81-4.08-7.6-4.94a41.06 41.06 0 0 0-12.13-1.86c-1.14 0-1.14 1.76 0 1.77h-.01Z" fill="#7F4341"/><path d="M497.32 411.13c1.75.3 1.94 3.1 2 4.55 0 1.62-.25 3.22-.73 4.77-.2.67-.38 1.35-.61 2.02-.12.47-.36.9-.7 1.23-.77.53-1.9-1.44-2.23-1.95a11.98 11.98 0 0 1-1.75-7.83c.03-.2.06-.4.11-.6 0-.05.05-.11.07-.17.06-.18-.05.11-.06.12l.1-.2c.23-.54.6-1 1.07-1.36.9-.63 1.96-.69 3.07-.55.68.09 1.26-.64 1.26-1.26a1.29 1.29 0 0 0-1.26-1.25c-2.49-.31-4.95.66-6.19 2.9-1.14 2.03-.9 4.74-.45 6.92.38 1.77 1.1 3.45 2.11 4.94.98 1.42 2.34 3.15 4.27 2.87 1.7-.23 2.58-1.87 3.07-3.34a25.2 25.2 0 0 0 1.35-6.06c.18-2.78-.39-7.6-3.82-8.19a1.3 1.3 0 0 0-1.55.9 1.27 1.27 0 0 0 .87 1.54ZM496.1 447.58c-.23 2.95.14 6.3 1.38 9.02 1.03 2.24 3.74 3.95 6.1 2.44 2.85-1.83 2.46-6.05 2.3-8.99-.14-2.93-.03-6.81-3.25-8.26a4.13 4.13 0 0 0-4.85.98c-1.17 1.32-1.53 3.09-1.69 4.8a1.26 1.26 0 0 0 1.26 1.25 1.28 1.28 0 0 0 1.26-1.26c.13-1.45.82-4.44 2.94-3.52 2.12.92 1.72 4.1 1.8 5.89.12 1.44.12 2.9 0 4.33-.1.9-.31 1.95-1 2.53-.18.13-.37.22-.58.27-.26.04-.52 0-.76-.11-.31-.16-.58-.37-.8-.64-.22-.3-.4-.62-.57-.96a17.5 17.5 0 0 1-1.06-7.79 1.26 1.26 0 0 0-1.26-1.26 1.25 1.25 0 0 0-1.16.78c-.07.15-.1.32-.1.48l.03.02ZM573.76 515.3v-34.4c0-1.61-2.52-1.62-2.52 0v34.4c0 1.61 2.52 1.62 2.52 0Z" fill="#E48929"/><path d="M586.8 258.04c11.6.5 23.16 1.6 34.64 3.31 1.59.23 2.25-2.19.67-2.43a338.1 338.1 0 0 0-35.31-3.4c-1.63-.06-1.62 2.46 0 2.52Z" fill="#F7BC28"/><path d="M421.09 241.96c1.3 2.32 2.73 4.57 4.04 6.9a47.2 47.2 0 0 1 2.36 4.74c.3.74.58 1.48.84 2.22a1.73 1.73 0 0 0 2.08 1.18 1.7 1.7 0 0 0 1.17-2.07 47.82 47.82 0 0 0-3.46-7.64c-1.35-2.36-2.8-4.66-4.13-7.03a1.67 1.67 0 0 0-1.7-.88 1.7 1.7 0 0 0-1.45 1.95c.04.22.12.44.24.63ZM430.35 237.7l9.1 15.17a1.67 1.67 0 0 0 1.7.85 1.7 1.7 0 0 0 1.4-1.26 1.67 1.67 0 0 0-.19-1.29l-9.1-15.16a1.67 1.67 0 0 0-1.7-.89 1.71 1.71 0 0 0-1.14.67 1.7 1.7 0 0 0-.07 1.91ZM441.69 232.96c1.72 5.28 4.18 10.38 6.25 15.4.34.84 1.11 1.44 2.07 1.18.8-.22 1.53-1.23 1.18-2.07-1.1-2.66-2.27-5.27-3.42-7.9l-.33-.78c-.16-.36.06.17-.08-.16l-.18-.45-.72-1.8a92.01 92.01 0 0 1-1.52-4.31 1.73 1.73 0 0 0-2.08-1.18 1.7 1.7 0 0 0-1.17 2.07ZM452.07 229.75a104.22 104.22 0 0 1 9.49 16.97c.37.83 1.58 1.02 2.3.6.86-.5.98-1.47.61-2.3-2.63-5.94-5.8-11.61-9.48-16.96a1.73 1.73 0 0 0-2.3-.6 1.7 1.7 0 0 0-.62 2.3ZM463.44 227.49a64.93 64.93 0 0 1 6.33 13 1.72 1.72 0 0 0 2.07 1.18 1.7 1.7 0 0 0 1.18-2.07 68.7 68.7 0 0 0-6.67-13.81 1.73 1.73 0 0 0-2.3-.6 1.7 1.7 0 0 0-.61 2.3ZM475.74 223.78c.1 5.14.8 10.26 2.07 15.25a1.68 1.68 0 0 0 3.25-.9 63.17 63.17 0 0 1-1.95-14.38 1.69 1.69 0 0 0-3.37 0v.03ZM483.37 222.46c1.53 4.68 3.29 9.27 5.28 13.78.37.83 1.59 1.03 2.3.6.87-.5.98-1.46.61-2.3-1.86-4.23-3.5-8.57-4.94-12.98a1.73 1.73 0 0 0-2.08-1.18 1.7 1.7 0 0 0-1.18 2.08h.01ZM446.42 227.4s22.43-6.97 39.56-7.58c0 0-2.16-3.94-4.66-6.36l-34.9 13.94Z" fill="#122D1C"/><path d="M640.87 71.07c.14-4.9 1.17-9.74 3.05-14.27.2-.47.54-1.03 1.05-.98.5.05.7.56.85 1 .97 3 1.63 6.09 1.95 9.22 0 .46.15.92.45 1.27.66.6 1.66 0 2.37-.5a25.71 25.71 0 0 1 8.17-4.13c-.4 3.75-4.47 5.92-6.25 9.25-.21.33-.32.72-.3 1.12.12.45.37.84.73 1.14l8.03 8.05c-3.86 1.06-7.78-1.1-11.2-3.14.11 4.66-.35 9.32-1.38 13.87a36.82 36.82 0 0 1-4.75-11.47l-6.74 5.33a12.47 12.47 0 0 1 2.94-6.4c.48-.54 1.04-1.15.99-1.87-.06-.72-.73-1.25-1.35-1.67l-9.58-6.5a2.22 2.22 0 0 1 2.87-.42l8.1 1.1ZM37.02 410.68c.13-4.9 1.17-9.75 3.05-14.28.2-.47.53-1.02 1.05-.97.51.05.7.56.85 1 .97 3 1.62 6.08 1.95 9.21-.01.47.15.92.45 1.28.65.58 1.66 0 2.36-.52a25.72 25.72 0 0 1 8.18-4.12c-.4 3.76-4.47 5.93-6.25 9.26-.22.33-.32.72-.3 1.11.12.45.37.85.73 1.14l8.02 8.05c-3.85 1.07-7.77-1.09-11.19-3.14.11 4.67-.36 9.32-1.39 13.88a36.85 36.85 0 0 1-4.74-11.48l-6.74 5.33a12.42 12.42 0 0 1 2.94-6.4c.47-.54 1.04-1.14.98-1.86-.05-.73-.73-1.26-1.35-1.67l-9.55-6.53a2.21 2.21 0 0 1 2.87-.42l8.08 1.13Z" fill="#FAC7B7"/><path d="M255.68 19.23c.14-4.9 1.17-9.75 3.06-14.28.2-.45.53-1.03 1.04-.98.5.05.7.57.85 1.01.97 3 1.62 6.08 1.95 9.2 0 .47.15.93.45 1.28.66.6 1.67 0 2.37-.5a25.7 25.7 0 0 1 8.17-4.13c-.4 3.75-4.46 5.92-6.25 9.25-.2.34-.3.73-.28 1.13.12.45.37.85.73 1.14l8.02 8.05c-3.85 1.07-7.78-1.09-11.18-3.14.1 4.66-.36 9.32-1.4 13.87a36.68 36.68 0 0 1-4.74-11.47l-6.71 5.3a12.52 12.52 0 0 1 2.94-6.4c.48-.54 1.04-1.15.99-1.87-.06-.72-.73-1.25-1.35-1.67l-9.6-6.5a2.24 2.24 0 0 1 2.88-.42l8.06 1.13ZM621.87 119.02c.08-2.82.68-5.6 1.76-8.21.11-.27.3-.59.6-.56.29.03.4.32.49.58.56 1.72.93 3.5 1.12 5.29 0 .27.09.53.26.74.38.33.96 0 1.35-.3a14.7 14.7 0 0 1 4.7-2.37c-.23 2.16-2.57 3.4-3.6 5.32-.12.19-.18.41-.17.64.07.26.22.49.42.66l4.64 4.62c-2.21.6-4.47-.63-6.43-1.82.06 2.68-.2 5.36-.8 7.97a21.17 21.17 0 0 1-2.72-6.6l-3.87 3.07c.2-1.36.79-2.64 1.69-3.67.32-.27.53-.66.57-1.08-.03-.42-.42-.72-.77-.96l-5.5-3.74a1.27 1.27 0 0 1 1.64-.24l4.62.66Z" fill="#F7BC28"/><path d="M672.75 271.25a14.43 14.43 0 0 0 11.24-10.07c1.56-5.46-.31-12.05-5.2-15.23a8.49 8.49 0 0 0-8.16-.62 6.53 6.53 0 0 0-3.68 7.03c.45 3 3.1 4.98 6.1 4.94 2.77-.05 5.6-1.35 8.02-2.6a32.37 32.37 0 0 0 12.67-11.86 2.24 2.24 0 0 0-3.88-2.27c-.27.45-.56.9-.86 1.35-.15.21-.3.45-.45.64l-.25.36c-.08.1-.4.52-.08.1a31.56 31.56 0 0 1-4.53 4.64l-.62.5c-.28.22.43-.32-.03.02l-.28.21a30.82 30.82 0 0 1-5.62 3.24l-.33.14c.45-.19.09-.04-.03 0l-.9.35a18.56 18.56 0 0 1-2.31.66c-.45.09-.03 0 .04 0-.19.04-.37.05-.56.03h-.45c-.33 0 .5.15-.02 0-.19-.04-.74-.26-.33-.05l-.32-.16c-.1-.07-.42-.17-.11-.07s.03 0-.08-.1l-.1-.1.1.13c0-.05-.24-.4-.28-.47-.22-.4.07.36.04.09a6.46 6.46 0 0 1-.16-.6c-.1-.4.05.14 0 .17.02-.24.02-.47 0-.7 0-.46-.12.37 0 .1.04-.1.05-.23.08-.35l.09-.27c.1-.39-.03.15-.07.15.11 0 .2-.6.35-.6 0 0-.37.4-.05.08l.33-.33c.3-.3-.08.03-.1.05.06-.08.25-.16.33-.21.19-.14.4-.25.63-.33-.04 0-.5.17-.1.05l.3-.09.38-.1.24-.04-.2.03c.24 0 .47-.03.72-.03h.31c.53 0-.37-.08-.04 0l.7.17.33.1c.53.17-.4-.21.09.03.23.12.45.23.67.37.15.09.54.26.64.45-.14-.24-.22-.19-.06-.04l.32.29c.21.2.42.4.6.61l.29.32c.1.11.2.1-.04-.05a12.58 12.58 0 0 1 1.25 2.14c-.2-.45-.02-.06 0 .05l.16.45a10.75 10.75 0 0 1 .4 1.48l.08.45c.09.48-.03-.4 0 .12.03.53.08 1.09.07 1.63 0 .24-.02.49-.04.72 0 .12-.02.25-.04.36.16-.51 0 0 0 .12-.12.66-.28 1.3-.5 1.93l-.13.33c-.21.56.2-.4-.06.13a12.14 12.14 0 0 1-.82 1.45l-.24.34c-.07.11-.38.5-.17.24l-.14.16-.33.37a12.03 12.03 0 0 1-1.2 1.14l-.26.2c.45-.31.03-.02-.08.05-.5.35-1.02.66-1.56.94l-.3.14-.22.1.15-.06a11.73 11.73 0 0 1-2.55.7c-1.16.2-1.92 1.7-1.57 2.77.41 1.26 1.52 1.8 2.76 1.57v-.08Z" fill="#39B55D"/><path d="M58.64 521.32a12.26 12.26 0 0 1 .52-1.52c-.05 0-.2.45-.05.13a17.4 17.4 0 0 1 1.48-2.57l.28-.38-.11.15c.07-.05.14-.18.2-.25.43-.52.9-1.03 1.39-1.5l.76-.69.37-.3.19-.15c-.15.18-.27.2 0 0a16.45 16.45 0 0 1 2.56-1.54l.45-.2c.28-.13-.4.16-.1.05l.28-.1a13.5 13.5 0 0 1 1.91-.57l.45-.09c.08 0 .15-.01.22-.03 0 0-.47.05-.22.03.35-.03.7-.06 1.06-.07h.9c.17 0 .36.05.53.05 0 0-.47-.08-.22-.03l.3.05a9.34 9.34 0 0 1 1.42.38c.15.06.6.24.32.11-.29-.12.14.08.22.11l.32.17.26.17c.09.06.45.32.11.07-.33-.25.04.04.1.1.07.05.16.14.23.22.17.16.3.35.45.52.15.16-.2-.27-.19-.25.04.07.08.13.13.18l.18.27a7.45 7.45 0 0 1 .5.95c-.12-.11-.2-.52-.06-.14.08.23.16.45.22.7.06.25.06.41.12.6-.05-.18-.05-.57-.03-.19v.4c0 .13-.04.4-.03.58 0-.17.1-.58 0-.22l-.1.36a2 2 0 0 0-.08.26c.02-.15.25-.51.07-.2l-.14.24c-.23.43.27-.27.09-.08-.15.12-.28.25-.4.4.12-.18.44-.32.09-.1-.1.07-.22.12-.32.18-.3.18.5-.17.14-.06l-.33.1-.4.1c-.48.1.4 0 .02 0-.26 0-.5.03-.76.02h-.31c-.45-.02.47.1.15 0-.2-.05-.4-.08-.6-.15-.1-.02-.19-.07-.28-.09a6.07 6.07 0 0 1-.37-.23l-.23-.17c-.05-.02.45.39.13.1l-.45-.42-.2-.22-.09-.1c-.2-.22.16.2.17.22-.22-.38-.49-.71-.69-1.1-.1-.2-.19-.41-.3-.61a14.54 14.54 0 0 1-.8-3.09c.02-.1-.06-.52.02-.1.07.42 0 0 0-.1a24.84 24.84 0 0 1-.14-2.31c0-.96.08-1.9.16-2.86 0-.15-.09.6-.03.18l.06-.35.11-.62a12.57 12.57 0 0 1 .47-1.66l.08-.21c.1-.29-.27.57-.1.23a16.78 16.78 0 0 1 1.33-2.2l-.1.12.16-.2a16.3 16.3 0 0 1 1.5-1.56l.4-.34.26-.21c.24-.2 0-.06-.06.04.07-.2.67-.45.84-.59.34-.21.68-.41 1.03-.6l.9-.45c.29-.14 0-.08-.07.03 0-.04.2-.08.24-.1a12.46 12.46 0 0 1 2.7-.72c1.16-.19 1.91-1.7 1.57-2.76-.41-1.27-1.52-1.77-2.77-1.57-5.94.95-11.65 5.8-12.78 11.83a22.95 22.95 0 0 0-.28 6.81c.26 2.38.8 4.84 2.12 6.88a7.7 7.7 0 0 0 6.15 3.73c2.87.14 5.7-1.38 6.5-4.24.68-2.47-.17-5.2-1.7-7.19-1.92-2.48-5.03-3.6-8.09-3.6a15.57 15.57 0 0 0-9.1 3.1 18.87 18.87 0 0 0-6.25 7.4 16.3 16.3 0 0 0-.9 2.39 2.24 2.24 0 1 0 4.34 1.2v.04Z" fill="#F7BC28"/><path d="M140.9 217.83a20.17 20.17 0 0 1-2.57-4.51c-.02-.05-.06-.2-.1-.23.08.06.16.38.04.08a35.2 35.2 0 0 1-1.92-6.15 37.3 37.3 0 0 1-.45-2.42l-.02-.24-.11-1.02c-.1-1.22-.1-2.45 0-3.67.03-.41-.1.49 0 .1l.07-.36c.05-.26.12-.52.2-.78l.12-.3c.12-.35-.23.45-.06.14l.31-.58.16-.24c.21-.34-.21.24-.12.15s.26-.31.4-.45c.15-.14.6-.51.25-.24-.35.28.17-.1.29-.17l.45-.24c.3-.15-.54.2-.22.1l.28-.1a6 6 0 0 1 .5-.13l.3-.06c.3-.07-.64.05-.22.03.35-.02.7-.02 1.06 0 .37.03-.13 0-.26-.04l.25.04.53.13.51.17c.31.1-.52-.25-.23-.1l.26.13a5.13 5.13 0 0 1 .63.4 5.58 5.58 0 0 1 .21.23l.16.18c.27.3-.28-.42-.13-.17.09.15.18.27.26.42l.11.22c.15.25-.2-.58-.08-.2l.15.48c0 .09.03.17.05.26.07.17-.05-.4-.05-.38 0 .02 0 .15.02.22V199.37c0 .21.07-.39.05-.35-.01.03 0 .13-.03.2a9.03 9.03 0 0 1-.25.93l-.06.17c-.1.28.19-.35.04-.11l-.22.4c-.09.12-.12.15-.17.24-.12.23.12-.18.13-.16.03.12-.58.6-.68.7-.03 0-.13.14-.17.14-.03 0 .37-.26.15-.13-.12.08-.24.18-.37.25-.29.18-.58.34-.88.48-.38.19.37-.13-.03 0l-.45.16a13.6 13.6 0 0 1-1.93.48l-.22.03.24-.03c-.17 0-.37.04-.55.05-.63.05-1.28.05-1.92 0l-.52-.05.22.02a15.52 15.52 0 0 1-2.95-.82c-.24-.08.2.08.2.09l-.21-.1-.4-.19c-.31-.15-.62-.32-.9-.5-.3-.18-.5-.3-.75-.48l-.36-.26c-.22-.14.17.13.16.13l-.24-.19c-.5-.4-.96-.85-1.4-1.32l-.58-.67c-.27-.32.23.33 0 0l-.3-.42c-.35-.52-.67-1.05-.94-1.6l-.2-.41a1.56 1.56 0 0 1-.12-.27s.17.45.09.19l-.33-.9a15.4 15.4 0 0 1-.45-1.86l-.04-.45a12.43 12.43 0 0 1 .02-2.03c0-.1.07-.6.03-.26l.06-.35c.2-1.15-.31-2.47-1.57-2.76-1.1-.25-2.55.33-2.77 1.57a15.58 15.58 0 0 0 1.31 9.68 15.92 15.92 0 0 0 6.16 6.62 15.03 15.03 0 0 0 9.02 2.1c3.28-.33 6.96-1.6 8.62-4.69 1.16-2.17 1.34-4.97.03-7.13a7.33 7.33 0 0 0-4.9-3.29 7.95 7.95 0 0 0-6.47 1.58c-2 1.59-2.78 4.1-2.92 6.57-.1 3.1.29 6.21 1.13 9.2a34.16 34.16 0 0 0 3.56 8.9c.34.58.72 1.13 1.11 1.66.71.93 1.97 1.51 3.08.8.92-.6 1.56-2.07.8-3.07v-.03Z" fill="#39B55D"/><path d="M461.95 151.53c8.19 1.85 17.48-2.57 20.92-10.33a11.8 11.8 0 0 0 1.08-6.79 5.96 5.96 0 0 0-4.56-4.94c-2.75-.53-5.53.78-7.56 2.57a4.63 4.63 0 0 0-1.62 4.26c.22 1.35 1.24 2.43 2.37 3.15 1.22.68 2.54 1.17 3.92 1.47a40.34 40.34 0 0 0 13.59 1.2c1.16-.1 2.3-.96 2.24-2.24-.05-1.13-1-2.36-2.25-2.25a37.98 37.98 0 0 1-7.7-.08l-.22-.03-.23-.03a39.46 39.46 0 0 1-6.5-1.56c-.26-.09-.08.07.1.05-.1-.03-.19-.08-.28-.14-.18-.1-.36-.2-.54-.32-.38-.23.1.07.1.08-.02.01-.19-.17-.23-.2-.31-.27.13.08.08.13-.04.04-.12-.24-.14-.24.06 0 .17.47.07.15-.09-.32 0 .13 0 .18 0-.12.05-.41-.02.12.05-.38-.14.16 0 0 .04-.06.25-.36.06-.13-.2.24.06-.04.1-.1.06-.04.34-.39.46-.4-.2.02-.26.18-.04.03l.29-.2c.25-.17.5-.33.77-.48l.57-.29c.29-.14-.35.12-.04 0l.34-.11.68-.18c.3-.1-.4 0-.09 0 .15 0 .29-.03.45-.03h.34s-.55-.13-.1 0l.32.09c.28.08.09-.06-.06-.03.05 0 .25.14.28.16.2.1.03.1 0 0l-.11-.1.16.13.24.24c.28.27-.11-.09-.1-.13.01-.04.13.2.15.23l.13.24c.2.32-.07-.11-.06-.16-.02.08.16.45.18.53.02.09.16.77.1.42-.06-.36 0 .27 0 .36v.53c0 .2-.03.4-.05.6-.03.4 0-.1 0-.15a10.23 10.23 0 0 1-.38 1.53l-.2.58-.09.2c.14-.52.05-.11 0 .03a14.9 14.9 0 0 1-1.21 2.14l-.36.5c-.09.12-.13.31.08-.1a18.28 18.28 0 0 1-1.88 2.01l-.46.42-.23.2-.14.1-.33.24-.51.34c-.37.24-.74.45-1.12.68-.39.22-.82.45-1.25.62-.08.04-.2.07-.28.12.2-.12.33-.14.04-.02-.21.09-.45.17-.65.24-.88.31-1.78.54-2.7.7l-.3.04c-.53.1.52-.05 0 0a14.07 14.07 0 0 1-2.06.1c-.46 0-.9-.05-1.39-.1-.3-.02.45.08.15 0l-.38-.05c-.26-.04-.5-.1-.76-.15-1.15-.26-2.49.34-2.76 1.57-.26 1.14.34 2.48 1.56 2.76l.02.02Z" fill="#F7BC28"/></g><defs><clipPath id="a"><path fill="#fff" transform="translate(0 -30)" d="M0 0h738v580H0z"/></clipPath><filter id="b" x="-4" y="-30" width="746" height="588" filterUnits="userSpaceOnUse" color-interpolation-filters="sRGB"><feFlood flood-opacity="0" result="BackgroundImageFix"/><feColorMatrix in="SourceAlpha" values="0 0 0 0 0 0 0 0 0 0 0 0 0 0 0 0 0 0 127 0" result="hardAlpha"/><feOffset dy="4"/><feGaussianBlur stdDeviation="2"/><feComposite in2="hardAlpha" operator="out"/><feColorMatrix values="0 0 0 0 0 0 0 0 0 0 0 0 0 0 0 0 0 0 0.25 0"/><feBlend in2="BackgroundImageFix" result="effect1_dropShadow_1_26"/><feBlend in="SourceGraphic" in2="effect1_dropShadow_1_26" result="shape"/></filter></defs></svg>