<svg width="110" height="42" fill="none" xmlns="http://www.w3.org/2000/svg"><path d="M8.84 20.54c0-6 3.88-10.44 9.66-10.44 4.57 0 8.28 2.78 8.28 5.57 0 1.17-.78 1.96-2.07 1.96-3.15 0-3.02-5.75-7.16-5.75-2.33 0-4.44 2.3-4.44 6 0 5.84 3.4 9.67 6.94 9.67 2.93 0 4.61-2.13 5.52-3.7.47-.6 1.51-.43 1.38.48-.3 3.7-2.97 7.18-8.2 7.18-5.51 0-9.91-5.3-9.91-10.97ZM28.37 30.73v-.13c0-.74 1.12-.96 1.12-2.22V13.93c0-1.3-1.12-1.61-1.12-2.22v-.13c0-.3.22-.44.56-.61l3.67-1.83c.77-.4 1.2.04 1.2.52v18.67c0 1.22 1.26 1.48 1.26 2.22v.13c0 .3-.3.53-.7.53h-5.3c-.43 0-.69-.18-.69-.48ZM49.5 27.07c-.17 1.7-2.15 4.44-5.9 4.44-4.06 0-7.03-2.96-7.03-7.49a7.02 7.02 0 0 1 6.8-7.22h.22c3.8 0 5.52 2.22 5.52 4.18.05.87-.47 1.65-1.29 1.96l-6.47 2.96a4.14 4.14 0 0 0 3.84 2.56c1.34.05 2.59-.6 3.32-1.7.35-.43 1-.3 1 .31Zm-8.92-5.05c0 .87.08 1.7.3 2.53l3.75-1.92c.52-.26.82-.82.78-1.4 0-1.04-.78-3.12-2.33-3.12s-2.5 1.7-2.5 3.91ZM62.52 19.5c0 1.22-.47 2.3-1.85 2.3-2.29 0-1.25-2.52-2.85-2.52-1.12 0-1.55 1.61-1.55 3.22v5.88c0 1.22 1.47 1.48 1.47 2.22v.13c0 .35-.26.52-.65.52h-5.35c-.43 0-.69-.17-.69-.52v-.13c0-.74 1.13-.96 1.13-2.22v-6.84c0-1.3-1.34-1.39-1.34-2.13v-.13c0-.3.21-.52.6-.7l3.5-1.65c.64-.3.94.04.94.61v2.22c.65-1.87 2.03-2.92 3.97-2.92 1.38-.08 2.59 1 2.67 2.4v.26ZM79.6 30.64v.09c0 .35-.22.52-.6.52h-5.44a.48.48 0 0 1-.56-.48v-.09c0-.74 1.08-.91.6-1.6l-3.14-4.49-1.73 1.61v2.22c0 1.22 1.25 1.48 1.25 2.22v.13c0 .3-.25.52-.69.52h-5.34c-.39 0-.65-.21-.65-.52v-.13c0-.74 1.12-.96 1.12-2.22v-14.5c0-1.3-1.3-1.6-1.3-2.21v-.13c0-.3.22-.44.61-.61l3.88-1.83c.7-.35 1.17.04 1.17.52v14.28l4.61-4c.86-.75-.69-1.49-.69-2.18v-.13c0-.3.22-.53.6-.53h4.14c.35 0 .6.18.6.48v.13c0 .74-1.41 1.22-2.5 2.18l-2.36 2.22 4.87 6.92c.47.65 1.55.91 1.55 1.61ZM79.6 28.07c0-1.13.78-1.6 1.72-1.6 2.55 0 1.56 3.87 4.49 3.87 1.2 0 2.11-.61 2.11-1.96 0-3.92-8.1-1.48-8.1-7.27 0-2.48 2.41-4.31 5.9-4.31 3.67 0 6 1.7 6 3.53-.05.87-.78 1.56-1.6 1.52-2.41 0-1.55-3.83-4.1-3.83a1.82 1.82 0 0 0-1.9 1.83v.13c0 4 7.94 1.65 7.94 7.27 0 2.39-2.33 4.22-6.2 4.22-3.8 0-6.26-1.57-6.26-3.4Z" fill="#133A23"/><path d="M108.53 17.58v.13c0 .74-.9 1-1.46 2.31l-5.52 12.1c-.95 2.09-3.36 7.27-6.38 7.27-2.63 0-4.27-1.61-4.27-3.14-.05-.9.64-1.7 1.55-1.74h.22c2.37 0 1.63 3.53 3.14 3.53 1.04 0 3.1-3.96 3.93-5.96l-5.82-12.06c-.65-1.3-1.56-1.57-1.56-2.3v-.14c0-.3.26-.48.6-.48h5.44c.26-.04.52.18.56.48v.18c0 .74-1.08.82-.43 2.35l3.4 7.96 3.15-7.53c.78-1.82-1.29-2.04-1.29-2.74v-.13c0-.3.22-.52.6-.52h3.54c.34-.05.6.17.6.43Z" fill="#133A23"/><path d="M4.57 18.58c.04.05 0 .14-.04.18-.05.04-.13 0-.17-.04-.87-1.22-2.55-4.23-2.42-9.23 0-1.48.3-2.96.86-4.35.48-1.14 1.77-3 3.24-2.4 1.46.61-.56 2.87-1 3.53-2.5 3.78-1.9 8.27-.47 12.31Z" fill="#FDBC4E"/><path d="M5.39 16.28c0 .04-.04.04-.09.04-.04 0-.04-.04-.04-.04-.17-1.79-.26-5.7 1.38-9.14a10.8 10.8 0 0 1 3.5-4.27c.55-.39 1.2-.6 1.89-.6.82.08 1.47.82 1.08 1.65-.6 1.26-2.24 1.43-3.28 2.22a9.79 9.79 0 0 0-2.93 4.04c-.78 1.92-1.3 4-1.51 6.1Z" fill="#FDBC4E"/><path d="M7.03 15.36c0-.34.04-.7.13-1 .34-1.22.82-2.4 1.46-3.48 1.73-2.92 4.23-5.48 7.55-6.27 1-.26 4.23-.26 3.2 1.66-.7 1.22-2.68.7-3.8.91-2.16.44-3.88 1.79-5.4 3.3-1.63 1.7-3.05 4.93-3.14 4.88Z" fill="#FDBC4E"/></svg>