<svg width="66" height="145" fill="none" xmlns="http://www.w3.org/2000/svg"><path d="M56.77 145H9.23C4.13 145 0 137.46 0 128.16V25.64C0 16.34 4.13 8.8 9.23 8.8h47.54c5.1 0 9.23 7.54 9.23 16.84v102.52c0 9.3-4.13 16.84-9.23 16.84Z" fill="#F7BC28"/><path d="M55.53 53.23H10.47c-2.14 0-3.9-3.2-3.9-7.1V26.33c0-3.91 1.76-7.1 3.9-7.1h45.06c2.14 0 3.9 3.19 3.9 7.1v19.78c0 3.92-1.76 7.11-3.9 7.11ZM55.53 92.45H10.47c-1.8 0-3.27-2.67-3.27-5.97V66.7c0-3.3 1.46-5.98 3.27-5.98h45.06c1.8 0 3.27 2.67 3.27 5.98v19.78c0 3.3-1.46 5.97-3.27 5.97ZM55.53 133.93H10.47c-2.14 0-3.9-3.19-3.9-7.1v-19.78c0-3.92 1.76-7.1 3.9-7.1h45.06c2.14 0 3.9 3.18 3.9 7.1v19.78c0 3.91-1.76 7.1-3.9 7.1Z" fill="#E48929"/><path d="M33.35 82.6c1.82 0 3.3-2.69 3.3-6.01 0-3.33-1.48-6.02-3.3-6.02-1.83 0-3.3 2.69-3.3 6.02 0 3.32 1.47 6.02 3.3 6.02ZM33.35 122.96c1.82 0 3.3-2.7 3.3-6.02 0-3.33-1.48-6.02-3.3-6.02-1.83 0-3.3 2.7-3.3 6.02 0 3.32 1.47 6.02 3.3 6.02Z" fill="#F7BC28"/><path d="M10.26 10.64c1.64 16.52 2.68 33.67 4.42 50.08h32.75c-2.68-28.74-4.07-39.1-5.6-57.55-.18-2-1.19-3.4-2.28-3.15L12.01 6.27c-1.16.27-1.96 2.26-1.75 4.37Z" fill="#FBFAF7"/><path d="M18.54 24.7c6.2.38 12.38-.12 18.53-1.5.98-.23 1-3.06 0-2.83a65.64 65.64 0 0 1-18.53 1.5c-1-.05-1 2.78 0 2.82ZM19.78 36a65.7 65.7 0 0 0 18.53-1.49c.98-.22 1-3.05 0-2.83a65.66 65.66 0 0 1-18.53 1.5c-.99-.05-.99 2.78 0 2.83ZM21.02 47.32c6.2.39 12.38-.11 18.53-1.5.98-.22 1-3.05 0-2.82a65.64 65.64 0 0 1-18.53 1.5c-.99-.05-.99 2.78 0 2.82Z" fill="#194429"/></svg>