<svg width="492" height="511" fill="none" xmlns="http://www.w3.org/2000/svg"><path d="M316.83 480.74c-146.76 38.93-227.85 6.21-250.05-15-99.23-94.84-61.2-197.07-45.1-224.59 21.23-36.33 61.16-90.9 84.63-128.6C167.64 7.42 251.7 4 286.1 15.46 437.34 45.99 484.15 174.6 488.64 235.1c21.09 161.95-105.78 231.24-171.8 245.65Z" fill="#F7BC28"/><path d="M190.6 208.63c-23.56 1.57-47.2.88-70.62-2.06-11.96-1.5-26.84-6.55-26.1-16.36.68-8.65 13.14-12.81 23.53-14.85a850.85 850.85 0 0 1 246.56-11.1c13.82 1.39 28.7 3.57 38.28 11.78 4.02 3.42 6.9 8.35 5.13 12.86-2.07 5.29-9.36 7.78-15.86 9.48a497.79 497.79 0 0 1-130.66 15.83l-70.26-5.58Z" fill="#153A23"/><path d="M203.13 154.9c22.08-4.49 44.53-8.97 66.98-7.05 22.45 1.92 45.26 11.29 58.48 29.56 14.57 20.22 15.04 47.4 26.3 69.62 6.9 13.66 18.12 26.48 17.36 41.69-1.1 22.2-25.95 34.4-47.34 40.5a547.23 547.23 0 0 1-163.21 20.8c-5.93-.14-12.05-.43-17.4-3-9.45-4.51-14.5-15.52-14.8-25.97-.3-10.45 3.22-20.67 6.93-30.49A734.6 734.6 0 0 1 196.2 168.1" fill="#FAC7B7"/><path d="M213.13 172.29a221.96 221.96 0 0 0-11.59 88.02c1.02 14.37 3.63 29.14 11.32 40.8a46.78 46.78 0 0 0 44.2 20.63c16.65-2.06 31.9-13.31 41.1-28.77 13.47-22.58 14.06-51.49 12.25-78.45-1.62-23.98-6.98-51.45-26.33-62.46-15.22-8.65-33.6-3.76-50.08 1.33l-20.88 18.9Z" fill="#B26D55"/><path d="M189.73 230.99c22.9.1 49.1-10.36 54.87-15.87 17.37-16.6 19.04-42.71 18.52-65.53l-54.34 11.25-18.65 35.03-.4 35.12Z" fill="#FAC7B7"/><path d="M255.35 159.96s18.72 47.38 67.46 56.86l-7.68-28.43-16.68-28.43h-43.1Z" fill="#FAC7B7"/><path d="M90 500.4c-9.33-30.03 3.11-74.19 25.16-96.6 22.05-22.41 52.26-35.02 82.68-42.96 37.17-9.72 76.86-13.23 113.9-3.18 15.5 4.2 30.31 10.71 44.4 18.47 22.17 12.23 43.35 28.56 54.07 51.48 12.2 26.12 9.09 41 4.68 69.47" fill="#39B55D"/><path d="M279.05 212.77a2.96 2.96 0 0 0-3.12 1.64c-.14.29-.28.57-.39.85-.36.97-.33 2.3.6 2.77.38.17.8.24 1.22.21a62.5 62.5 0 0 1 19.14 3.59c.51.19 2.43 1.27 2.91 1.09.86-.33.44-1.9.08-2.45a6.14 6.14 0 0 0-2.05-1.7l-.21-.14a38.1 38.1 0 0 0-13.91-5.13l-4.27-.73Z" fill="#FAC7B7"/><path d="M226.17 160.96c-16.88 1.16-21.44 15.7-27.42 29.33-6.68 15.2-18.46 31.49-26.57 45.97-7.93 14.16-15.8 28.43-21.82 43.56a153.8 153.8 0 0 0-7.24 23c-1.56 6.95-1.25 8.62-2.2 15.79-1.05 8.15-.7 17.7 7.47 19.21 8.17 1.52 22.8 1.12 30.82 2.2 1.5.2 2.16-2.1.64-2.3-11.62-1.56-30.88 3.41-35.49-11.5-2.12-6.84-.72-14.39.73-21.22 1.56-7.35 17.32-35.4 19.98-42.43 10.88-28.77 19.02-33.5 32.14-61.2 6.83-14.53 9.7-36.66 28.96-38 1.52-.1 1.53-2.5 0-2.4v-.01Z" fill="#fff"/><path d="M213.97 334.47c-7.42-.69-19.77-2.68-26.66-5.52-6.04-2.48-12.68-5.98-16.13-11.8-5.87-9.9-4.9-25.48 3-34.08 1.03-1.13 1.4-3.88.35-2.75-6.83 7.44-10.44 15.6-9.23 25.38.85 6.57.55 13 4.07 16.37 4.33 4.15 13.15 7.62 18.7 9.74 6.71 2.56 15.72 3.49 22.86 4.15 1.54.14 9.4-1.35 7.86-1.5h-4.82Z" fill="#fff"/><path d="M189.35 266.38c-3.53 9.59-7.48 25.42-5.25 33.25 1.3 4.56 9.97 11.44 16.9 17.22 1.19.98 3.76 1.7 2.57.7-6.6-5.5-13.9-11.58-16.23-20.22-2.56-9.76.2-22.58 3.57-31.77.53-1.44-1.06-.62-1.6.81h.04ZM196.36 220.99c8.54-1.27 16.65-4.4 24.54-7.87 7.28-3.21 18.97-8.65 24.76-14.22 5.8-5.56 7.13-15.06 9.69-22.56 2.82-8.1 2.35-12.58 2.41-21.14 0-1.54-1.7-5.7-1.7-4.15 0 24.06-5.2 37.87-16.98 48.64-5.57 5.13-12.57 8.35-19.41 11.36-7.69 3.42-15.6 6.4-23.97 7.63-1.52.22-.85 2.56.64 2.3h.02ZM212.35 195.08c2.04-7.56 11.42-15.2 16.84-20.95 5.88-6.24 7.17-8.35 14.34-13.04 1.29-.85.1-2.9-1.2-2.06-7.7 5.02-15.1 10.8-21.27 17.6-5.48 6.05-8.97 12.47-9.44 16.4-.19 1.53-.98 5.53 0 5.88l.73-3.83Z" fill="#fff"/><path d="M231.96 187.7c7.51-9.52 16.03-21.35 14.74-29.03-.25-1.5-2.1-2.16-2.31-.64-1.66 11.96-9.51 23.92-16.78 33.15-.94 1.2 1.03.79 1.98-.42l2.37-3.05ZM328.22 217.12c-27.03-7.2-48.68-30.16-54.3-57.55l-1.15 1.51c17.17-1.58 32.26 9.27 42.1 22.5 11.3 15.2 15.92 34.07 22.08 51.67a229.2 229.2 0 0 0 11.43 26.35c4.23 8.48 8.54 17.78 7.43 27.52-1.88 16.27-18.18 25.53-32.1 30.51-21.42 7.69-44.66 11.03-67.33 11.23-1.54 0-5.12 3.63-3.56 3.6 21.7-.19 40.52-2.74 61.22-9.3 14.2-4.51 38.43-15.74 44.07-30.6 3.32-8.78 3.67-16.5.22-24.92-3.9-9.53-12.88-18.56-16.58-28.19-7.16-18.64-14.52-47.03-19.64-53.05-11.96-14.03-29.9-31.49-49.32-29.7a1.22 1.22 0 0 0-1.15 1.51c8.17 39.24 28.18 51.81 55.97 59.22a1.2 1.2 0 0 0 .63-2.3l-.02-.01Z" fill="#fff"/><path d="M252.36 323.07c16.89 1.43 44.1-.16 60.25-6.12 13.06-4.83 15.99-12.01 21.73-25.06 3.23-7.33 5.45-6.63-.15-23.06-.5-1.45-2.99-1.96-2.2-.63 7.69 12.86-2.3 30.35-12.27 38.59-11.25 9.28-25.74 13.4-40.08 14.46-9.1.53-18.21.35-27.28-.55-1.53-.13-1.52 2.26 0 2.4v-.03Z" fill="#fff"/><path d="M343.8 296.69c6.93-9.03 4.37-15.18 1.88-26-2.93-12.66-10.48-23.67-17.41-34.43-.85-1.3-2.9-.1-2.07 1.2 6.58 10.2 13.67 20.5 16.81 32.46 2.81 10.62 3.54 19.32-2.52 30.27-.74 1.34-1.14 3.66-.22 2.45l3.54-5.95ZM295.49 304.16c10.65-3.08 20.2-16.57 24.51-26.62 5.29-12.33-.85-19.6-3.81-32.4-.35-1.5-2.65-.86-2.31.63 2.81 12.06 3.6 25.17-1.16 36.87-3.93 9.66-12.42 16.15-21.89 20.86a17.3 17.3 0 0 0-2.74 2.35l7.4-1.69ZM290.93 179.58c5.13 1.52 9 5.34 12.63 9.1a255.46 255.46 0 0 1 15.51 18.57c6.19 8.54 6.1 11.78 9.82 21.65.54 1.43 2.86.8 2.31-.64a120.98 120.98 0 0 0-16.07-29.63c-3.28-4.4-3.08-6.33-6.92-10.25-3.7-3.76-8.6-7.69-13.76-9.25-1.48-.44-4.95 0-3.48.44h-.04Z" fill="#fff"/><path d="M205.81 229.56c-10.24 1.67-13.9 1.55-23.27 6.29-6.72 3.41-13.78 8.34-14.87 15.8-1.4 9.6 8.22 17.59 17.73 19.44 9.52 1.85 19.36-.24 29.04.55M307.7 214.25a56.6 56.6 0 0 1 25.57 3.34c8.13 3.07 15.04 11.3 13.56 19.86-1.6 9.21-11.37 14.35-20.18 17.45a193.87 193.87 0 0 1-25.3 7M234.66 317.94l7.02 36.67h21.51l7.8-47.48-36.34 10.81Z" fill="#B26D55"/><path d="M207.34 369.5a60.4 60.4 0 0 1 3.67-26.47c.27-.92.78-1.75 1.48-2.4a5.48 5.48 0 0 1 3.42-.76c24.14 0 46.38-2 70.52-2.05 3.15 0 8.28 1.92 11.22 3.04 5.12 1.94 8.54 7 9.89 12.29 1.34 5.29 1.05 10.86.7 16.31" fill="#39B55D"/><path d="M213.61 285.9a.79.79 0 0 1-1.07 0c-2.45-2.16-5.29-3.83-7.83-5.88-2.74-2.22-5.22-5.05-5.83-8.54-1.15-6.5 5.48-10.89 10.87-6.72a19.77 19.77 0 0 1 3.81 4.27.19.19 0 0 0 .35-.12 6.93 6.93 0 0 1 1.65-5.12c2.04-2.45 6.35-4.52 9.63-3.92 4.62.86 4.51 6.18 3.25 9.68-1.54 4.22-5.88 7.94-9.06 10.91l-5.77 5.43ZM298.16 281.95a.79.79 0 0 1-1.07-.11c-2.18-2.43-4.82-4.41-7.1-6.74-2.46-2.52-4.6-5.62-4.81-9.13-.4-6.57 6.7-10.18 11.57-5.42a19.59 19.59 0 0 1 3.29 4.68.2.2 0 0 0 .09.08.2.2 0 0 0 .12.02.2.2 0 0 0 .15-.19 6.95 6.95 0 0 1 2.23-4.88c2.3-2.2 6.83-3.76 10.02-2.78 4.5 1.38 3.77 6.65 2.11 9.98-2 4.02-6.75 7.22-10.25 9.8l-6.35 4.7Z" fill="#F1673C"/><path d="M268.03 294.47a32.18 32.18 0 0 0 17.75-18.43 1.71 1.71 0 0 0-1.09-2.43 1.7 1.7 0 0 0-2.14 1.57 28.52 28.52 0 0 1-15.38 16.1 1.7 1.7 0 0 0-1.17 2.05 1.7 1.7 0 0 0 2.06 1.17l-.03-.03ZM269.37 234.46c1.44 6.14 7.26 11.34 13.8 9.84 6.09-1.38 8.73-7.85 10.48-13.14l-2.44 1 11.9 6.07c1.91.97 3.61-1.91 1.71-2.89l-11.9-6.07a1.7 1.7 0 0 0-2.46 1c-1.29 3.9-3.04 9.05-7.3 10.57-5.03 1.8-9.44-2.69-10.52-7.26-.5-2.1-3.72-1.2-3.23.85l-.04.03Z" fill="#010101"/><path d="m288.76 238.4.42.3c.22.18.05.05-.07-.05l.29.22 1.02.86 2.37 1.95c1.48 1.24 2.96 2.5 4.52 3.64a1.7 1.7 0 0 0 2.3-.6 1.71 1.71 0 0 0-.6-2.3l-.43-.3c-.22-.17-.05-.05.07.05l-.29-.22-1.02-.86-2.37-1.96c-1.48-1.23-2.95-2.5-4.52-3.63a1.71 1.71 0 0 0-2.3.6 1.71 1.71 0 0 0 .61 2.28v.01ZM240.07 238.77c-1.08 4.58-5.5 9.05-10.52 7.26-4.27-1.51-5.98-6.68-7.31-10.57a1.7 1.7 0 0 0-1.73-1.21c-.25.01-.5.08-.72.2l-11.9 6.08c-1.93.98-.24 3.87 1.7 2.89l11.9-6.07-2.46-1c1.76 5.3 4.4 11.75 10.47 13.15 6.56 1.5 12.37-3.72 13.81-9.84.5-2.1-2.73-3-3.22-.86l-.02-.03Z" fill="#010101"/><path d="M222.21 240.7c-1.56 1.14-3.03 2.4-4.52 3.65l-2.36 1.95-1.03.86-.25.2c-.1.07.35-.27.04 0l-.43.3a1.7 1.7 0 0 0-.6 2.3 1.71 1.71 0 0 0 2.3.6c1.56-1.14 3.03-2.4 4.51-3.63l2.38-1.97 1.02-.85.25-.2.42-.3a1.7 1.7 0 0 0-1.71-2.9h-.02ZM318.83 226.28c3.11-.31 6.25-.02 9.24.85 2.95.75 5.98 1.71 7.69 4.4a5.12 5.12 0 0 1 .66 4.6c-.6 1.52-1.5 2.9-2.63 4.06a19.9 19.9 0 0 1-6.89 4.39c-2.98 1.24-6.1 2.2-9.07 3.52-1.4.61-.18 2.68 1.2 2.06 5.87-2.57 12.82-3.85 17.09-9.03 2.38-2.9 3.88-6.41 2.13-10-1.61-3.3-4.76-4.93-8.13-5.92a28.26 28.26 0 0 0-11.95-1.24c-1.52.23-.86 2.57.63 2.31h.03Z" fill="#010101"/><path d="M320.96 240.03c.93-.23 1.83-.57 2.68-1.02a16.58 16.58 0 0 0 3.26-2 4.21 4.21 0 0 0 1.82-2.9c.08-1.58-1.36-2.5-2.64-3.02a19.5 19.5 0 0 0-5.81-1.05 1.2 1.2 0 0 0-1.19 1.2 1.22 1.22 0 0 0 1.17 1.17l1.02.09.58.06h.67l.35.05.56.1c.4.08.8.17 1.2.3l.5.16.2.08c-.25-.1.06 0 .1 0 .03 0 .3.16.43.23l.2.14c.29.16-.1-.11 0 0l.22.2c.16.15-.14-.24-.05-.06l.06.09c.15.23-.09-.27 0 0 .08.27 0-.27 0 0v.14s.08-.31 0-.18a.8.8 0 0 0-.07.23c-.04.2.15-.26 0-.09l-.06.12-.17.27c-.06.09.2-.24.04-.06l-.1.12-.21.23c-.07.08-.4.36-.6.53-.06.05-.16.15.07-.05l-.18.13c-.1.08-.2.16-.32.22l-.71.47c-.48.28-.95.53-1.44.77l-.79.37-.12.05c.36-.11.06 0 0 0l-.34.13c-.35.14-.7.25-1.06.32a1.2 1.2 0 0 0-.29 2.2c.28.16.6.2.9.13l.12.13ZM196.07 262.26c-4.16.53-8.39.16-12.4-1.06-2.88-.85-8.49-2.62-7.68-6.59.35-1.85 1.7-3.41 2.98-4.72a28.26 28.26 0 0 1 4.27-3.55 29.88 29.88 0 0 1 10.44-4.48c1.5-.33.85-2.64-.63-2.3-6.51 1.43-13.07 5-17.24 10.3-2 2.56-3.28 6.05-1.15 8.93 1.97 2.64 5.77 3.94 8.8 4.83 4.1 1.2 8.41 1.55 12.65 1.03 1.5-.19 1.52-2.56 0-2.4h-.04Z" fill="#010101"/><path d="M191.1 246.94a14.4 14.4 0 0 0-4.64 1.32c-1.4.63-2.65 1.56-3.66 2.72a4.08 4.08 0 0 0-.5 4.45 5.53 5.53 0 0 0 3.32 2.76c1.85.58 3.82.3 5.7 0a1.2 1.2 0 0 0 .86-1.47 1.23 1.23 0 0 0-1.47-.85c-1.55.23-3.26.5-4.74-.11.13.05-.25-.13-.3-.16a4.83 4.83 0 0 1-.48-.34l-.19-.18s-.3-.33-.23-.24a4.54 4.54 0 0 1-.38-.65v-.06c-.06-.15-.1-.3-.13-.47v-.32c0-.09 0-.16.05-.25.04-.12.1-.23.16-.34.17-.28.38-.52.63-.73a11.38 11.38 0 0 1 6.07-2.72 1.24 1.24 0 0 0 1.2-1.2 1.2 1.2 0 0 0-1.2-1.2l-.06.03Z" fill="#010101"/><path d="M257.1 250.95c2.08 5.36 4.46 10.71 6.15 16.07a2.05 2.05 0 0 1-1.95 2.64l-7.69.06a2.06 2.06 0 0 1-2.02-2.29l1.54-15.99a2.05 2.05 0 0 1 3.97-.5Z" fill="#C05929"/><path d="m188.4 167.81 128-4.6-22.14-56.9h-83.3l-22.56 61.5ZM213.78 341a487.5 487.5 0 0 1 82.96-1.58c1.53.1 1.53-2.29 0-2.39a487.4 487.4 0 0 0-82.96 1.57c-1.52.16-1.53 2.56 0 2.4ZM93.3 496.57c-5.34-3.37-8.06-10.47-5.85-16.45 2.21-5.98 9.2-9.8 15.53-8.63v-2.3c-9.6 3.2-16.9-8.05-16.8-16.42.05-4.91 1.76-10.1 5.5-13.45 3.74-3.35 9.14-4.58 13.75-2.57 1.39.63 2.56-1.44 1.2-2.06a15.36 15.36 0 0 0-15.37 1.86c-4.83 3.57-7.23 9.57-7.47 15.45-.44 10.08 8.36 23.3 19.8 19.47 1.02-.35 1.25-2.08 0-2.3-7.42-1.38-15.37 2.56-18.23 9.68-2.86 7.11.25 15.76 6.72 19.8 1.3.85 2.5-1.25 1.2-2.06l.03-.02ZM145.38 397.7a11.84 11.84 0 0 1-9.6-8.42c-1.44-4.76.55-9.6 4.45-12.55 8.67-6.52 20.07-.1 21.6 9.96l.85-1.47c-3.47.63-6.37-2.79-6.55-6.04-.18-3.24 2.5-5.68 5.39-6.57 7.4-2.28 12.96 4.45 14.6 10.94.37 1.49 2.67.85 2.3-.64-1.18-4.68-3.84-9.23-8.18-11.61a12.16 12.16 0 0 0-12.1.23c-3.42 2.15-5.27 6.13-3.94 10.08 1.33 3.95 4.96 6.68 9.11 5.92a1.21 1.21 0 0 0 .85-1.47 17.38 17.38 0 0 0-10.04-13.17 15.24 15.24 0 0 0-15.77 2.24 13.82 13.82 0 0 0-5.02 14.52c1.46 5.26 5.89 9.62 11.38 10.37 1.5.2 2.15-2.1.63-2.31h.04ZM327.08 369.71c11.16-4.34 24.63 5.59 23.74 17.55l1.2-1.2c-3.17-.3-5.39-3.01-6.06-5.98-.75-3.29.68-6.45 3.05-8.7 5.94-5.64 14.78-4.57 22.2-3.55 1.51.2 2.16-2.1.64-2.3-9.03-1.25-20.38-2.23-26.35 6.3-4.27 6.06-1.46 15.88 6.54 16.63a1.21 1.21 0 0 0 1.2-1.2c1-13.4-14.23-24.72-26.77-19.85-1.42.56-.8 2.86.64 2.31h-.03ZM376 392.82c3.2-1.75 6.99.58 8.55 3.48 2.2 4 .93 9.1-.1 13.27a1.2 1.2 0 0 0 .32 1.15 1.2 1.2 0 0 0 1.15.31c8.42-2.56 17.38 6.84 14.52 15.09-.5 1.46 1.8 2.1 2.3.64 3.42-10-7.4-21.1-17.47-18.03l1.47 1.47c1.28-5.2 2.56-11.57-.86-16.23-2.56-3.42-7.15-5.35-11.1-3.19-1.35.74-.15 2.8 1.2 2.06l.03-.01ZM420.43 441.03c4.35-.5 7.74 3.42 7.95 7.55.21 4.34-2.27 8.4-5 11.57a35.86 35.86 0 0 1-19.33 11.5c-1.3.29-1.04 2.43.31 2.34 5.44-.36 10.2 4.11 9.25 9.68a8.98 8.98 0 0 1-1.19 3.2c-.54.86-1.7 1.55-2.14 2.42-.43.87.07 2.41.19 3.32l.58 4.5c.2 1.51 2.56 1.53 2.39 0l-.41-3.15c-.11-.86-.6-2.33-.41-3.16.25-1.01 1.28-1.78 1.86-2.72 1.4-2.29 1.92-5 1.5-7.64-.93-5.44-6.18-9.2-11.62-8.86l.33 2.34c9.35-2.11 18.34-7.84 23.36-16.15 2.34-3.87 3.7-8.76 1.84-13.09-1.6-3.73-5.3-6.54-9.46-6.06-1.52.18-1.53 2.56 0 2.39v.02Z" fill="#153A23"/><path d="M401.93 428.53c4.1-1.56 9.62-2.56 13.36.48 2.56 2.07 4.14 6.52 1.7 9.3-1 1.16.68 2.86 1.71 1.71 2.45-2.81 2.3-6.83.51-9.95-2.11-3.72-6.24-5.38-10.39-5.35-2.58.06-5.13.57-7.53 1.53-1.43.54-.81 2.85.63 2.3v-.02ZM210.67 366.05a33.94 33.94 0 0 1 3.58-24.28 1.2 1.2 0 0 0-1.33-1.72c-.3.07-.56.25-.73.5a36.47 36.47 0 0 0-3.81 26.13c.35 1.5 2.65.85 2.3-.63h-.01ZM222.74 362.56a16.4 16.4 0 0 1 2.64-14.89 1.22 1.22 0 0 0-.44-1.64 1.24 1.24 0 0 0-1.63.44 18.63 18.63 0 0 0-2.88 16.72c.47 1.46 2.78.86 2.31-.63ZM238.41 366.41c.72-4.27-.1-8.88-.68-13.1-.59-4.22-1.13-8.88-2.78-12.88-.58-1.4-2.9-.8-2.3.63 1.57 3.81 2.1 8.2 2.68 12.25.36 2.44.64 4.88.8 7.34.19 1.7.19 3.42 0 5.12-.25 1.5 2.04 2.16 2.3.64h-.02ZM246.71 345.64c.46 5.4.24 10.84-.65 16.18-.26 1.5 2.04 2.15 2.3.63.95-5.55 1.2-11.2.74-16.8-.12-1.53-2.51-1.54-2.39 0ZM261.12 362.31a31.62 31.62 0 0 0 1.37-12.44 29.37 29.37 0 0 0-3.03-12.06c-.72-1.36-2.79-.16-2.06 1.2 1.82 3.42 2.5 7.4 2.72 11.2.32 3.88-.12 7.77-1.3 11.47-.52 1.45 1.79 2.08 2.3.63ZM267.82 343.7a27.02 27.02 0 0 1 3.27 18.93c-.3 1.5 2 2.14 2.3.63a29.6 29.6 0 0 0-3.52-20.76 1.2 1.2 0 0 0-2.2.3c-.08.3-.03.63.13.9h.02ZM296.96 342.5a30.47 30.47 0 0 1 4.5 19.6c-.16 1.53 2.23 1.52 2.4 0 .77-7.28-.92-14.6-4.81-20.8-.86-1.3-2.89-.1-2.07 1.2h-.02ZM288.36 362.3a19.15 19.15 0 0 1 .35-17.12c.73-1.36-1.33-2.56-2.06-1.2a21.65 21.65 0 0 0-.34 19.53c.66 1.38 2.72.17 2.05-1.2Z" fill="#153A23"/><path d="M225.8 372.08c15.3-.96 30.58-2 45.86-3.11l22.68-1.71c3.78-.3 7.55-.57 11.33-.85 2.9-.24 5.75-.52 8.26-2.1 1.3-.86.1-2.9-1.21-2.07-3.02 1.92-6.9 1.76-10.35 2.04l-10.4.85a4715.96 4715.96 0 0 1-66.17 4.64c-1.51.1-1.53 2.49 0 2.38v-.07ZM107.92 434.67c-3.31-1.83-6.55-5.13-6.39-9.2.14-3.5 4-7.17 7.55-5.54.97.43 2.41-.56 1.64-1.64-1.18-1.64-2.36-3.98-1.36-5.98.77-1.56 3.02-2.33 4.27-.86.8.94 2.27-.06 2-1.16-.76-2.95-1.82-8.78 2.76-9.1 4.4-.3 6.61 4.34 8.18 7.7.53 1.12 2.2.49 2.23-.61l.23-8.54c0-1.06-.36-3.42.91-3.9 1.45-.5 2.83 1.44 3.57 2.35.98 1.2 2.66-.5 1.71-1.71-1.75-2.14-5.45-4.82-7.79-1.7-1.06 1.4-.73 3.7-.78 5.34l-.22 8.18 2.23-.6c-2.11-4.47-5.68-10.19-11.57-8.68-5.41 1.37-4.82 7.75-3.76 11.96l2-1.17c-1.9-2.2-5.32-1.76-7.23.22-2.56 2.69-1.35 6.88.56 9.55l1.64-1.63c-4.5-2.06-9.61 1.07-10.88 5.68-1.5 5.51 2.78 10.69 7.3 13.18 1.35.75 2.57-1.31 1.2-2.06v-.08ZM178.55 372.04a13.48 13.48 0 0 1 24.97-1.42c.69 1.37 2.75.17 2.06-1.2a15.88 15.88 0 0 0-29.34 2c-.51 1.44 1.8 2.07 2.3.62ZM226.09 476.98c-1.7-2.57-3.24-5.93-1.67-8.94 1.66-3.17 4.97-2.6 7.43-.78 3.79 2.8 10.06 9.63 6.84 14.6l1.87-.24c-1.83-1.56-1.7-4.27-.41-6.15 1.47-2.18 4.22-3.04 6.67-3.5 4.05-.8 10.42-1.52 12.9 2.67a1.2 1.2 0 0 0 2.19-.3c.08-.3.04-.63-.12-.9-3.35-5.67-11.9-4.93-17.32-3.38-3.03.85-5.9 2.56-7.1 5.63-1.04 2.61-.72 5.74 1.5 7.62a1.23 1.23 0 0 0 1.5.15c.16-.1.29-.23.38-.38 2.16-3.42 1.05-7.25-.94-10.43-2.08-3.35-5.18-7.03-8.84-8.67a6.52 6.52 0 0 0-8.65 2.86c-2.02 3.78-.5 8 1.67 11.34.85 1.29 2.9.1 2.06-1.2h.04ZM283.13 406.45a8.2 8.2 0 0 1 11.53 8c-.06.8-.41 2.64-1.43 2.79-1.3.18-.8-1.57-.26-2.09a5 5 0 0 1 3.06-1.06c4.27-.3 8.15 2.72 10.05 6.32 2.41 4.54 2.18 10.04 1.46 14.97-.23 1.5 2.07 2.15 2.3.64.85-5.6 1.05-11.66-1.71-16.82-2.2-4.15-6.66-7.5-11.48-7.53-2.15 0-4.8.63-6.04 2.56-1.04 1.59-.86 4.06.94 5.06 2.03 1.17 4.09-.48 4.9-2.31a9.34 9.34 0 0 0-.19-7.06 10.52 10.52 0 0 0-13.76-5.76c-1.4.58-.79 2.9.64 2.3l-.01-.01ZM193.4 405.92c5.87 1.35 12.17-3.65 12.02-9.71 0-1.54-2.42-1.55-2.39 0 .11 4.47-4.65 8.4-8.98 7.4-1.5-.35-2.14 1.96-.64 2.3ZM125.66 450.51c-2.75-2.15-7.45-.77-8.12 2.85-.74 3.94 3.93 6.93 7.32 5.12l-1.75-.7c.38 1.05-1.1 2.07-1.71 2.78a5.2 5.2 0 0 0-1.52 3.95c.3 3.11 3.3 5.4 5.8 6.84a1.2 1.2 0 0 0 1.2-2.06c-1.75-1-5.39-3.35-4.53-5.88.39-1.13 1.53-1.95 2.26-2.86a3.49 3.49 0 0 0 .8-3.42 1.21 1.21 0 0 0-1.24-.86c-.18.02-.36.07-.52.16-1.63.85-4.15-.77-3.77-2.67.32-1.6 2.77-2.62 4.09-1.59 1.31 1.03 2.9-.74 1.7-1.7l-.01.04ZM337.97 449.37c-.49 4.52-.65 9.4 1.03 13.73 1.69 4.33 4.92 6.14 9.32 7.2 1.33.32 3.73 1.01 3.81 2.77.09 1.76-2.2 1.92-3.26 2.56a6.83 6.83 0 0 0-3.08 4.64c-1.18 5.62 3.65 11.54 1.1 16.82-.67 1.38 1.4 2.56 2.06 1.2 2.74-5.66-1.49-10.77-.98-16.5a5.32 5.32 0 0 1 1.85-3.94c.85-.65 2.04-.79 2.96-1.37a3.72 3.72 0 0 0 1.42-4.72c-.86-2.1-2.8-3.1-4.88-3.65-2.87-.76-5.39-1.25-7.11-3.9-2.74-4.2-2.37-10.05-1.85-14.81.16-1.52-2.23-1.52-2.39 0v-.03ZM173.46 447.76a14.62 14.62 0 0 1-1.8 17.16 1.2 1.2 0 0 0 .24 1.88c5.65 2.39 6.4 9.39 6.03 14.76-.43 6.27-1.65 12.9 2 18.5.84 1.3 2.9.1 2.06-1.2-4.14-6.38-1.22-14.06-1.63-21.08-.3-5.19-2.1-10.87-7.25-13.04l.24 1.87a17.09 17.09 0 0 0 2.17-20.06 1.2 1.2 0 1 0-2.06 1.21Z" fill="#153A23"/><path d="M76.64 352c1.2-4.3 2.7-8.5 4.49-12.59.3-.62.85-1.35 1.5-1.07.65.27.53 1.07.39 1.7l-2.75 11.53c3.59-.34 7.2.22 10.54 1.6a.56.56 0 0 1 .06.99c-2 1.28-4.34 1.9-6.72 1.78-.85 0-1.82-.14-2.43.44-.36.42-.6.94-.68 1.5-.78 3.3-2 6.5-3.62 9.5a.65.65 0 0 1-1.2-.2c-.67-2.98.67-6.33.6-9.52a1.7 1.7 0 0 0-.26-1.02 1.89 1.89 0 0 0-1.18-.57 67.83 67.83 0 0 1-9.9-3.01c-.86-.34-1.9-1.3-1.26-1.99.22-.19.48-.3.77-.33 2-.4 4.06-.4 6.05 0l5.6 1.26ZM48.72 381.56c-3.24 3.07-2.45 9.58 3.12 8.02 8.23-2.3 2.45-13.3-3.12-8.02ZM57.47 244.09c-4.45 4.21-3.35 13.14 4.27 11 11.28-3.17 3.36-18.22-4.27-11ZM167.22 90.89c-.23-4.45-.14-8.9.27-13.33.07-.68.39-1.56 1.07-1.5.69.06.86.85.9 1.47.38 3.93.74 7.86 1.08 11.8 3.3-1.47 6.9-2.1 10.5-1.85a.56.56 0 0 1 .39.9 11.43 11.43 0 0 1-5.8 3.85c-.85.23-1.77.44-2.17 1.2-.2.51-.26 1.08-.16 1.63.32 3.42.19 6.86-.4 10.25a.66.66 0 0 1-.53.51.64.64 0 0 1-.66-.3c-1.6-2.62-1.4-6.23-2.48-9.22-.1-.33-.3-.63-.57-.85a2 2 0 0 0-1.3-.16c-3.45.36-6.9.47-10.36.31-.93 0-2.2-.63-1.82-1.47.14-.25.36-.45.62-.57a15.37 15.37 0 0 1 5.75-1.9l5.67-.77ZM153.09 117.73c-2.47 2.34-1.86 7.28 2.37 6.1 6.25-1.76 1.86-10.1-2.37-6.1ZM343.15 77.19c-4.65 4.4-3.5 13.66 4.46 11.48 11.76-3.3 3.5-19.02-4.46-11.48ZM363.6 97.23c-2.46 2.33-1.84 7.27 2.38 6.09 6.25-1.75 1.87-10.13-2.37-6.1ZM102.19 260.41c-2.47 2.33-1.86 7.28 2.37 6.1 6.25-1.76 1.86-10.1-2.37-6.1ZM430.53 262.86c0-3.43.25-6.86.74-10.25.09-.53.37-1.2.86-1.11.48.07.61.68.64 1.16l.35 9.14c2.6-1 5.4-1.35 8.16-1a.43.43 0 0 1 .26.7 8.77 8.77 0 0 1-4.62 2.73c-.63.15-1.38.27-1.7.85a2.2 2.2 0 0 0-.18 1.25c.1 2.64-.15 5.28-.73 7.86a.5.5 0 0 1-.42.38.5.5 0 0 1-.5-.27c-1.13-2.07-.85-4.85-1.55-7.2-.06-.27-.2-.5-.4-.7-.3-.17-.65-.23-1-.18-2.66.14-5.33.09-7.99-.17-.7-.07-1.7-.57-1.34-1.21.12-.19.3-.33.5-.41a11.71 11.71 0 0 1 4.54-1.27l4.38-.3ZM455.42 235.43c-3.25 3.07-2.46 9.58 3.11 8.02 8.23-2.3 2.45-13.28-3.11-8.02ZM236.33 31.9c-3.25 3.08-2.45 9.58 3.12 8.02 8.21-2.3 2.45-13.28-3.12-8.02ZM427.26 375.99c-5.24 4.95-3.95 15.43 5.02 12.92 13.25-3.72 3.95-21.4-5.02-12.92Z" fill="#fff"/></svg>