<svg width="95" height="150" fill="none" xmlns="http://www.w3.org/2000/svg"><g clip-path="url(#a)"><path d="M25.92 21.5A718.1 718.1 0 0 0 2.7 105.45c-1.44 6.72-2.82 13.71-2.69 20.9.13 7.17 2.08 14.71 5.75 17.82 2.08 1.76 4.46 1.95 6.76 2.06 21.39.92 42.85-3.9 63.42-14.26 8.31-4.18 17.96-12.53 18.4-27.76.3-10.46-4.06-19.23-6.75-28.58-4.38-15.23-4.56-33.87-10.22-47.72C72.25 15.37 65.61 2.28 56.89.94c-5.15-.8-10.79-1.86-16.48.49-6.25 2.56-11.5 10.04-14.49 20.06Z" fill="#F7BC28"/><path d="M32.5 24.37A262.03 262.03 0 0 0 28 84.72c.4 9.85 1.41 19.98 4.4 27.97 3.83 10.26 10.7 15.57 17.17 14.16 6.47-1.41 12.39-9.13 15.97-19.73 5.23-15.48 5.46-35.3 4.76-53.79-.63-16.45-2.71-35.28-10.23-42.83-5.91-5.93-13.05-2.58-19.46.9L32.5 24.37Z" fill="#FFC9A0"/><path d="M23.41 64.6c8.9.08 19.08-7.1 21.32-10.86 6.75-11.39 7.43-34.95 7.23-50.6L30.81 16.52l-7.25 24.03-.15 24.06Z" fill="#F7BC28"/><path d="M47.17 3.12s9.01 45.27 27.94 51.76L72.13 35.4l-7.5-25.38-17.46-6.9ZM58.12 52.11c-.5-.14-.99.32-1.21 1.13-.05.2-.11.39-.15.6-.14.67-.13 1.57.23 1.9.14.15.31.15.47.15 1.68.05 3.35.46 4.99 1.15.83.35 1.65.77 2.46 1.28.2.13.95.87 1.13.74.34-.2.17-1.28.03-1.67-.19-.51-.5-.85-.79-1.17l-.08-.08c-1.65-1.79-3.49-3-5.4-3.53l-1.68-.5Z" fill="#F7BC28"/><path d="M42.56 8.75c-6.57.02-13.32 18.62-15.64 27.96-2.59 10.43-7.17 21.6-10.32 31.51-3.08 9.71-6.14 19.5-8.48 29.86a164.65 164.65 0 0 0-2.81 15.76c-.61 4.77-.49 5.91-.85 10.84-.41 5.6-.28 12.14 2.9 13.18 3.12 1.02 8.86.78 11.98 1.5.58.14.84-1.45.25-1.59-4.52-1.08-12 2.35-13.79-7.89-.82-4.7-.28-9.86.29-14.54.61-5.05 6.73-24.28 7.76-29.1 4.23-19.71 7.39-22.96 12.49-41.95 2.85-10.6 5.93-22.8 11.32-30.17a8.84 8.84 0 0 1 2.79-2.68c.87-.46 2.24-1.06 2.99-1.42.95-.47.73-1.27-.88-1.27Z" fill="#fff"/><path d="M33.05 135.55c-.15 0-.29-.02-.44-.04-2.9-.5-7.53-1.85-10.14-3.74-2.35-1.7-4.93-4.11-6.26-8.08-2.29-6.8-1.91-17.47 1.16-23.37.4-.77.55-2.66.14-1.88a31.72 31.72 0 0 0-3.59 17.4c.32 4.5.21 8.9 1.58 11.22 1.68 2.84 5.11 5.22 7.26 6.69 2.61 1.76 6.11 2.4 8.88 2.84.59.1 3.42 0 3.05-1.03h-1.64v-.01Z" fill="#fff"/><path d="M23.26 88.87c-1.37 6.58-2.91 17.42-2.04 22.8.51 3.12 3.88 7.85 6.57 11.8.46.68 1.46 1.17 1 .48-2.56-3.76-5.4-7.94-6.29-13.87-1.01-6.69.07-15.47 1.39-21.77.2-1-.42-.43-.63.56ZM25.99 57.74c3.33-.86 6.47-3 9.53-5.4 2.83-2.2 7.37-5.93 9.64-9.74 2.25-3.81 2.74-10.34 3.75-15.48 1.1-5.54.92-8.63.94-14.48 0-1.06-.66-3.9-.66-2.85 0 16.5-2.02 25.96-6.6 33.36-2.17 3.5-4.89 5.71-7.55 7.78-2.99 2.33-6.06 4.4-9.31 5.22-.58.16-.33 1.75.26 1.6ZM32.2 39.99c.79-5.19 4.44-10.41 6.54-14.37 2.29-4.28 2.79-5.73 5.57-8.94.5-.59.98-3.2.48-2.62-2.98 3.45-6.82 8.62-9.21 13.28-2.13 4.14-3.48 8.54-3.67 11.24-.07 1.04-.38 3.8-.01 4.04l.3-2.63Z" fill="#fff"/><path d="M39.82 34.94c2.92-6.53 6.23-14.61 5.73-19.94-.1-1.02-.81-1.48-.9-.44-.65 8.2-3.7 16.4-6.52 22.73-.37.81.4.55.77-.28l.92-2.07ZM77.22 55.1c-10.5-4.95-18.91-20.69-21.1-39.46l-.45 1.04c6.67-1.08 12.53 6.35 16.35 15.42 4.39 10.43 6.19 23.37 8.58 35.44a234.01 234.01 0 0 0 4.44 18.07c1.64 5.82 3.33 12.19 2.89 18.86-.73 11.15-7.07 17.5-12.48 20.91a50.2 50.2 0 0 1-26.16 7.71c-.6.02-1.98 2.47-1.39 2.47a47.7 47.7 0 0 0 23.79-6.38c5.52-3.1 14.94-10.79 17.12-20.99 1.29-6.01 1.43-11.3.08-17.08-1.52-6.53-5-12.72-6.44-19.32-2.78-12.78-6.01-31.77-7.64-36.37-4.89-13.9-11.58-21.6-19.13-20.38-.31.05-.51.47-.45 1.04 3.17 26.9 10.95 35.52 21.75 40.59.58.28.82-1.3.24-1.58Z" fill="#fff"/><path d="M47.75 127.75c6.56.97 17.14-.1 23.41-4.2 5.08-3.32 6.21-8.23 8.45-17.2 1.25-5 2.12-4.53-.06-15.8-.19-1-1.16-1.34-.85-.44 2.99 8.82-.89 20.8-4.77 26.45-4.37 6.37-10 9.2-15.57 9.92-3.53.45-7.08.16-10.6-.37-.61-.1-.61 1.55-.01 1.64Z" fill="#fff"/><path d="M83.28 109.66c2.69-6.2 1.7-10.41.73-17.82-1.14-8.69-4.07-16.24-6.76-23.62-.32-.88-1.13-.07-.8.83 2.56 7 5.31 14.09 6.53 22.24 1.09 7.29 1.37 13.25-.98 20.75-.29.92-.45 2.5-.09 1.68l1.37-4.06ZM64.5 114.8c4.14-2.12 7.85-11.37 9.53-18.25 2.05-8.46-.33-13.45-1.48-22.22-.14-1.02-1.03-.6-.9.44 1.09 8.28 1.4 17.26-.45 25.27a26.22 26.22 0 0 1-8.51 14.3c-.35.3-1.06 1.62-1.06 1.62l2.87-1.17ZM62.74 29.36c1.64 1.3 3.5 3.68 4.91 6.25 1.46 2.68 4.79 9.73 6.03 12.73 2.4 5.85 2.37 8.08 3.82 14.84.21.97 1.11.54.9-.44a113.47 113.47 0 0 0-6.26-20.32c-1.27-3.01-1.19-4.34-2.69-7.02-1.44-2.58-3.34-5.3-5.35-6.34-.58-.3-1.94 0-1.36.3Z" fill="#fff"/><path d="M29.65 63.64c-3.97 1.14-5.4 1.05-9.04 4.3-2.61 2.33-5.36 5.72-5.78 10.84-.54 6.58 3.19 12.05 6.89 13.32 3.7 1.27 7.52-.16 11.28.37M69.25 53.14c3.36-.6 6.78.19 9.94 2.29 3.16 2.1 5.84 7.75 5.27 13.6-.62 6.32-4.42 9.83-7.84 11.97-3.21 2-6.5 3.6-9.83 4.8M40.87 124.22l2.73 25.15h8.36l3.02-32.56-14.11 7.4Z" fill="#FFC9A0"/><path d="M32.69 102.25c-.12.2-.3.2-.42 0-.95-1.48-2.06-2.63-3.05-4.04a12.3 12.3 0 0 1-2.26-5.83c-.45-4.44 2.13-7.46 4.22-4.6.59.8 1.05 1.85 1.48 2.93.04.1.15.05.14-.1a7.33 7.33 0 0 1 .64-3.49c.79-1.67 2.47-3.1 3.74-2.68 1.79.58 1.75 4.24 1.26 6.64-.59 2.9-2.28 5.45-3.52 7.48l-2.23 3.69ZM65.54 99.55c-.13.17-.31.12-.41-.1-.85-1.65-1.87-3-2.76-4.61a13.91 13.91 0 0 1-1.87-6.25c-.16-4.52 2.6-6.97 4.5-3.73a16 16 0 0 1 1.28 3.22c.04.12.14.07.14-.06 0-1.25.35-2.48.87-3.35.9-1.5 2.65-2.58 3.89-1.9 1.74.95 1.46 4.55.82 6.84-.78 2.75-2.62 4.94-3.98 6.73l-2.48 3.2Z" fill="#F1673C"/><path d="M53.84 108.12c3.19-2.36 5.69-6.91 6.9-12.63.12-.58-.14-1.25-.45-1.41-.36-.18-.68.2-.8.8-1.03 4.88-3.26 9-5.99 11.02-.32.25-.56.76-.45 1.41.07.55.46 1.06.79.81ZM54.36 66.99c.56 4.2 2.82 7.76 5.37 6.74 2.36-.95 3.39-5.38 4.07-9.02l-.95.69 4.62 4.17c.74.67 1.4-1.31.66-1.98l-4.62-4.17c-.39-.35-.82-.05-.95.7-.5 2.66-1.18 6.2-2.84 7.25-1.96 1.23-3.67-1.84-4.09-4.98-.21-1.45-1.47-.83-1.27.6Z" fill="#010101"/><path d="M61.89 69.7a2.94 2.94 0 0 1 .13.18l.11.16.4.57.92 1.34c.58.84 1.15 1.7 1.76 2.49.28.35.74.1.89-.41.18-.6.06-1.2-.23-1.57a2.94 2.94 0 0 1-.13-.18l-.11-.16c-.13-.2-.27-.37-.4-.56l-.92-1.34c-.58-.85-1.15-1.71-1.76-2.49-.28-.35-.74-.1-.89.4-.18.59-.06 1.19.23 1.58ZM42.97 69.94c-.42 3.14-2.13 6.2-4.09 4.97-1.66-1.04-2.34-4.59-2.84-7.25-.14-.72-.57-1.04-.95-.69l-4.62 4.17c-.75.67-.09 2.64.66 1.97l4.62-4.16-.95-.7c.68 3.64 1.71 8.06 4.07 9.03 2.55 1.04 4.81-2.54 5.37-6.74.18-1.42-1.08-2.03-1.27-.6Z" fill="#010101"/><path d="M36.03 71.28c-.61.77-1.18 1.64-1.76 2.48l-.92 1.35-.4.56-.1.14c-.04.05.14-.17.01-.02l-.16.22c-.27.35-.44 1-.23 1.57.18.47.6.8.89.4.61-.77 1.18-1.64 1.76-2.49l.92-1.34c.13-.2.26-.37.4-.56l.1-.14c.04-.06-.14.17-.01.01l.16-.2c.27-.36.44-1.01.23-1.58-.17-.47-.59-.77-.89-.4ZM73.58 61.38c1.18-.32 2.44.07 3.59.58a4.88 4.88 0 0 1 2.98 3.02c.35.97.48 2.04.25 3.16-.21 1.02-.6 1.99-1.02 2.78a8.95 8.95 0 0 1-2.67 3c-1.16.87-2.37 1.52-3.52 2.42-.55.42-.07 1.84.47 1.41 2.28-1.78 4.98-2.63 6.65-6.2.93-1.97 1.51-4.39.83-6.86a6.08 6.08 0 0 0-3.16-4.05c-1.48-.78-3.09-1.26-4.63-.85-.61.16-.36 1.75.23 1.59Z" fill="#010101"/><path d="M74.4 70.8a7.16 7.16 0 0 0 2.31-2.08c.35-.5.68-1.17.71-1.98a2.4 2.4 0 0 0-1.03-2.08c-.71-.51-1.5-.6-2.26-.72-.24-.04-.47.4-.46.8.01.48.2.78.46.82l.39.05.23.04.08.01c.02 0 .16.04.11.02l.07.02.13.04c.07.01.15.03.22.07.16.05.31.12.47.19l.2.12.08.06.04.03.17.16.08.09c.11.12-.04-.07.01.02l.08.14c.06.09-.06-.18-.02-.06l.02.06c.06.16-.03-.2 0-.02.04.23-.01-.18 0 0v.09c-.01-.02.03-.21.01-.13l-.03.16c-.02.14.06-.2.02-.07a.2.2 0 0 0-.02.1l-.06.17.02-.04a.42.42 0 0 0-.04.1l-.09.15-.23.37c-.02.04-.06.1.03-.04a.39.39 0 0 1-.07.1l-.12.15-.28.32a6.1 6.1 0 0 1-.92.81c.14-.07.03-.02-.01 0a2.32 2.32 0 0 1-.53.32c-.24.09-.4.62-.32 1 .06.53.3.73.55.64ZM25.87 86.05a6.85 6.85 0 0 1-4.82-.73c-1.12-.6-3.3-1.8-3-4.51a8.42 8.42 0 0 1 1.16-3.23c.51-.9 1.06-1.73 1.66-2.44a10.1 10.1 0 0 1 4.05-3.07c.58-.23.34-1.8-.25-1.59-2.53 1-5.08 3.44-6.7 7.06-.78 1.75-1.28 4.15-.45 6.13.76 1.81 2.24 2.7 3.42 3.31a7.19 7.19 0 0 0 4.91.7c.61-.11.62-1.76.02-1.63Z" fill="#010101"/><path d="M23.95 75.51a4 4 0 0 0-1.8.9 5.28 5.28 0 0 0-1.42 1.87c-.41.9-.48 2.01-.19 3.06.25.91.74 1.58 1.29 1.88.72.41 1.49.2 2.22 0 .25-.07.39-.61.32-1-.07-.48-.32-.64-.57-.57-.6.16-1.26.34-1.84-.07l-.11-.1-.17-.2-.02-.03-.07-.13-.09-.16-.11-.28-.04-.16c.01.07.01.06-.01-.03l-.05-.32v-.23l.02-.16a.76.76 0 0 1 .06-.23c.06-.2.14-.33.24-.5.21-.36.45-.64.7-.9.5-.5 1.09-.86 1.65-.96.25-.05.46-.34.46-.81-.01-.44-.22-.9-.47-.87Z" fill="#010101"/><path d="M49.59 78.3c.81 3.67 1.73 7.34 2.39 11.01.16.9-.23 1.8-.76 1.82-.94.02-2.05.04-2.97.04-.47 0-.84-.71-.8-1.56l.6-10.96c.08-1.48 1.23-1.74 1.54-.35Z" fill="#E48929"/><path d="M54.25 124.66s-6.55 4.64-13.39-.44l.52 4.76 11.76 7.6 1.11-11.92Z" fill="#EFB086"/><path d="M49.81 12.07c3.32-.16 6.31-2.3 9.6-1.3 2.28.68 4.96 2.77 6.82 5.02 3.85 4.68 6.77 9.6 9.78 15.97.41.89 4.29 11.16 1.05-.07-2.21-7.62-7.39-13.13-11.38-17.94-1.9-2.3-3.71-4-6.01-4.7-3.38-1.02-10.56-1.85-10.53-.72.05 1.45.05 2.75.05 2.75l.62 1Z" fill="#fff"/></g><defs><clipPath id="a"><path fill="#fff" d="M0 0h95v150H0z"/></clipPath></defs></svg>