<svg width="153" height="58" fill="none" xmlns="http://www.w3.org/2000/svg"><g clip-path="url(#a)"><path d="M12.24 28.37c0-8.3 5.38-14.43 13.38-14.43 6.34 0 11.47 3.85 11.47 7.7 0 1.62-1.07 2.7-2.86 2.7-4.36 0-4.19-7.93-9.92-7.93-3.23 0-6.15 3.18-6.15 8.3 0 8.05 4.72 13.34 9.61 13.34 4.07 0 6.4-2.95 7.65-5.11.66-.84 2.1-.6 1.91.66-.42 5.1-4.12 9.91-11.35 9.91-7.64 0-13.74-7.33-13.74-15.14ZM39.3 42.43v-.18c0-1.02 1.56-1.32 1.56-3.06V19.23c0-1.8-1.56-2.22-1.56-3.06v-.18c0-.42.3-.6.78-.84l5.08-2.53c1.07-.54 1.67.06 1.67.72v25.79c0 1.68 1.73 2.04 1.73 3.06v.18c0 .42-.42.72-.95.72h-7.35c-.6 0-.96-.24-.96-.66ZM68.57 37.38c-.24 2.35-2.99 6.14-8.18 6.14-5.62 0-9.74-4.1-9.74-10.34a9.71 9.71 0 0 1 9.44-9.98h.3c5.25 0 7.64 3.07 7.64 5.77a2.73 2.73 0 0 1-1.79 2.7l-8.96 4.1a5.73 5.73 0 0 0 5.32 3.54 5.34 5.34 0 0 0 4.6-2.35c.47-.6 1.37-.42 1.37.42Zm-12.36-6.97c0 1.2.12 2.35.41 3.49l5.2-2.65a2 2 0 0 0 1.08-1.92c0-1.44-1.08-4.33-3.23-4.33s-3.46 2.35-3.46 5.41ZM86.6 26.93c0 1.68-.65 3.18-2.56 3.18-3.16 0-1.73-3.48-3.94-3.48-1.55 0-2.15 2.22-2.15 4.44v8.12c0 1.68 2.03 2.04 2.03 3.06v.18c0 .48-.36.72-.9.72h-7.4c-.6 0-.96-.24-.96-.72v-.18c0-1.02 1.55-1.32 1.55-3.06v-9.44c0-1.8-1.85-1.92-1.85-2.94v-.18c0-.43.3-.73.84-.97l4.84-2.28c.9-.42 1.31.06 1.31.84v3.07c.9-2.59 2.8-4.03 5.5-4.03a3.53 3.53 0 0 1 3.7 3.3v.37ZM110.26 42.31v.12c0 .48-.3.72-.83.72h-7.53a.66.66 0 0 1-.78-.66v-.12c0-1.02 1.5-1.26.84-2.22l-4.36-6.2-2.39 2.23v3.07c0 1.68 1.73 2.04 1.73 3.06v.18c0 .42-.36.72-.95.72h-7.4c-.55 0-.9-.3-.9-.72v-.18c0-1.02 1.55-1.32 1.55-3.06V19.23c0-1.8-1.8-2.22-1.8-3.06v-.18c0-.42.3-.6.84-.84l5.38-2.53c.95-.48 1.61.06 1.61.72v19.72l6.4-5.53c1.19-1.02-.96-2.05-.96-3v-.19c0-.42.3-.72.83-.72h5.74c.47 0 .83.24.83.66v.18c0 1.02-1.97 1.69-3.46 3l-3.29 3.07 6.75 9.56c.66.9 2.15 1.26 2.15 2.22ZM110.26 38.77c0-1.57 1.08-2.23 2.4-2.23 3.52 0 2.14 5.35 6.2 5.35 1.68 0 2.93-.84 2.93-2.7 0-5.41-11.23-2.05-11.23-10.04 0-3.43 3.35-5.95 8.18-5.95 5.08 0 8.3 2.34 8.3 4.87-.05 1.2-1.07 2.16-2.2 2.1-3.35 0-2.15-5.29-5.68-5.29a2.52 2.52 0 0 0-2.63 2.53v.18c0 5.53 11 2.28 11 10.04 0 3.3-3.23 5.83-8.6 5.83-5.26 0-8.67-2.17-8.67-4.7Z" fill="#FBFAF7"/><path d="M150.34 24.28v.18c0 1.02-1.25 1.38-2.03 3.19l-7.64 16.7c-1.32 2.9-4.66 10.04-8.84 10.04-3.65 0-5.92-2.22-5.92-4.32a2.28 2.28 0 0 1 2.15-2.4h.3c3.29 0 2.27 4.86 4.36 4.86 1.44 0 4.3-5.47 5.44-8.23l-8.07-16.65c-.9-1.8-2.15-2.17-2.15-3.19v-.18c0-.42.36-.66.84-.66h7.53c.35-.06.71.24.77.66v.24c0 1.02-1.5 1.14-.6 3.25l4.72 11 4.36-10.4c1.08-2.53-1.79-2.83-1.79-3.79v-.18c0-.42.3-.72.84-.72h4.9c.47-.06.83.24.83.6Z" fill="#FBFAF7"/><path d="M6.33 25.66c.06.06 0 .18-.06.24s-.18 0-.24-.06c-1.2-1.68-3.52-5.83-3.34-12.74 0-2.04.42-4.08 1.2-6 .65-1.57 2.44-4.15 4.47-3.31C10.4 4.63 7.6 7.75 7 8.65c-3.47 5.23-2.63 11.42-.66 17.01Z" fill="#FDBC4E"/><path d="M7.47 22.48c0 .06-.06.06-.12.06s-.06-.06-.06-.06C7.05 20 6.93 14.6 9.19 9.86a14.93 14.93 0 0 1 4.85-5.9 4.56 4.56 0 0 1 2.63-.83c1.13.12 2.03 1.14 1.49 2.28-.84 1.74-3.1 1.98-4.54 3.06-1.85 1.39-3.17 3.5-4.06 5.6a31.03 31.03 0 0 0-2.1 8.4Z" fill="#FDBC4E"/><path d="M9.74 21.22c0-.48.06-.97.18-1.39.47-1.68 1.13-3.3 2.03-4.8C14.34 11 17.8 7.45 22.4 6.37c1.37-.36 5.85-.36 4.42 2.28-.96 1.69-3.7.97-5.26 1.27-2.98.6-5.37 2.46-7.46 4.56-2.27 2.35-4.24 6.8-4.36 6.74Z" fill="#FDBC4E"/></g><defs><clipPath id="a"><path fill="#fff" d="M0 0h153v58H0z"/></clipPath></defs></svg>